<svg width="501" height="501" viewBox="0 0 501 501" fill="none" xmlns="http://www.w3.org/2000/svg">
<g clip-path="url(#clip0)">
<path d="M500.38 383.313H0.379639V383.563H500.38V383.313Z" fill="#EBEBEB"/>
<path d="M450.28 399.403H395.05V399.653H450.28V399.403Z" fill="#EBEBEB"/>
<path d="M330.88 394.163H322.19V394.413H330.88V394.163Z" fill="#EBEBEB"/>
<path d="M392.04 390.123H372.85V390.373H392.04V390.123Z" fill="#EBEBEB"/>
<path d="M96.0296 391.803H52.8396V392.053H96.0296V391.803Z" fill="#EBEBEB"/>
<path d="M261.43 398.263H215.71V398.513H261.43V398.263Z" fill="#EBEBEB"/>
<path d="M234.52 394.033H140.84V394.283H234.52V394.033Z" fill="#EBEBEB"/>
<path d="M243.1 333.003C243.1 336.153 240.54 338.713 237.39 338.713H44.2996C41.1496 338.713 38.5896 336.153 38.5896 333.003V61.5731C38.5896 58.4231 41.1496 55.8631 44.2996 55.8631H237.4C240.55 55.8631 243.11 58.4231 243.11 61.5731L243.1 333.003ZM242.85 61.5731C242.85 58.5631 240.4 56.1131 237.39 56.1131H44.2996C41.2896 56.1131 38.8396 58.5631 38.8396 61.5731V333.003C38.8396 336.013 41.2896 338.463 44.2996 338.463H237.4C240.41 338.463 242.86 336.013 242.86 333.003" fill="#EBEBEB"/>
<path d="M453.69 338.713H260.59C257.44 338.713 254.88 336.153 254.88 333.003V61.5731C254.88 58.4231 257.44 55.8631 260.59 55.8631H453.69C456.84 55.8631 459.4 58.4231 459.4 61.5731V333.003C459.4 336.153 456.84 338.713 453.69 338.713ZM260.59 56.1131C257.58 56.1131 255.13 58.5631 255.13 61.5731V333.003C255.13 336.013 257.58 338.463 260.59 338.463H453.69C456.7 338.463 459.15 336.013 459.15 333.003V61.5731C459.15 58.5631 456.7 56.1131 453.69 56.1131H260.59Z" fill="#EBEBEB"/>
<path d="M193.53 148.473C193.4 132.883 180.73 120.293 165.11 120.293C161.35 120.293 157.76 121.033 154.47 122.363C148.89 110.943 137.16 103.073 123.6 103.073C107.19 103.073 93.4796 114.583 90.0696 129.963C74.6396 130.953 62.4296 143.773 62.4296 159.453C62.4296 175.783 75.6696 189.013 91.9896 189.013H186.06C197.63 189.013 207.02 179.633 207.02 168.053C207.03 159.113 201.42 151.483 193.53 148.473Z" fill="#E0E0E0"/>
<path d="M434.42 284.923C434.29 269.333 421.62 256.743 406 256.743C402.24 256.743 398.65 257.483 395.36 258.813C389.78 247.393 378.05 239.523 364.49 239.523C348.08 239.523 334.37 251.033 330.96 266.413C315.53 267.403 303.32 280.223 303.32 295.903C303.32 312.233 316.56 325.463 332.88 325.463H426.95C438.52 325.463 447.91 316.083 447.91 304.503C447.91 295.563 442.31 287.933 434.42 284.923Z" fill="#F5F5F5"/>
<path d="M344.34 192.773C344.27 184.693 337.7 178.153 329.6 178.153C327.65 178.153 325.79 178.533 324.08 179.223C321.18 173.303 315.1 169.223 308.07 169.223C299.56 169.223 292.45 175.193 290.68 183.163C282.68 183.673 276.34 190.333 276.34 198.463C276.34 206.933 283.21 213.793 291.67 213.793H340.46C346.46 213.793 351.33 208.923 351.33 202.923C351.34 198.293 348.43 194.333 344.34 192.773Z" fill="#E0E0E0"/>
<path d="M413.15 104.743C413.06 94.0631 404.38 85.4331 393.68 85.4331C391.1 85.4331 388.64 85.9431 386.39 86.8531C382.57 79.0331 374.53 73.6431 365.24 73.6431C354 73.6431 344.6 81.5231 342.27 92.0631C331.7 92.7431 323.33 101.533 323.33 112.273C323.33 123.463 332.4 132.533 343.59 132.533H408.05C415.98 132.533 422.41 126.103 422.41 118.173C422.39 112.033 418.55 106.803 413.15 104.743Z" fill="#EBEBEB"/>
<path d="M206.47 276.133C206.38 265.453 197.7 256.823 187 256.823C184.42 256.823 181.96 257.333 179.71 258.243C175.89 250.423 167.85 245.033 158.56 245.033C147.32 245.033 137.92 252.913 135.59 263.453C125.02 264.133 116.65 272.923 116.65 283.663C116.65 294.853 125.72 303.923 136.91 303.923H201.37C209.3 303.923 215.73 297.493 215.73 289.563C215.71 283.423 211.87 278.193 206.47 276.133Z" fill="#F5F5F5"/>
<path d="M131.38 175.973C131.25 175.973 131.12 175.913 131.03 175.823C130.98 175.773 130.94 175.723 130.92 175.663C130.89 175.603 130.88 175.533 130.88 175.473C130.88 175.403 130.89 175.343 130.92 175.273C130.94 175.213 130.98 175.163 131.03 175.113C131.16 174.983 131.38 174.933 131.57 175.003C131.63 175.033 131.69 175.073 131.73 175.113C131.83 175.213 131.88 175.333 131.88 175.473C131.88 175.533 131.87 175.603 131.84 175.663C131.82 175.723 131.78 175.773 131.73 175.823C131.64 175.913 131.51 175.973 131.38 175.973Z" fill="#E0E0E0"/>
<path d="M130.88 197.513C130.88 197.233 131.11 197.013 131.38 197.013C131.66 197.013 131.88 197.233 131.88 197.513C131.88 197.793 131.66 198.013 131.38 198.013C131.11 198.013 130.88 197.793 130.88 197.513ZM130.88 192.003C130.88 191.723 131.11 191.503 131.38 191.503C131.66 191.503 131.88 191.723 131.88 192.003C131.88 192.273 131.66 192.503 131.38 192.503C131.11 192.503 130.88 192.273 130.88 192.003ZM130.88 186.493C130.88 186.213 131.11 185.993 131.38 185.993C131.66 185.993 131.88 186.213 131.88 186.493C131.88 186.763 131.66 186.993 131.38 186.993C131.11 186.993 130.88 186.763 130.88 186.493ZM130.88 180.983C130.88 180.703 131.11 180.483 131.38 180.483C131.66 180.483 131.88 180.703 131.88 180.983C131.88 181.253 131.66 181.483 131.38 181.483C131.11 181.483 130.88 181.253 130.88 180.983Z" fill="#E0E0E0"/>
<path d="M131.38 203.523C131.32 203.523 131.25 203.513 131.19 203.483C131.13 203.463 131.07 203.423 131.03 203.373C130.98 203.333 130.94 203.273 130.92 203.213C130.89 203.153 130.88 203.093 130.88 203.023C130.88 202.963 130.89 202.893 130.92 202.833C130.94 202.773 130.98 202.713 131.03 202.673C131.07 202.623 131.13 202.593 131.19 202.563C131.31 202.513 131.45 202.513 131.57 202.563C131.63 202.593 131.69 202.623 131.73 202.673C131.78 202.713 131.82 202.773 131.84 202.833C131.87 202.893 131.88 202.963 131.88 203.023C131.88 203.153 131.83 203.283 131.73 203.373C131.69 203.423 131.63 203.463 131.57 203.483C131.51 203.513 131.45 203.523 131.38 203.523Z" fill="#E0E0E0"/>
<path d="M222.55 203.023C222.55 202.753 222.77 202.523 223.04 202.523C223.32 202.523 223.55 202.753 223.55 203.023C223.55 203.303 223.32 203.523 223.04 203.523C222.77 203.523 222.55 203.303 222.55 203.023ZM216.44 203.023C216.44 202.753 216.66 202.523 216.94 202.523C217.21 202.523 217.43 202.753 217.43 203.023C217.43 203.303 217.21 203.523 216.94 203.523C216.66 203.523 216.44 203.303 216.44 203.023ZM210.33 203.023C210.33 202.753 210.55 202.523 210.83 202.523C211.1 202.523 211.33 202.753 211.33 203.023C211.33 203.303 211.1 203.523 210.83 203.523C210.55 203.523 210.33 203.303 210.33 203.023ZM204.21 203.023C204.21 202.753 204.44 202.523 204.71 202.523C204.99 202.523 205.21 202.753 205.21 203.023C205.21 203.303 204.99 203.523 204.71 203.523C204.44 203.523 204.21 203.303 204.21 203.023ZM198.1 203.023C198.1 202.753 198.33 202.523 198.6 202.523C198.88 202.523 199.1 202.753 199.1 203.023C199.1 203.303 198.88 203.523 198.6 203.523C198.33 203.523 198.1 203.303 198.1 203.023ZM191.99 203.023C191.99 202.753 192.21 202.523 192.49 202.523C192.77 202.523 192.99 202.753 192.99 203.023C192.99 203.303 192.77 203.523 192.49 203.523C192.21 203.523 191.99 203.303 191.99 203.023ZM185.88 203.023C185.88 202.753 186.1 202.523 186.38 202.523C186.66 202.523 186.88 202.753 186.88 203.023C186.88 203.303 186.66 203.523 186.38 203.523C186.1 203.523 185.88 203.303 185.88 203.023ZM179.77 203.023C179.77 202.753 179.99 202.523 180.27 202.523C180.54 202.523 180.77 202.753 180.77 203.023C180.77 203.303 180.54 203.523 180.27 203.523C179.99 203.523 179.77 203.303 179.77 203.023ZM173.66 203.023C173.66 202.753 173.88 202.523 174.16 202.523C174.43 202.523 174.66 202.753 174.66 203.023C174.66 203.303 174.43 203.523 174.16 203.523C173.88 203.523 173.66 203.303 173.66 203.023ZM167.55 203.023C167.55 202.753 167.77 202.523 168.05 202.523C168.32 202.523 168.55 202.753 168.55 203.023C168.55 203.303 168.32 203.523 168.05 203.523C167.77 203.523 167.55 203.303 167.55 203.023ZM161.43 203.023C161.43 202.753 161.66 202.523 161.93 202.523C162.21 202.523 162.44 202.753 162.44 203.023C162.44 203.303 162.21 203.523 161.93 203.523C161.66 203.523 161.43 203.303 161.43 203.023ZM155.33 203.023C155.33 202.753 155.55 202.523 155.83 202.523C156.1 202.523 156.32 202.753 156.32 203.023C156.32 203.303 156.1 203.523 155.83 203.523C155.55 203.523 155.33 203.303 155.33 203.023ZM149.21 203.023C149.21 202.753 149.44 202.523 149.71 202.523C149.99 202.523 150.21 202.753 150.21 203.023C150.21 203.303 149.99 203.523 149.71 203.523C149.44 203.523 149.21 203.303 149.21 203.023ZM143.1 203.023C143.1 202.753 143.33 202.523 143.6 202.523C143.88 202.523 144.1 202.753 144.1 203.023C144.1 203.303 143.88 203.523 143.6 203.523C143.33 203.523 143.1 203.303 143.1 203.023ZM136.99 203.023C136.99 202.753 137.22 202.523 137.49 202.523C137.77 202.523 137.99 202.753 137.99 203.023C137.99 203.303 137.77 203.523 137.49 203.523C137.22 203.523 136.99 203.303 136.99 203.023Z" fill="#E0E0E0"/>
<path d="M229.16 203.523C229.09 203.523 229.03 203.513 228.97 203.483C228.91 203.463 228.85 203.423 228.8 203.373C228.76 203.333 228.72 203.273 228.7 203.213C228.67 203.153 228.66 203.093 228.66 203.023C228.66 202.963 228.67 202.893 228.7 202.833C228.72 202.773 228.76 202.713 228.8 202.673C228.85 202.623 228.91 202.583 228.97 202.563C229.09 202.513 229.23 202.513 229.35 202.563C229.41 202.583 229.47 202.623 229.51 202.673C229.55 202.713 229.59 202.773 229.62 202.833C229.64 202.893 229.66 202.963 229.66 203.023C229.66 203.153 229.6 203.283 229.51 203.373C229.47 203.423 229.41 203.463 229.35 203.483C229.29 203.513 229.22 203.523 229.16 203.523Z" fill="#E0E0E0"/>
<path d="M228.66 197.073C228.66 196.793 228.88 196.573 229.16 196.573C229.43 196.573 229.66 196.793 229.66 197.073C229.66 197.343 229.43 197.573 229.16 197.573C228.88 197.573 228.66 197.343 228.66 197.073ZM228.66 191.113C228.66 190.833 228.88 190.613 229.16 190.613C229.43 190.613 229.66 190.833 229.66 191.113C229.66 191.393 229.43 191.613 229.16 191.613C228.88 191.613 228.66 191.393 228.66 191.113ZM228.66 185.153C228.66 184.883 228.88 184.653 229.16 184.653C229.43 184.653 229.66 184.883 229.66 185.153C229.66 185.433 229.43 185.653 229.16 185.653C228.88 185.653 228.66 185.433 228.66 185.153ZM228.66 179.203C228.66 178.923 228.88 178.703 229.16 178.703C229.43 178.703 229.66 178.923 229.66 179.203C229.66 179.483 229.43 179.703 229.16 179.703C228.88 179.703 228.66 179.483 228.66 179.203ZM228.66 173.243C228.66 172.973 228.88 172.743 229.16 172.743C229.43 172.743 229.66 172.973 229.66 173.243C229.66 173.523 229.43 173.743 229.16 173.743C228.88 173.743 228.66 173.523 228.66 173.243ZM228.66 167.293C228.66 167.013 228.88 166.793 229.16 166.793C229.43 166.793 229.66 167.013 229.66 167.293C229.66 167.563 229.43 167.793 229.16 167.793C228.88 167.793 228.66 167.563 228.66 167.293ZM228.66 161.333C228.66 161.063 228.88 160.833 229.16 160.833C229.43 160.833 229.66 161.063 229.66 161.333C229.66 161.613 229.43 161.833 229.16 161.833C228.88 161.833 228.66 161.613 228.66 161.333ZM228.66 155.383C228.66 155.103 228.88 154.883 229.16 154.883C229.43 154.883 229.66 155.103 229.66 155.383C229.66 155.653 229.43 155.883 229.16 155.883C228.88 155.883 228.66 155.653 228.66 155.383ZM228.66 149.423C228.66 149.143 228.88 148.923 229.16 148.923C229.43 148.923 229.66 149.143 229.66 149.423C229.66 149.703 229.43 149.923 229.16 149.923C228.88 149.923 228.66 149.703 228.66 149.423Z" fill="#E0E0E0"/>
<path d="M229.16 143.973C229.09 143.973 229.03 143.953 228.97 143.933C228.91 143.903 228.85 143.863 228.8 143.823C228.76 143.773 228.72 143.723 228.7 143.663C228.67 143.603 228.66 143.533 228.66 143.473C228.66 143.403 228.67 143.343 228.7 143.273C228.72 143.213 228.76 143.163 228.8 143.113C228.85 143.073 228.91 143.033 228.97 143.003C229.09 142.953 229.23 142.953 229.35 143.003C229.41 143.033 229.47 143.073 229.51 143.113C229.6 143.213 229.66 143.343 229.66 143.473C229.66 143.603 229.6 143.733 229.51 143.823C229.42 143.913 229.29 143.973 229.16 143.973Z" fill="#E0E0E0"/>
<path d="M366.37 143.473C366.37 143.193 366.59 142.963 366.87 142.963C367.14 142.963 367.37 143.193 367.37 143.473C367.37 143.743 367.14 143.973 366.87 143.973C366.59 143.973 366.37 143.743 366.37 143.473ZM360.38 143.473C360.38 143.193 360.6 142.963 360.88 142.963C361.16 142.963 361.38 143.193 361.38 143.473C361.38 143.743 361.16 143.973 360.88 143.973C360.6 143.973 360.38 143.743 360.38 143.473ZM354.39 143.473C354.39 143.193 354.62 142.963 354.89 142.963C355.17 142.963 355.39 143.193 355.39 143.473C355.39 143.743 355.17 143.973 354.89 143.973C354.62 143.973 354.39 143.743 354.39 143.473ZM348.41 143.473C348.41 143.193 348.63 142.963 348.91 142.963C349.18 142.963 349.4 143.193 349.4 143.473C349.4 143.743 349.18 143.973 348.91 143.973C348.63 143.973 348.41 143.743 348.41 143.473ZM342.42 143.473C342.42 143.193 342.64 142.963 342.92 142.963C343.19 142.963 343.42 143.193 343.42 143.473C343.42 143.743 343.19 143.973 342.92 143.973C342.64 143.973 342.42 143.743 342.42 143.473ZM336.43 143.473C336.43 143.193 336.65 142.963 336.93 142.963C337.21 142.963 337.43 143.193 337.43 143.473C337.43 143.743 337.21 143.973 336.93 143.973C336.65 143.973 336.43 143.743 336.43 143.473ZM330.44 143.473C330.44 143.193 330.67 142.963 330.94 142.963C331.22 142.963 331.44 143.193 331.44 143.473C331.44 143.743 331.22 143.973 330.94 143.973C330.67 143.973 330.44 143.743 330.44 143.473ZM324.46 143.473C324.46 143.193 324.68 142.963 324.96 142.963C325.23 142.963 325.46 143.193 325.46 143.473C325.46 143.743 325.23 143.973 324.96 143.973C324.68 143.973 324.46 143.743 324.46 143.473ZM318.47 143.473C318.47 143.193 318.69 142.963 318.97 142.963C319.24 142.963 319.47 143.193 319.47 143.473C319.47 143.743 319.24 143.973 318.97 143.973C318.69 143.973 318.47 143.743 318.47 143.473ZM312.48 143.473C312.48 143.193 312.71 142.963 312.98 142.963C313.26 142.963 313.48 143.193 313.48 143.473C313.48 143.743 313.26 143.973 312.98 143.973C312.71 143.973 312.48 143.743 312.48 143.473ZM306.49 143.473C306.49 143.193 306.72 142.963 307 142.963C307.27 142.963 307.49 143.193 307.49 143.473C307.49 143.743 307.27 143.973 307 143.973C306.72 143.973 306.49 143.743 306.49 143.473ZM300.51 143.473C300.51 143.193 300.73 142.963 301.01 142.963C301.28 142.963 301.51 143.193 301.51 143.473C301.51 143.743 301.28 143.973 301.01 143.973C300.73 143.973 300.51 143.743 300.51 143.473ZM294.52 143.473C294.52 143.193 294.74 142.963 295.02 142.963C295.3 142.963 295.52 143.193 295.52 143.473C295.52 143.743 295.3 143.973 295.02 143.973C294.74 143.973 294.52 143.743 294.52 143.473ZM288.53 143.473C288.53 143.193 288.76 142.963 289.03 142.963C289.31 142.963 289.53 143.193 289.53 143.473C289.53 143.743 289.31 143.973 289.03 143.973C288.76 143.973 288.53 143.743 288.53 143.473ZM282.54 143.473C282.54 143.193 282.77 142.963 283.04 142.963C283.32 142.963 283.55 143.193 283.55 143.473C283.55 143.743 283.32 143.973 283.04 143.973C282.77 143.973 282.54 143.743 282.54 143.473ZM276.56 143.473C276.56 143.193 276.78 142.963 277.06 142.963C277.33 142.963 277.56 143.193 277.56 143.473C277.56 143.743 277.33 143.973 277.06 143.973C276.78 143.973 276.56 143.743 276.56 143.473ZM270.57 143.473C270.57 143.193 270.79 142.963 271.07 142.963C271.34 142.963 271.57 143.193 271.57 143.473C271.57 143.743 271.34 143.973 271.07 143.973C270.79 143.973 270.57 143.743 270.57 143.473ZM264.58 143.473C264.58 143.193 264.81 142.963 265.08 142.963C265.36 142.963 265.58 143.193 265.58 143.473C265.58 143.743 265.36 143.973 265.08 143.973C264.81 143.973 264.58 143.743 264.58 143.473ZM258.6 143.473C258.6 143.193 258.82 142.963 259.1 142.963C259.37 142.963 259.59 143.193 259.59 143.473C259.59 143.743 259.37 143.973 259.1 143.973C258.82 143.973 258.6 143.743 258.6 143.473ZM252.61 143.473C252.61 143.193 252.83 142.963 253.11 142.963C253.38 142.963 253.61 143.193 253.61 143.473C253.61 143.743 253.38 143.973 253.11 143.973C252.83 143.973 252.61 143.743 252.61 143.473ZM246.62 143.473C246.62 143.193 246.84 142.963 247.12 142.963C247.4 142.963 247.62 143.193 247.62 143.473C247.62 143.743 247.4 143.973 247.12 143.973C246.84 143.973 246.62 143.743 246.62 143.473ZM240.63 143.473C240.63 143.193 240.86 142.963 241.13 142.963C241.41 142.963 241.63 143.193 241.63 143.473C241.63 143.743 241.41 143.973 241.13 143.973C240.86 143.973 240.63 143.743 240.63 143.473ZM234.65 143.473C234.65 143.193 234.87 142.963 235.15 142.963C235.42 142.963 235.65 143.193 235.65 143.473C235.65 143.743 235.42 143.973 235.15 143.973C234.87 143.973 234.65 143.743 234.65 143.473Z" fill="#E0E0E0"/>
<path d="M372.86 143.973C372.72 143.973 372.59 143.913 372.5 143.823C372.41 143.723 372.36 143.603 372.36 143.473C372.36 143.343 372.41 143.213 372.5 143.113C372.55 143.073 372.6 143.033 372.66 143.003C372.85 142.933 373.08 142.973 373.21 143.113C373.25 143.163 373.29 143.213 373.32 143.283C373.34 143.343 373.35 143.403 373.35 143.473C373.35 143.603 373.3 143.733 373.21 143.823C373.12 143.913 372.99 143.973 372.86 143.973Z" fill="#E0E0E0"/>
<path d="M372.35 137.693C372.35 137.423 372.58 137.203 372.85 137.203C373.13 137.203 373.36 137.423 373.36 137.693C373.36 137.973 373.13 138.193 372.85 138.193C372.58 138.193 372.35 137.973 372.35 137.693ZM372.35 131.923C372.35 131.653 372.58 131.423 372.85 131.423C373.13 131.423 373.36 131.653 373.36 131.923C373.36 132.203 373.13 132.433 372.85 132.433C372.58 132.433 372.35 132.203 372.35 131.923ZM372.35 126.153C372.35 125.883 372.58 125.653 372.85 125.653C373.13 125.653 373.36 125.883 373.36 126.153C373.36 126.433 373.13 126.653 372.85 126.653C372.58 126.653 372.35 126.433 372.35 126.153ZM372.35 120.383C372.35 120.113 372.58 119.883 372.85 119.883C373.13 119.883 373.36 120.113 373.36 120.383C373.36 120.663 373.13 120.883 372.85 120.883C372.58 120.883 372.35 120.663 372.35 120.383ZM372.35 114.613C372.35 114.343 372.58 114.113 372.85 114.113C373.13 114.113 373.36 114.343 373.36 114.613C373.36 114.893 373.13 115.113 372.85 115.113C372.58 115.113 372.35 114.893 372.35 114.613ZM372.35 108.843C372.35 108.573 372.58 108.343 372.85 108.343C373.13 108.343 373.36 108.573 373.36 108.843C373.36 109.123 373.13 109.343 372.85 109.343C372.58 109.343 372.35 109.123 372.35 108.843Z" fill="#E0E0E0"/>
<path d="M372.86 103.573C372.72 103.573 372.6 103.523 372.5 103.423C372.41 103.333 372.36 103.203 372.36 103.073C372.36 103.003 372.37 102.943 372.39 102.883C372.42 102.823 372.46 102.763 372.5 102.723C372.69 102.533 373.03 102.533 373.21 102.723C373.3 102.813 373.35 102.943 373.35 103.073C373.35 103.143 373.34 103.203 373.32 103.263C373.29 103.323 373.25 103.383 373.21 103.423C373.16 103.473 373.11 103.513 373.05 103.533C372.99 103.563 372.92 103.573 372.86 103.573Z" fill="#E0E0E0"/>
<path d="M166.18 291.743C166.04 291.743 165.91 291.693 165.82 291.603C165.77 291.553 165.74 291.503 165.71 291.433C165.69 291.373 165.67 291.313 165.67 291.243C165.67 291.113 165.73 290.983 165.82 290.893C165.96 290.753 166.18 290.713 166.37 290.783C166.43 290.813 166.48 290.843 166.53 290.893C166.62 290.983 166.67 291.113 166.67 291.243C166.67 291.313 166.66 291.373 166.64 291.433C166.61 291.503 166.57 291.553 166.53 291.603C166.48 291.643 166.43 291.683 166.37 291.703C166.31 291.733 166.24 291.743 166.18 291.743Z" fill="#E0E0E0"/>
<path d="M165.68 315.783C165.68 315.503 165.9 315.283 166.18 315.283C166.45 315.283 166.67 315.503 166.67 315.783C166.67 316.053 166.45 316.283 166.18 316.283C165.9 316.283 165.68 316.053 165.68 315.783ZM165.68 309.643C165.68 309.373 165.9 309.143 166.18 309.143C166.45 309.143 166.67 309.373 166.67 309.643C166.67 309.923 166.45 310.143 166.18 310.143C165.9 310.143 165.68 309.923 165.68 309.643ZM165.68 303.513C165.68 303.243 165.9 303.013 166.18 303.013C166.45 303.013 166.67 303.243 166.67 303.513C166.67 303.783 166.45 304.013 166.18 304.013C165.9 304.013 165.68 303.783 165.68 303.513ZM165.68 297.383C165.68 297.103 165.9 296.883 166.18 296.883C166.45 296.883 166.67 297.103 166.67 297.383C166.67 297.653 166.45 297.883 166.18 297.883C165.9 297.883 165.68 297.653 165.68 297.383Z" fill="#E0E0E0"/>
<path d="M166.18 322.413C166.04 322.413 165.91 322.363 165.82 322.263C165.77 322.223 165.74 322.163 165.71 322.103C165.69 322.043 165.67 321.983 165.67 321.913C165.67 321.853 165.69 321.783 165.71 321.723C165.74 321.663 165.77 321.603 165.82 321.563C165.96 321.423 166.18 321.373 166.37 321.453C166.43 321.473 166.48 321.513 166.53 321.563C166.57 321.603 166.61 321.663 166.64 321.723C166.66 321.783 166.67 321.853 166.67 321.913C166.67 321.983 166.66 322.043 166.64 322.103C166.61 322.163 166.57 322.223 166.53 322.263C166.48 322.313 166.43 322.353 166.37 322.373C166.31 322.403 166.24 322.413 166.18 322.413Z" fill="#E0E0E0"/>
<path d="M222.93 321.913C222.93 321.633 223.16 321.413 223.43 321.413C223.71 321.413 223.93 321.633 223.93 321.913C223.93 322.193 223.71 322.413 223.43 322.413C223.16 322.413 222.93 322.193 222.93 321.913ZM217.21 321.913C217.21 321.633 217.43 321.413 217.71 321.413C217.98 321.413 218.21 321.633 218.21 321.913C218.21 322.193 217.98 322.413 217.71 322.413C217.43 322.413 217.21 322.193 217.21 321.913ZM211.48 321.913C211.48 321.633 211.71 321.413 211.98 321.413C212.26 321.413 212.48 321.633 212.48 321.913C212.48 322.193 212.26 322.413 211.98 322.413C211.71 322.413 211.48 322.193 211.48 321.913ZM205.76 321.913C205.76 321.633 205.98 321.413 206.26 321.413C206.53 321.413 206.76 321.633 206.76 321.913C206.76 322.193 206.53 322.413 206.26 322.413C205.98 322.413 205.76 322.193 205.76 321.913ZM200.03 321.913C200.03 321.633 200.25 321.413 200.53 321.413C200.8 321.413 201.03 321.633 201.03 321.913C201.03 322.193 200.8 322.413 200.53 322.413C200.25 322.413 200.03 322.193 200.03 321.913ZM194.3 321.913C194.3 321.633 194.53 321.413 194.81 321.413C195.08 321.413 195.3 321.633 195.3 321.913C195.3 322.193 195.08 322.413 194.81 322.413C194.53 322.413 194.3 322.193 194.3 321.913ZM188.58 321.913C188.58 321.633 188.8 321.413 189.08 321.413C189.35 321.413 189.58 321.633 189.58 321.913C189.58 322.193 189.35 322.413 189.08 322.413C188.8 322.413 188.58 322.193 188.58 321.913ZM182.85 321.913C182.85 321.633 183.08 321.413 183.35 321.413C183.63 321.413 183.85 321.633 183.85 321.913C183.85 322.193 183.63 322.413 183.35 322.413C183.08 322.413 182.85 322.193 182.85 321.913ZM177.13 321.913C177.13 321.633 177.35 321.413 177.63 321.413C177.9 321.413 178.13 321.633 178.13 321.913C178.13 322.193 177.9 322.413 177.63 322.413C177.35 322.413 177.13 322.193 177.13 321.913ZM171.4 321.913C171.4 321.633 171.63 321.413 171.9 321.413C172.18 321.413 172.4 321.633 172.4 321.913C172.4 322.193 172.18 322.413 171.9 322.413C171.63 322.413 171.4 322.193 171.4 321.913Z" fill="#E0E0E0"/>
<path d="M229.16 322.413C229.09 322.413 229.03 322.403 228.97 322.373C228.91 322.353 228.85 322.313 228.8 322.263C228.76 322.223 228.72 322.163 228.7 322.103C228.67 322.043 228.66 321.983 228.66 321.913C228.66 321.783 228.71 321.653 228.8 321.563C228.85 321.513 228.91 321.473 228.97 321.453C229.09 321.403 229.23 321.403 229.35 321.453C229.41 321.473 229.47 321.513 229.51 321.563C229.6 321.653 229.66 321.783 229.66 321.913C229.66 321.973 229.65 322.043 229.62 322.103C229.59 322.163 229.56 322.223 229.51 322.263C229.47 322.313 229.41 322.353 229.35 322.373C229.29 322.403 229.22 322.413 229.16 322.413Z" fill="#E0E0E0"/>
<path d="M228.66 316.093C228.66 315.813 228.88 315.593 229.16 315.593C229.43 315.593 229.66 315.813 229.66 316.093C229.66 316.363 229.43 316.593 229.16 316.593C228.88 316.593 228.66 316.363 228.66 316.093ZM228.66 310.273C228.66 309.993 228.88 309.763 229.16 309.763C229.43 309.763 229.66 309.993 229.66 310.273C229.66 310.543 229.43 310.773 229.16 310.773C228.88 310.773 228.66 310.543 228.66 310.273ZM228.66 304.443C228.66 304.173 228.88 303.943 229.16 303.943C229.43 303.943 229.66 304.173 229.66 304.443C229.66 304.723 229.43 304.943 229.16 304.943C228.88 304.943 228.66 304.723 228.66 304.443ZM228.66 298.623C228.66 298.353 228.88 298.123 229.16 298.123C229.43 298.123 229.66 298.353 229.66 298.623C229.66 298.903 229.43 299.123 229.16 299.123C228.88 299.123 228.66 298.903 228.66 298.623ZM228.66 292.803C228.66 292.523 228.88 292.303 229.16 292.303C229.43 292.303 229.66 292.523 229.66 292.803C229.66 293.073 229.43 293.303 229.16 293.303C228.88 293.303 228.66 293.073 228.66 292.803ZM228.66 286.983C228.66 286.703 228.88 286.483 229.16 286.483C229.43 286.483 229.66 286.703 229.66 286.983C229.66 287.253 229.43 287.483 229.16 287.483C228.88 287.483 228.66 287.253 228.66 286.983ZM228.66 281.163C228.66 280.883 228.88 280.663 229.16 280.663C229.43 280.663 229.66 280.883 229.66 281.163C229.66 281.433 229.43 281.663 229.16 281.663C228.88 281.663 228.66 281.433 228.66 281.163ZM228.66 275.333C228.66 275.063 228.88 274.833 229.16 274.833C229.43 274.833 229.66 275.063 229.66 275.333C229.66 275.613 229.43 275.833 229.16 275.833C228.88 275.833 228.66 275.613 228.66 275.333ZM228.66 269.513C228.66 269.233 228.88 269.013 229.16 269.013C229.43 269.013 229.66 269.233 229.66 269.513C229.66 269.793 229.43 270.013 229.16 270.013C228.88 270.013 228.66 269.793 228.66 269.513ZM228.66 263.693C228.66 263.413 228.88 263.193 229.16 263.193C229.43 263.193 229.66 263.413 229.66 263.693C229.66 263.963 229.43 264.193 229.16 264.193C228.88 264.193 228.66 263.963 228.66 263.693ZM228.66 257.873C228.66 257.593 228.88 257.373 229.16 257.373C229.43 257.373 229.66 257.593 229.66 257.873C229.66 258.143 229.43 258.373 229.16 258.373C228.88 258.373 228.66 258.143 228.66 257.873ZM228.66 252.043C228.66 251.773 228.88 251.543 229.16 251.543C229.43 251.543 229.66 251.773 229.66 252.043C229.66 252.323 229.43 252.543 229.16 252.543C228.88 252.543 228.66 252.323 228.66 252.043ZM228.66 246.223C228.66 245.943 228.88 245.723 229.16 245.723C229.43 245.723 229.66 245.943 229.66 246.223C229.66 246.503 229.43 246.723 229.16 246.723C228.88 246.723 228.66 246.503 228.66 246.223ZM228.66 240.403C228.66 240.123 228.88 239.903 229.16 239.903C229.43 239.903 229.66 240.123 229.66 240.403C229.66 240.683 229.43 240.903 229.16 240.903C228.88 240.903 228.66 240.683 228.66 240.403Z" fill="#E0E0E0"/>
<path d="M229.16 235.083C229.09 235.083 229.03 235.063 228.97 235.043C228.91 235.013 228.85 234.983 228.8 234.933C228.76 234.883 228.72 234.833 228.7 234.773C228.67 234.713 228.66 234.643 228.66 234.583C228.66 234.443 228.71 234.323 228.8 234.223C228.85 234.183 228.91 234.143 228.97 234.123C229.09 234.073 229.23 234.073 229.35 234.123C229.41 234.143 229.47 234.183 229.51 234.223C229.6 234.323 229.66 234.453 229.66 234.583C229.66 234.643 229.65 234.713 229.62 234.773C229.59 234.833 229.56 234.883 229.51 234.933C229.47 234.973 229.41 235.013 229.35 235.043C229.29 235.063 229.22 235.083 229.16 235.083Z" fill="#E0E0E0"/>
<path d="M307.29 234.583C307.29 234.303 307.52 234.083 307.79 234.083C308.07 234.083 308.29 234.303 308.29 234.583C308.29 234.853 308.07 235.083 307.79 235.083C307.52 235.083 307.29 234.853 307.29 234.583ZM301.24 234.583C301.24 234.303 301.47 234.083 301.74 234.083C302.02 234.083 302.25 234.303 302.25 234.583C302.25 234.853 302.02 235.083 301.74 235.083C301.47 235.083 301.24 234.853 301.24 234.583ZM295.19 234.583C295.19 234.303 295.42 234.083 295.69 234.083C295.97 234.083 296.19 234.303 296.19 234.583C296.19 234.853 295.97 235.083 295.69 235.083C295.42 235.083 295.19 234.853 295.19 234.583ZM289.15 234.583C289.15 234.303 289.37 234.083 289.64 234.083C289.92 234.083 290.14 234.303 290.14 234.583C290.14 234.853 289.92 235.083 289.64 235.083C289.37 235.083 289.15 234.853 289.15 234.583ZM283.1 234.583C283.1 234.303 283.32 234.083 283.6 234.083C283.87 234.083 284.1 234.303 284.1 234.583C284.1 234.853 283.87 235.083 283.6 235.083C283.32 235.083 283.1 234.853 283.1 234.583ZM277.05 234.583C277.05 234.303 277.27 234.083 277.55 234.083C277.82 234.083 278.05 234.303 278.05 234.583C278.05 234.853 277.82 235.083 277.55 235.083C277.27 235.083 277.05 234.853 277.05 234.583ZM271 234.583C271 234.303 271.22 234.083 271.5 234.083C271.77 234.083 272 234.303 272 234.583C272 234.853 271.77 235.083 271.5 235.083C271.22 235.083 271 234.853 271 234.583ZM264.95 234.583C264.95 234.303 265.18 234.083 265.45 234.083C265.73 234.083 265.95 234.303 265.95 234.583C265.95 234.853 265.73 235.083 265.45 235.083C265.18 235.083 264.95 234.853 264.95 234.583ZM258.9 234.583C258.9 234.303 259.12 234.083 259.4 234.083C259.68 234.083 259.9 234.303 259.9 234.583C259.9 234.853 259.68 235.083 259.4 235.083C259.12 235.083 258.9 234.853 258.9 234.583ZM252.85 234.583C252.85 234.303 253.08 234.083 253.35 234.083C253.63 234.083 253.85 234.303 253.85 234.583C253.85 234.853 253.63 235.083 253.35 235.083C253.08 235.083 252.85 234.853 252.85 234.583ZM246.8 234.583C246.8 234.303 247.03 234.083 247.3 234.083C247.58 234.083 247.8 234.303 247.8 234.583C247.8 234.853 247.58 235.083 247.3 235.083C247.03 235.083 246.8 234.853 246.8 234.583ZM240.76 234.583C240.76 234.303 240.98 234.083 241.26 234.083C241.53 234.083 241.76 234.303 241.76 234.583C241.76 234.853 241.53 235.083 241.26 235.083C240.98 235.083 240.76 234.853 240.76 234.583ZM234.71 234.583C234.71 234.303 234.93 234.083 235.21 234.083C235.48 234.083 235.71 234.303 235.71 234.583C235.71 234.853 235.48 235.083 235.21 235.083C234.93 235.083 234.71 234.853 234.71 234.583Z" fill="#E0E0E0"/>
<path d="M313.84 235.083C313.71 235.083 313.58 235.023 313.49 234.933C313.44 234.883 313.41 234.833 313.38 234.773C313.36 234.713 313.34 234.643 313.34 234.583C313.34 234.513 313.36 234.453 313.38 234.393C313.41 234.323 313.44 234.273 313.49 234.223C313.53 234.183 313.59 234.143 313.65 234.123C313.78 234.063 313.91 234.063 314.03 234.123C314.09 234.143 314.15 234.183 314.2 234.223C314.24 234.273 314.28 234.323 314.3 234.393C314.33 234.453 314.34 234.513 314.34 234.583C314.34 234.713 314.29 234.843 314.2 234.933C314.1 235.023 313.97 235.083 313.84 235.083Z" fill="#E0E0E0"/>
<path d="M313.34 228.273C313.34 227.993 313.57 227.773 313.84 227.773C314.12 227.773 314.34 227.993 314.34 228.273C314.34 228.543 314.12 228.773 313.84 228.773C313.57 228.773 313.34 228.543 313.34 228.273ZM313.34 221.963C313.34 221.683 313.57 221.463 313.84 221.463C314.12 221.463 314.34 221.683 314.34 221.963C314.34 222.233 314.12 222.453 313.84 222.453C313.57 222.453 313.34 222.233 313.34 221.963ZM313.34 215.643C313.34 215.373 313.57 215.143 313.84 215.143C314.12 215.143 314.34 215.373 314.34 215.643C314.34 215.923 314.12 216.143 313.84 216.143C313.57 216.143 313.34 215.923 313.34 215.643ZM313.34 209.333C313.34 209.063 313.57 208.833 313.84 208.833C314.12 208.833 314.34 209.063 314.34 209.333C314.34 209.613 314.12 209.833 313.84 209.833C313.57 209.833 313.34 209.613 313.34 209.333Z" fill="#E0E0E0"/>
<path d="M313.84 203.523C313.71 203.523 313.58 203.473 313.49 203.383C313.44 203.333 313.41 203.273 313.38 203.213C313.36 203.153 313.34 203.093 313.34 203.023C313.34 202.963 313.36 202.893 313.38 202.833C313.41 202.773 313.44 202.713 313.49 202.673C313.53 202.623 313.59 202.593 313.65 202.563C313.78 202.513 313.91 202.513 314.03 202.563C314.1 202.593 314.15 202.623 314.2 202.673C314.24 202.713 314.28 202.773 314.3 202.833C314.33 202.893 314.34 202.963 314.34 203.023C314.34 203.153 314.29 203.283 314.2 203.383C314.1 203.473 313.97 203.523 313.84 203.523Z" fill="#E0E0E0"/>
<path d="M372.86 314.083C372.72 314.083 372.59 314.023 372.5 313.933C372.41 313.843 372.36 313.713 372.36 313.583C372.36 313.453 372.41 313.323 372.5 313.223C372.64 313.093 372.86 313.043 373.05 313.123C373.11 313.143 373.16 313.183 373.21 313.223C373.25 313.273 373.29 313.323 373.32 313.393C373.34 313.453 373.35 313.513 373.35 313.583C373.35 313.713 373.3 313.843 373.21 313.933C373.12 314.023 372.99 314.083 372.86 314.083Z" fill="#E0E0E0"/>
<path d="M372.35 348.153C372.35 347.873 372.58 347.653 372.85 347.653C373.13 347.653 373.36 347.873 373.36 348.153C373.36 348.433 373.13 348.653 372.85 348.653C372.58 348.653 372.35 348.433 372.35 348.153ZM372.35 342.393C372.35 342.113 372.58 341.893 372.85 341.893C373.13 341.893 373.36 342.113 373.36 342.393C373.36 342.663 373.13 342.893 372.85 342.893C372.58 342.893 372.35 342.663 372.35 342.393ZM372.35 336.623C372.35 336.353 372.58 336.123 372.85 336.123C373.13 336.123 373.36 336.353 373.36 336.623C373.36 336.903 373.13 337.133 372.85 337.133C372.58 337.133 372.35 336.903 372.35 336.623ZM372.35 330.863C372.35 330.593 372.58 330.363 372.85 330.363C373.13 330.363 373.36 330.593 373.36 330.863C373.36 331.143 373.13 331.363 372.85 331.363C372.58 331.363 372.35 331.143 372.35 330.863ZM372.35 325.103C372.35 324.823 372.58 324.603 372.85 324.603C373.13 324.603 373.36 324.823 373.36 325.103C373.36 325.383 373.13 325.603 372.85 325.603C372.58 325.603 372.35 325.383 372.35 325.103ZM372.35 319.343C372.35 319.063 372.58 318.843 372.85 318.843C373.13 318.843 373.36 319.063 373.36 319.343C373.36 319.613 373.13 319.843 372.85 319.843C372.58 319.843 372.35 319.613 372.35 319.343Z" fill="#E0E0E0"/>
<path d="M372.86 354.413C372.72 354.413 372.6 354.363 372.5 354.263C372.41 354.173 372.36 354.043 372.36 353.913C372.36 353.843 372.37 353.783 372.39 353.723C372.42 353.663 372.46 353.603 372.5 353.563C372.69 353.373 373.03 353.373 373.21 353.563C373.3 353.653 373.35 353.783 373.35 353.913C373.35 353.973 373.34 354.043 373.32 354.103C373.29 354.163 373.25 354.223 373.21 354.263C373.16 354.313 373.11 354.353 373.05 354.373C372.99 354.403 372.92 354.413 372.86 354.413Z" fill="#E0E0E0"/>
<path d="M366.37 353.913C366.37 353.633 366.59 353.413 366.87 353.413C367.14 353.413 367.37 353.633 367.37 353.913C367.37 354.193 367.14 354.413 366.87 354.413C366.59 354.413 366.37 354.193 366.37 353.913ZM360.38 353.913C360.38 353.633 360.6 353.413 360.88 353.413C361.15 353.413 361.38 353.633 361.38 353.913C361.38 354.193 361.15 354.413 360.88 354.413C360.6 354.413 360.38 354.193 360.38 353.913ZM354.39 353.913C354.39 353.633 354.61 353.413 354.89 353.413C355.17 353.413 355.39 353.633 355.39 353.913C355.39 354.193 355.17 354.413 354.89 354.413C354.61 354.413 354.39 354.193 354.39 353.913ZM348.4 353.913C348.4 353.633 348.63 353.413 348.9 353.413C349.18 353.413 349.4 353.633 349.4 353.913C349.4 354.193 349.18 354.413 348.9 354.413C348.63 354.413 348.4 354.193 348.4 353.913ZM342.42 353.913C342.42 353.633 342.64 353.413 342.92 353.413C343.19 353.413 343.42 353.633 343.42 353.913C343.42 354.193 343.19 354.413 342.92 354.413C342.64 354.413 342.42 354.193 342.42 353.913ZM336.43 353.913C336.43 353.633 336.65 353.413 336.93 353.413C337.2 353.413 337.43 353.633 337.43 353.913C337.43 354.193 337.2 354.413 336.93 354.413C336.65 354.413 336.43 354.193 336.43 353.913ZM330.44 353.913C330.44 353.633 330.67 353.413 330.94 353.413C331.22 353.413 331.44 353.633 331.44 353.913C331.44 354.193 331.22 354.413 330.94 354.413C330.67 354.413 330.44 354.193 330.44 353.913ZM324.45 353.913C324.45 353.633 324.68 353.413 324.96 353.413C325.23 353.413 325.46 353.633 325.46 353.913C325.46 354.193 325.23 354.413 324.96 354.413C324.68 354.413 324.45 354.193 324.45 353.913ZM318.47 353.913C318.47 353.633 318.69 353.413 318.97 353.413C319.24 353.413 319.47 353.633 319.47 353.913C319.47 354.193 319.24 354.413 318.97 354.413C318.69 354.413 318.47 354.193 318.47 353.913ZM312.48 353.913C312.48 353.633 312.7 353.413 312.98 353.413C313.26 353.413 313.48 353.633 313.48 353.913C313.48 354.193 313.26 354.413 312.98 354.413C312.7 354.413 312.48 354.193 312.48 353.913ZM306.49 353.913C306.49 353.633 306.72 353.413 306.99 353.413C307.27 353.413 307.49 353.633 307.49 353.913C307.49 354.193 307.27 354.413 306.99 354.413C306.72 354.413 306.49 354.193 306.49 353.913ZM300.5 353.913C300.5 353.633 300.73 353.413 301 353.413C301.28 353.413 301.51 353.633 301.51 353.913C301.51 354.193 301.28 354.413 301 354.413C300.73 354.413 300.5 354.193 300.5 353.913ZM294.52 353.913C294.52 353.633 294.74 353.413 295.02 353.413C295.29 353.413 295.52 353.633 295.52 353.913C295.52 354.193 295.29 354.413 295.02 354.413C294.74 354.413 294.52 354.193 294.52 353.913ZM288.53 353.913C288.53 353.633 288.76 353.413 289.03 353.413C289.3 353.413 289.53 353.633 289.53 353.913C289.53 354.193 289.3 354.413 289.03 354.413C288.76 354.413 288.53 354.193 288.53 353.913ZM282.54 353.913C282.54 353.633 282.77 353.413 283.04 353.413C283.32 353.413 283.54 353.633 283.54 353.913C283.54 354.193 283.32 354.413 283.04 354.413C282.77 354.413 282.54 354.193 282.54 353.913ZM276.56 353.913C276.56 353.633 276.78 353.413 277.06 353.413C277.33 353.413 277.56 353.633 277.56 353.913C277.56 354.193 277.33 354.413 277.06 354.413C276.78 354.413 276.56 354.193 276.56 353.913ZM270.57 353.913C270.57 353.633 270.79 353.413 271.07 353.413C271.34 353.413 271.57 353.633 271.57 353.913C271.57 354.193 271.34 354.413 271.07 354.413C270.79 354.413 270.57 354.193 270.57 353.913ZM264.58 353.913C264.58 353.633 264.8 353.413 265.08 353.413C265.36 353.413 265.58 353.633 265.58 353.913C265.58 354.193 265.36 354.413 265.08 354.413C264.8 354.413 264.58 354.193 264.58 353.913ZM258.6 353.913C258.6 353.633 258.82 353.413 259.09 353.413C259.37 353.413 259.59 353.633 259.59 353.913C259.59 354.193 259.37 354.413 259.09 354.413C258.82 354.413 258.6 354.193 258.6 353.913ZM252.61 353.913C252.61 353.633 252.83 353.413 253.11 353.413C253.38 353.413 253.61 353.633 253.61 353.913C253.61 354.193 253.38 354.413 253.11 354.413C252.83 354.413 252.61 354.193 252.61 353.913ZM246.62 353.913C246.62 353.633 246.84 353.413 247.12 353.413C247.39 353.413 247.62 353.633 247.62 353.913C247.62 354.193 247.39 354.413 247.12 354.413C246.84 354.413 246.62 354.193 246.62 353.913ZM240.63 353.913C240.63 353.633 240.86 353.413 241.13 353.413C241.41 353.413 241.63 353.633 241.63 353.913C241.63 354.193 241.41 354.413 241.13 354.413C240.86 354.413 240.63 354.193 240.63 353.913ZM234.64 353.913C234.64 353.633 234.87 353.413 235.14 353.413C235.42 353.413 235.65 353.633 235.65 353.913C235.65 354.193 235.42 354.413 235.14 354.413C234.87 354.413 234.64 354.193 234.64 353.913Z" fill="#E0E0E0"/>
<path d="M229.16 354.413C229.09 354.413 229.03 354.403 228.97 354.373C228.91 354.353 228.85 354.313 228.8 354.263C228.76 354.223 228.72 354.163 228.7 354.103C228.67 354.043 228.66 353.973 228.66 353.913C228.66 353.853 228.67 353.783 228.7 353.723C228.72 353.663 228.76 353.603 228.8 353.563C228.85 353.513 228.91 353.473 228.97 353.453C229.09 353.403 229.23 353.403 229.35 353.453C229.41 353.473 229.47 353.513 229.51 353.563C229.55 353.603 229.59 353.663 229.62 353.723C229.64 353.783 229.66 353.853 229.66 353.913C229.66 353.973 229.64 354.043 229.62 354.103C229.59 354.163 229.55 354.223 229.51 354.263C229.47 354.313 229.41 354.353 229.35 354.373C229.29 354.403 229.22 354.413 229.16 354.413Z" fill="#E0E0E0"/>
<path d="M228.66 347.513C228.66 347.233 228.88 347.013 229.16 347.013C229.43 347.013 229.66 347.233 229.66 347.513C229.66 347.793 229.43 348.013 229.16 348.013C228.88 348.013 228.66 347.793 228.66 347.513ZM228.66 341.113C228.66 340.833 228.88 340.613 229.16 340.613C229.43 340.613 229.66 340.833 229.66 341.113C229.66 341.393 229.43 341.613 229.16 341.613C228.88 341.613 228.66 341.393 228.66 341.113ZM228.66 334.713C228.66 334.433 228.88 334.213 229.16 334.213C229.43 334.213 229.66 334.433 229.66 334.713C229.66 334.993 229.43 335.213 229.16 335.213C228.88 335.213 228.66 334.993 228.66 334.713ZM228.66 328.313C228.66 328.033 228.88 327.813 229.16 327.813C229.43 327.813 229.66 328.033 229.66 328.313C229.66 328.593 229.43 328.813 229.16 328.813C228.88 328.813 228.66 328.593 228.66 328.313Z" fill="#E0E0E0"/>
<path d="M229.16 322.413C229.09 322.413 229.03 322.403 228.97 322.373C228.91 322.353 228.85 322.313 228.8 322.263C228.76 322.223 228.72 322.163 228.7 322.103C228.67 322.043 228.66 321.983 228.66 321.913C228.66 321.783 228.71 321.653 228.8 321.563C228.85 321.513 228.91 321.473 228.97 321.453C229.09 321.403 229.23 321.403 229.35 321.453C229.41 321.473 229.47 321.513 229.51 321.563C229.6 321.653 229.66 321.783 229.66 321.913C229.66 321.973 229.65 322.043 229.62 322.103C229.59 322.163 229.56 322.223 229.51 322.263C229.47 322.313 229.41 322.353 229.35 322.373C229.29 322.403 229.22 322.413 229.16 322.413Z" fill="#E0E0E0"/>
<path d="M229.16 203.523C229.09 203.523 229.03 203.513 228.97 203.483C228.91 203.463 228.85 203.423 228.8 203.373C228.76 203.333 228.72 203.273 228.7 203.213C228.67 203.153 228.66 203.093 228.66 203.023C228.66 202.963 228.67 202.893 228.7 202.833C228.72 202.773 228.76 202.713 228.8 202.673C228.85 202.623 228.91 202.583 228.97 202.563C229.09 202.513 229.23 202.513 229.35 202.563C229.41 202.583 229.47 202.623 229.51 202.673C229.55 202.713 229.59 202.773 229.62 202.833C229.64 202.893 229.66 202.963 229.66 203.023C229.66 203.153 229.6 203.283 229.51 203.373C229.47 203.423 229.41 203.463 229.35 203.483C229.29 203.513 229.22 203.523 229.16 203.523Z" fill="#E0E0E0"/>
<path d="M228.66 228.273C228.66 227.993 228.88 227.763 229.16 227.763C229.43 227.763 229.66 227.993 229.66 228.273C229.66 228.543 229.43 228.773 229.16 228.773C228.88 228.773 228.66 228.543 228.66 228.273ZM228.66 221.963C228.66 221.683 228.88 221.463 229.16 221.463C229.43 221.463 229.66 221.683 229.66 221.963C229.66 222.233 229.43 222.463 229.16 222.463C228.88 222.463 228.66 222.233 228.66 221.963ZM228.66 215.643C228.66 215.373 228.88 215.143 229.16 215.143C229.43 215.143 229.66 215.373 229.66 215.643C229.66 215.923 229.43 216.143 229.16 216.143C228.88 216.143 228.66 215.923 228.66 215.643ZM228.66 209.333C228.66 209.063 228.88 208.833 229.16 208.833C229.43 208.833 229.66 209.063 229.66 209.333C229.66 209.613 229.43 209.833 229.16 209.833C228.88 209.833 228.66 209.613 228.66 209.333Z" fill="#E0E0E0"/>
<path d="M229.16 235.083C229.09 235.083 229.03 235.063 228.97 235.043C228.91 235.013 228.85 234.983 228.8 234.933C228.76 234.883 228.72 234.833 228.7 234.773C228.67 234.713 228.66 234.643 228.66 234.583C228.66 234.443 228.71 234.323 228.8 234.223C228.85 234.183 228.91 234.143 228.97 234.123C229.09 234.073 229.23 234.073 229.35 234.123C229.41 234.143 229.47 234.183 229.51 234.223C229.6 234.323 229.66 234.453 229.66 234.583C229.66 234.643 229.65 234.713 229.62 234.773C229.59 234.833 229.56 234.883 229.51 234.933C229.47 234.973 229.41 235.013 229.35 235.043C229.29 235.063 229.22 235.083 229.16 235.083Z" fill="#E0E0E0"/>
<path d="M250.38 428.473C357.462 428.473 444.27 423.405 444.27 417.153C444.27 410.901 357.462 405.833 250.38 405.833C143.297 405.833 56.4896 410.901 56.4896 417.153C56.4896 423.405 143.297 428.473 250.38 428.473Z" fill="#F5F5F5"/>
<path d="M123.68 354.393L125.64 320.153C125.75 318.153 127.47 316.533 129.47 316.533H185.03C187.03 316.533 188.56 318.153 188.45 320.153L186.49 354.393C186.38 356.393 184.66 358.013 182.66 358.013H127.1C125.1 358.023 123.57 356.393 123.68 354.393Z" fill="#407BFF"/>
<path d="M120.87 354.393L122.83 320.153C122.94 318.153 124.66 316.533 126.66 316.533H184.45C186.45 316.533 187.98 318.153 187.87 320.153L185.91 354.393C185.8 356.393 184.08 358.013 182.08 358.013H124.29C122.29 358.023 120.76 356.393 120.87 354.393Z" fill="white"/>
<path opacity="0.3" d="M120.87 354.393L122.83 320.153C122.94 318.153 124.66 316.533 126.66 316.533H184.45C186.45 316.533 187.98 318.153 187.87 320.153L185.91 354.393C185.8 356.393 184.08 358.013 182.08 358.013H124.29C122.29 358.023 120.76 356.393 120.87 354.393Z" fill="#407BFF"/>
<path d="M144.59 365.383V364.933C144.59 362.933 146.21 361.313 148.21 361.313H169.11C171.11 361.313 172.73 362.933 172.73 364.933V365.383C172.73 367.383 171.11 369.003 169.11 369.003H148.21C146.22 369.003 144.59 367.383 144.59 365.383Z" fill="#407BFF"/>
<g opacity="0.6">
<path opacity="0.6" d="M144.59 365.383V364.933C144.59 362.933 146.21 361.313 148.21 361.313H169.11C171.11 361.313 172.73 362.933 172.73 364.933V365.383C172.73 367.383 171.11 369.003 169.11 369.003H148.21C146.22 369.003 144.59 367.383 144.59 365.383Z" fill="white"/>
</g>
<path d="M136.01 365.383V364.933C136.01 362.933 137.63 361.313 139.63 361.313H162.76C164.76 361.313 166.38 362.933 166.38 364.933V365.383C166.38 367.383 164.76 369.003 162.76 369.003H139.63C137.63 369.003 136.01 367.383 136.01 365.383Z" fill="white"/>
<path opacity="0.3" d="M136.01 365.383V364.933C136.01 362.933 137.63 361.313 139.63 361.313H162.76C164.76 361.313 166.38 362.933 166.38 364.933V365.383C166.38 367.383 164.76 369.003 162.76 369.003H139.63C137.63 369.003 136.01 367.383 136.01 365.383Z" fill="#407BFF"/>
<path opacity="0.9" d="M182.9 356.263H123.68C122.8 356.263 122.12 355.543 122.17 354.663L124.16 319.883C124.21 319.003 124.97 318.283 125.85 318.283H185.07C185.95 318.283 186.63 319.003 186.58 319.883L184.59 354.663C184.54 355.543 183.78 356.263 182.9 356.263Z" fill="white"/>
<path opacity="0.1" d="M140.74 356.263H128.97L139.74 318.283H151.52L140.74 356.263Z" fill="#407BFF"/>
<path opacity="0.1" d="M150.39 356.263H142.16L152.93 318.283H161.16L150.39 356.263Z" fill="#407BFF"/>
<path opacity="0.1" d="M168.33 356.263H160.1L170.87 318.283H179.1L168.33 356.263Z" fill="#407BFF"/>
<path d="M219.4 354.393L221.36 320.153C221.47 318.153 223.19 316.533 225.19 316.533H280.75C282.75 316.533 284.28 318.153 284.17 320.153L282.21 354.393C282.1 356.393 280.38 358.013 278.38 358.013H222.82C220.81 358.023 219.28 356.393 219.4 354.393Z" fill="#407BFF"/>
<path d="M216.59 354.393L218.55 320.153C218.66 318.153 220.38 316.533 222.38 316.533H280.17C282.17 316.533 283.7 318.153 283.59 320.153L281.63 354.393C281.52 356.393 279.8 358.013 277.8 358.013H220.01C218 358.023 216.48 356.393 216.59 354.393Z" fill="white"/>
<path opacity="0.3" d="M216.59 354.393L218.55 320.153C218.66 318.153 220.38 316.533 222.38 316.533H280.17C282.17 316.533 283.7 318.153 283.59 320.153L281.63 354.393C281.52 356.393 279.8 358.013 277.8 358.013H220.01C218 358.023 216.48 356.393 216.59 354.393Z" fill="#407BFF"/>
<path d="M240.31 365.383V364.933C240.31 362.933 241.93 361.313 243.93 361.313H264.83C266.83 361.313 268.45 362.933 268.45 364.933V365.383C268.45 367.383 266.83 369.003 264.83 369.003H243.93C241.93 369.003 240.31 367.383 240.31 365.383Z" fill="#407BFF"/>
<g opacity="0.6">
<path opacity="0.6" d="M240.31 365.383V364.933C240.31 362.933 241.93 361.313 243.93 361.313H264.83C266.83 361.313 268.45 362.933 268.45 364.933V365.383C268.45 367.383 266.83 369.003 264.83 369.003H243.93C241.93 369.003 240.31 367.383 240.31 365.383Z" fill="white"/>
</g>
<path d="M231.73 365.383V364.933C231.73 362.933 233.35 361.313 235.35 361.313H258.48C260.48 361.313 262.1 362.933 262.1 364.933V365.383C262.1 367.383 260.48 369.003 258.48 369.003H235.35C233.35 369.003 231.73 367.383 231.73 365.383Z" fill="white"/>
<path opacity="0.3" d="M231.73 365.383V364.933C231.73 362.933 233.35 361.313 235.35 361.313H258.48C260.48 361.313 262.1 362.933 262.1 364.933V365.383C262.1 367.383 260.48 369.003 258.48 369.003H235.35C233.35 369.003 231.73 367.383 231.73 365.383Z" fill="#407BFF"/>
<path opacity="0.9" d="M278.61 356.263H219.39C218.51 356.263 217.83 355.543 217.88 354.663L219.87 319.883C219.92 319.003 220.68 318.283 221.56 318.283H280.78C281.66 318.283 282.34 319.003 282.29 319.883L280.3 354.663C280.25 355.543 279.5 356.263 278.61 356.263Z" fill="white"/>
<path opacity="0.1" d="M236.46 356.263H224.68L235.46 318.283H247.23L236.46 356.263Z" fill="#407BFF"/>
<path opacity="0.1" d="M246.1 356.263H237.88L248.65 318.283H256.88L246.1 356.263Z" fill="#407BFF"/>
<path opacity="0.1" d="M264.04 356.263H255.82L266.59 318.283H274.82L264.04 356.263Z" fill="#407BFF"/>
<path d="M315.11 354.393L317.07 320.153C317.18 318.153 318.9 316.533 320.9 316.533H376.46C378.46 316.533 379.99 318.153 379.88 320.153L377.92 354.393C377.81 356.393 376.09 358.013 374.09 358.013H318.53C316.53 358.023 315 356.393 315.11 354.393Z" fill="#407BFF"/>
<path d="M312.31 354.393L314.27 320.153C314.38 318.153 316.1 316.533 318.1 316.533H375.89C377.89 316.533 379.42 318.153 379.31 320.153L377.35 354.393C377.24 356.393 375.52 358.013 373.52 358.013H315.73C313.72 358.023 312.19 356.393 312.31 354.393Z" fill="white"/>
<path opacity="0.3" d="M312.31 354.393L314.27 320.153C314.38 318.153 316.1 316.533 318.1 316.533H375.89C377.89 316.533 379.42 318.153 379.31 320.153L377.35 354.393C377.24 356.393 375.52 358.013 373.52 358.013H315.73C313.72 358.023 312.19 356.393 312.31 354.393Z" fill="#407BFF"/>
<path d="M336.03 365.383V364.933C336.03 362.933 337.65 361.313 339.65 361.313H360.55C362.55 361.313 364.17 362.933 364.17 364.933V365.383C364.17 367.383 362.55 369.003 360.55 369.003H339.65C337.65 369.003 336.03 367.383 336.03 365.383Z" fill="#407BFF"/>
<g opacity="0.6">
<path opacity="0.6" d="M336.03 365.383V364.933C336.03 362.933 337.65 361.313 339.65 361.313H360.55C362.55 361.313 364.17 362.933 364.17 364.933V365.383C364.17 367.383 362.55 369.003 360.55 369.003H339.65C337.65 369.003 336.03 367.383 336.03 365.383Z" fill="white"/>
</g>
<path d="M327.44 365.383V364.933C327.44 362.933 329.06 361.313 331.06 361.313H354.19C356.19 361.313 357.81 362.933 357.81 364.933V365.383C357.81 367.383 356.19 369.003 354.19 369.003H331.06C329.06 369.003 327.44 367.383 327.44 365.383Z" fill="white"/>
<path opacity="0.3" d="M327.44 365.383V364.933C327.44 362.933 329.06 361.313 331.06 361.313H354.19C356.19 361.313 357.81 362.933 357.81 364.933V365.383C357.81 367.383 356.19 369.003 354.19 369.003H331.06C329.06 369.003 327.44 367.383 327.44 365.383Z" fill="#407BFF"/>
<path opacity="0.9" d="M374.33 356.263H315.11C314.23 356.263 313.55 355.543 313.6 354.663L315.59 319.883C315.64 319.003 316.4 318.283 317.28 318.283H376.5C377.38 318.283 378.06 319.003 378.01 319.883L376.02 354.663C375.97 355.543 375.21 356.263 374.33 356.263Z" fill="white"/>
<path opacity="0.1" d="M332.18 356.263H320.4L331.17 318.283H342.95L332.18 356.263Z" fill="#407BFF"/>
<path opacity="0.1" d="M341.82 356.263H333.59L344.37 318.283H352.59L341.82 356.263Z" fill="#407BFF"/>
<path opacity="0.1" d="M359.76 356.263H351.53L362.3 318.283H370.53L359.76 356.263Z" fill="#407BFF"/>
<path d="M154.06 309.713C153.99 309.713 153.93 309.693 153.87 309.673C153.81 309.643 153.75 309.603 153.7 309.563C153.66 309.513 153.62 309.463 153.6 309.403C153.57 309.333 153.56 309.273 153.56 309.213C153.56 309.073 153.61 308.943 153.7 308.853C153.84 308.713 154.06 308.673 154.25 308.743C154.31 308.773 154.37 308.803 154.41 308.853C154.46 308.903 154.5 308.953 154.52 309.013C154.55 309.073 154.56 309.143 154.56 309.213C154.56 309.273 154.55 309.333 154.52 309.403C154.5 309.463 154.46 309.513 154.41 309.563C154.37 309.603 154.31 309.643 154.25 309.673C154.19 309.693 154.12 309.713 154.06 309.713Z" fill="#407BFF"/>
<path d="M153.56 305.543C153.56 305.273 153.78 305.043 154.06 305.043C154.34 305.043 154.56 305.273 154.56 305.543C154.56 305.823 154.34 306.043 154.06 306.043C153.78 306.043 153.56 305.823 153.56 305.543Z" fill="#407BFF"/>
<path d="M154.06 302.383C153.93 302.383 153.8 302.333 153.7 302.233C153.66 302.193 153.62 302.133 153.6 302.073C153.57 302.013 153.56 301.953 153.56 301.883C153.56 301.753 153.61 301.623 153.7 301.533C153.84 301.393 154.06 301.343 154.25 301.423C154.31 301.453 154.37 301.483 154.41 301.533C154.46 301.573 154.5 301.633 154.52 301.693C154.55 301.753 154.56 301.823 154.56 301.883C154.56 301.953 154.55 302.013 154.52 302.073C154.5 302.133 154.46 302.193 154.41 302.233C154.37 302.283 154.31 302.323 154.25 302.343C154.19 302.373 154.12 302.383 154.06 302.383Z" fill="#407BFF"/>
<path d="M245.87 301.883C245.87 301.613 246.09 301.383 246.36 301.383C246.64 301.383 246.86 301.613 246.86 301.883C246.86 302.163 246.64 302.383 246.36 302.383C246.09 302.383 245.87 302.163 245.87 301.883ZM241.85 301.883C241.85 301.613 242.08 301.383 242.35 301.383C242.63 301.383 242.85 301.613 242.85 301.883C242.85 302.163 242.63 302.383 242.35 302.383C242.08 302.383 241.85 302.163 241.85 301.883ZM237.84 301.883C237.84 301.613 238.06 301.383 238.34 301.383C238.61 301.383 238.84 301.613 238.84 301.883C238.84 302.163 238.61 302.383 238.34 302.383C238.06 302.383 237.84 302.163 237.84 301.883ZM233.83 301.883C233.83 301.613 234.05 301.383 234.33 301.383C234.6 301.383 234.82 301.613 234.82 301.883C234.82 302.163 234.6 302.383 234.33 302.383C234.05 302.383 233.83 302.163 233.83 301.883ZM229.81 301.883C229.81 301.613 230.04 301.383 230.31 301.383C230.59 301.383 230.81 301.613 230.81 301.883C230.81 302.163 230.59 302.383 230.31 302.383C230.04 302.383 229.81 302.163 229.81 301.883ZM225.8 301.883C225.8 301.613 226.02 301.383 226.3 301.383C226.57 301.383 226.8 301.613 226.8 301.883C226.8 302.163 226.57 302.383 226.3 302.383C226.02 302.383 225.8 302.163 225.8 301.883ZM221.79 301.883C221.79 301.613 222.01 301.383 222.29 301.383C222.56 301.383 222.79 301.613 222.79 301.883C222.79 302.163 222.56 302.383 222.29 302.383C222.01 302.383 221.79 302.163 221.79 301.883ZM217.77 301.883C217.77 301.613 218 301.383 218.27 301.383C218.55 301.383 218.77 301.613 218.77 301.883C218.77 302.163 218.55 302.383 218.27 302.383C218 302.383 217.77 302.163 217.77 301.883ZM213.76 301.883C213.76 301.613 213.98 301.383 214.26 301.383C214.53 301.383 214.76 301.613 214.76 301.883C214.76 302.163 214.53 302.383 214.26 302.383C213.98 302.383 213.76 302.163 213.76 301.883ZM209.75 301.883C209.75 301.613 209.97 301.383 210.25 301.383C210.52 301.383 210.75 301.613 210.75 301.883C210.75 302.163 210.52 302.383 210.25 302.383C209.97 302.383 209.75 302.163 209.75 301.883ZM205.73 301.883C205.73 301.613 205.96 301.383 206.23 301.383C206.51 301.383 206.73 301.613 206.73 301.883C206.73 302.163 206.51 302.383 206.23 302.383C205.96 302.383 205.73 302.163 205.73 301.883ZM201.72 301.883C201.72 301.613 201.94 301.383 202.22 301.383C202.49 301.383 202.72 301.613 202.72 301.883C202.72 302.163 202.49 302.383 202.22 302.383C201.94 302.383 201.72 302.163 201.72 301.883ZM197.7 301.883C197.7 301.613 197.93 301.383 198.21 301.383C198.48 301.383 198.71 301.613 198.71 301.883C198.71 302.163 198.48 302.383 198.21 302.383C197.93 302.383 197.7 302.163 197.7 301.883ZM193.69 301.883C193.69 301.613 193.92 301.383 194.19 301.383C194.47 301.383 194.69 301.613 194.69 301.883C194.69 302.163 194.47 302.383 194.19 302.383C193.92 302.383 193.69 302.163 193.69 301.883ZM189.68 301.883C189.68 301.613 189.9 301.383 190.18 301.383C190.46 301.383 190.68 301.613 190.68 301.883C190.68 302.163 190.46 302.383 190.18 302.383C189.9 302.383 189.68 302.163 189.68 301.883ZM185.66 301.883C185.66 301.613 185.89 301.383 186.16 301.383C186.44 301.383 186.67 301.613 186.67 301.883C186.67 302.163 186.44 302.383 186.16 302.383C185.89 302.383 185.66 302.163 185.66 301.883ZM181.65 301.883C181.65 301.613 181.87 301.383 182.15 301.383C182.43 301.383 182.65 301.613 182.65 301.883C182.65 302.163 182.43 302.383 182.15 302.383C181.87 302.383 181.65 302.163 181.65 301.883ZM177.64 301.883C177.64 301.613 177.86 301.383 178.14 301.383C178.41 301.383 178.64 301.613 178.64 301.883C178.64 302.163 178.41 302.383 178.14 302.383C177.86 302.383 177.64 302.163 177.64 301.883ZM173.62 301.883C173.62 301.613 173.85 301.383 174.12 301.383C174.4 301.383 174.62 301.613 174.62 301.883C174.62 302.163 174.4 302.383 174.12 302.383C173.85 302.383 173.62 302.163 173.62 301.883ZM169.61 301.883C169.61 301.613 169.84 301.383 170.11 301.383C170.39 301.383 170.61 301.613 170.61 301.883C170.61 302.163 170.39 302.383 170.11 302.383C169.84 302.383 169.61 302.163 169.61 301.883ZM165.6 301.883C165.6 301.613 165.82 301.383 166.1 301.383C166.37 301.383 166.6 301.613 166.6 301.883C166.6 302.163 166.37 302.383 166.1 302.383C165.82 302.383 165.6 302.163 165.6 301.883ZM161.59 301.883C161.59 301.613 161.81 301.383 162.08 301.383C162.36 301.383 162.58 301.613 162.58 301.883C162.58 302.163 162.36 302.383 162.08 302.383C161.81 302.383 161.59 302.163 161.59 301.883ZM157.57 301.883C157.57 301.613 157.8 301.383 158.07 301.383C158.35 301.383 158.57 301.613 158.57 301.883C158.57 302.163 158.35 302.383 158.07 302.383C157.8 302.383 157.57 302.163 157.57 301.883Z" fill="#407BFF"/>
<path d="M250.38 302.383C250.31 302.383 250.25 302.373 250.19 302.343C250.13 302.323 250.07 302.283 250.03 302.243C249.98 302.193 249.94 302.133 249.92 302.073C249.89 302.013 249.88 301.953 249.88 301.883C249.88 301.823 249.89 301.753 249.92 301.693C249.94 301.633 249.98 301.583 250.03 301.533C250.07 301.483 250.13 301.453 250.19 301.423C250.31 301.373 250.45 301.373 250.57 301.423C250.63 301.453 250.69 301.483 250.73 301.533C250.83 301.623 250.88 301.753 250.88 301.883C250.88 301.953 250.87 302.013 250.84 302.073C250.82 302.133 250.78 302.193 250.73 302.243C250.69 302.283 250.63 302.323 250.57 302.343C250.51 302.373 250.45 302.383 250.38 302.383Z" fill="#407BFF"/>
<path d="M250.38 302.383C250.31 302.383 250.25 302.373 250.19 302.343C250.13 302.323 250.07 302.283 250.03 302.243C249.98 302.193 249.94 302.133 249.92 302.073C249.89 302.013 249.88 301.953 249.88 301.883C249.88 301.823 249.89 301.753 249.92 301.693C249.94 301.633 249.98 301.583 250.03 301.533C250.07 301.483 250.13 301.453 250.19 301.423C250.31 301.373 250.45 301.373 250.57 301.423C250.63 301.453 250.69 301.483 250.73 301.533C250.83 301.623 250.88 301.753 250.88 301.883C250.88 301.953 250.87 302.013 250.84 302.073C250.82 302.133 250.78 302.193 250.73 302.243C250.69 302.283 250.63 302.323 250.57 302.343C250.51 302.373 250.45 302.383 250.38 302.383Z" fill="#407BFF"/>
<path d="M249.88 298.413C249.88 298.133 250.11 297.913 250.38 297.913C250.66 297.913 250.88 298.133 250.88 298.413C250.88 298.693 250.66 298.913 250.38 298.913C250.11 298.913 249.88 298.693 249.88 298.413ZM249.88 294.943C249.88 294.663 250.11 294.443 250.38 294.443C250.66 294.443 250.88 294.663 250.88 294.943C250.88 295.223 250.66 295.443 250.38 295.443C250.11 295.443 249.88 295.223 249.88 294.943ZM249.88 291.473C249.88 291.193 250.11 290.973 250.38 290.973C250.66 290.973 250.88 291.193 250.88 291.473C250.88 291.753 250.66 291.973 250.38 291.973C250.11 291.973 249.88 291.753 249.88 291.473Z" fill="#407BFF"/>
<path d="M250.38 288.503C250.25 288.503 250.12 288.453 250.03 288.353C249.98 288.313 249.94 288.253 249.92 288.193C249.89 288.133 249.88 288.063 249.88 288.003C249.88 287.933 249.89 287.873 249.92 287.813C249.94 287.743 249.98 287.693 250.03 287.643C250.07 287.603 250.13 287.563 250.19 287.543C250.31 287.493 250.45 287.483 250.57 287.543C250.63 287.563 250.69 287.603 250.73 287.643C250.78 287.693 250.82 287.753 250.84 287.813C250.87 287.873 250.88 287.933 250.88 288.003C250.88 288.063 250.87 288.133 250.84 288.193C250.82 288.253 250.78 288.313 250.73 288.353C250.64 288.453 250.51 288.503 250.38 288.503Z" fill="#407BFF"/>
<path d="M250.38 302.383C250.31 302.383 250.25 302.373 250.19 302.343C250.13 302.323 250.07 302.283 250.03 302.243C249.98 302.193 249.94 302.133 249.92 302.073C249.89 302.013 249.88 301.953 249.88 301.883C249.88 301.823 249.89 301.753 249.92 301.693C249.94 301.633 249.98 301.583 250.03 301.533C250.07 301.483 250.13 301.453 250.19 301.423C250.31 301.373 250.45 301.373 250.57 301.423C250.63 301.453 250.69 301.483 250.73 301.533C250.83 301.623 250.88 301.753 250.88 301.883C250.88 301.953 250.87 302.013 250.84 302.073C250.82 302.133 250.78 302.193 250.73 302.243C250.69 302.283 250.63 302.323 250.57 302.343C250.51 302.373 250.45 302.383 250.38 302.383Z" fill="#407BFF"/>
<path d="M249.88 305.543C249.88 305.273 250.11 305.043 250.38 305.043C250.66 305.043 250.88 305.273 250.88 305.543C250.88 305.823 250.66 306.043 250.38 306.043C250.11 306.043 249.88 305.823 249.88 305.543Z" fill="#407BFF"/>
<path d="M250.38 309.713C250.25 309.713 250.12 309.653 250.03 309.563C249.98 309.513 249.94 309.463 249.92 309.403C249.89 309.343 249.88 309.273 249.88 309.203C249.88 309.143 249.89 309.073 249.92 309.013C249.94 308.953 249.98 308.903 250.03 308.853C250.21 308.673 250.54 308.663 250.73 308.853C250.78 308.903 250.82 308.953 250.84 309.013C250.87 309.073 250.88 309.143 250.88 309.203C250.88 309.273 250.87 309.343 250.84 309.403C250.82 309.463 250.78 309.513 250.73 309.563C250.64 309.653 250.51 309.713 250.38 309.713Z" fill="#407BFF"/>
<path d="M346.7 309.713C346.57 309.713 346.44 309.653 346.35 309.563C346.26 309.463 346.2 309.333 346.2 309.203C346.2 309.073 346.26 308.943 346.35 308.853C346.53 308.673 346.87 308.663 347.05 308.853C347.1 308.903 347.14 308.953 347.16 309.013C347.19 309.073 347.2 309.143 347.2 309.203C347.2 309.333 347.15 309.463 347.05 309.563C346.96 309.653 346.83 309.713 346.7 309.713Z" fill="#407BFF"/>
<path d="M346.2 305.543C346.2 305.273 346.43 305.043 346.7 305.043C346.98 305.043 347.2 305.273 347.2 305.543C347.2 305.823 346.98 306.043 346.7 306.043C346.43 306.043 346.2 305.823 346.2 305.543Z" fill="#407BFF"/>
<path d="M346.7 302.383C346.57 302.383 346.44 302.333 346.35 302.243C346.26 302.143 346.2 302.013 346.2 301.883C346.2 301.753 346.26 301.623 346.35 301.533C346.53 301.343 346.86 301.343 347.05 301.533C347.15 301.623 347.2 301.753 347.2 301.883C347.2 302.013 347.15 302.143 347.05 302.243C346.96 302.333 346.83 302.383 346.7 302.383Z" fill="#407BFF"/>
<path d="M342.19 301.883C342.19 301.603 342.41 301.383 342.69 301.383C342.96 301.383 343.19 301.603 343.19 301.883C343.19 302.163 342.96 302.383 342.69 302.383C342.41 302.383 342.19 302.163 342.19 301.883ZM338.17 301.883C338.17 301.603 338.4 301.383 338.68 301.383C338.95 301.383 339.18 301.603 339.18 301.883C339.18 302.163 338.95 302.383 338.68 302.383C338.4 302.383 338.17 302.163 338.17 301.883ZM334.16 301.883C334.16 301.603 334.39 301.383 334.66 301.383C334.94 301.383 335.16 301.603 335.16 301.883C335.16 302.163 334.94 302.383 334.66 302.383C334.39 302.383 334.16 302.163 334.16 301.883ZM330.15 301.883C330.15 301.603 330.37 301.383 330.65 301.383C330.92 301.383 331.15 301.603 331.15 301.883C331.15 302.163 330.92 302.383 330.65 302.383C330.37 302.383 330.15 302.163 330.15 301.883ZM326.13 301.883C326.13 301.603 326.36 301.383 326.63 301.383C326.91 301.383 327.14 301.603 327.14 301.883C327.14 302.163 326.91 302.383 326.63 302.383C326.36 302.383 326.13 302.163 326.13 301.883ZM322.12 301.883C322.12 301.603 322.35 301.383 322.62 301.383C322.9 301.383 323.12 301.603 323.12 301.883C323.12 302.163 322.9 302.383 322.62 302.383C322.35 302.383 322.12 302.163 322.12 301.883ZM318.11 301.883C318.11 301.603 318.33 301.383 318.61 301.383C318.88 301.383 319.11 301.603 319.11 301.883C319.11 302.163 318.88 302.383 318.61 302.383C318.33 302.383 318.11 302.163 318.11 301.883ZM314.09 301.883C314.09 301.603 314.32 301.383 314.59 301.383C314.87 301.383 315.1 301.603 315.1 301.883C315.1 302.163 314.87 302.383 314.59 302.383C314.32 302.383 314.09 302.163 314.09 301.883ZM310.08 301.883C310.08 301.603 310.31 301.383 310.58 301.383C310.86 301.383 311.08 301.603 311.08 301.883C311.08 302.163 310.86 302.383 310.58 302.383C310.31 302.383 310.08 302.163 310.08 301.883ZM306.07 301.883C306.07 301.603 306.29 301.383 306.57 301.383C306.84 301.383 307.07 301.603 307.07 301.883C307.07 302.163 306.84 302.383 306.57 302.383C306.29 302.383 306.07 302.163 306.07 301.883ZM302.05 301.883C302.05 301.603 302.28 301.383 302.55 301.383C302.83 301.383 303.05 301.603 303.05 301.883C303.05 302.163 302.83 302.383 302.55 302.383C302.28 302.383 302.05 302.163 302.05 301.883ZM298.04 301.883C298.04 301.603 298.27 301.383 298.54 301.383C298.82 301.383 299.04 301.603 299.04 301.883C299.04 302.163 298.82 302.383 298.54 302.383C298.27 302.383 298.04 302.163 298.04 301.883ZM294.03 301.883C294.03 301.603 294.25 301.383 294.53 301.383C294.8 301.383 295.03 301.603 295.03 301.883C295.03 302.163 294.8 302.383 294.53 302.383C294.25 302.383 294.03 302.163 294.03 301.883ZM290.01 301.883C290.01 301.603 290.24 301.383 290.51 301.383C290.79 301.383 291.01 301.603 291.01 301.883C291.01 302.163 290.79 302.383 290.51 302.383C290.24 302.383 290.01 302.163 290.01 301.883ZM286 301.883C286 301.603 286.23 301.383 286.5 301.383C286.78 301.383 287 301.603 287 301.883C287 302.163 286.78 302.383 286.5 302.383C286.23 302.383 286 302.163 286 301.883ZM281.99 301.883C281.99 301.603 282.21 301.383 282.49 301.383C282.76 301.383 282.99 301.603 282.99 301.883C282.99 302.163 282.76 302.383 282.49 302.383C282.21 302.383 281.99 302.163 281.99 301.883ZM277.97 301.883C277.97 301.603 278.2 301.383 278.47 301.383C278.75 301.383 278.98 301.603 278.98 301.883C278.98 302.163 278.75 302.383 278.47 302.383C278.2 302.383 277.97 302.163 277.97 301.883ZM273.96 301.883C273.96 301.603 274.19 301.383 274.46 301.383C274.74 301.383 274.96 301.603 274.96 301.883C274.96 302.163 274.74 302.383 274.46 302.383C274.19 302.383 273.96 302.163 273.96 301.883ZM269.95 301.883C269.95 301.603 270.17 301.383 270.45 301.383C270.72 301.383 270.95 301.603 270.95 301.883C270.95 302.163 270.72 302.383 270.45 302.383C270.17 302.383 269.95 302.163 269.95 301.883ZM265.93 301.883C265.93 301.603 266.16 301.383 266.43 301.383C266.71 301.383 266.94 301.603 266.94 301.883C266.94 302.163 266.71 302.383 266.43 302.383C266.16 302.383 265.93 302.163 265.93 301.883ZM261.92 301.883C261.92 301.603 262.14 301.383 262.42 301.383C262.7 301.383 262.92 301.603 262.92 301.883C262.92 302.163 262.7 302.383 262.42 302.383C262.14 302.383 261.92 302.163 261.92 301.883ZM257.91 301.883C257.91 301.603 258.13 301.383 258.41 301.383C258.68 301.383 258.91 301.603 258.91 301.883C258.91 302.163 258.68 302.383 258.41 302.383C258.13 302.383 257.91 302.163 257.91 301.883ZM253.89 301.883C253.89 301.603 254.12 301.383 254.39 301.383C254.67 301.383 254.9 301.603 254.9 301.883C254.9 302.163 254.67 302.383 254.39 302.383C254.12 302.383 253.89 302.163 253.89 301.883Z" fill="#407BFF"/>
<path d="M250.38 302.383C250.31 302.383 250.25 302.373 250.19 302.343C250.13 302.323 250.07 302.283 250.03 302.243C249.98 302.193 249.94 302.133 249.92 302.073C249.89 302.013 249.88 301.953 249.88 301.883C249.88 301.823 249.89 301.753 249.92 301.693C249.94 301.633 249.98 301.583 250.03 301.533C250.07 301.483 250.13 301.453 250.19 301.423C250.31 301.373 250.45 301.373 250.57 301.423C250.63 301.453 250.69 301.483 250.73 301.533C250.83 301.623 250.88 301.753 250.88 301.883C250.88 301.953 250.87 302.013 250.84 302.073C250.82 302.133 250.78 302.193 250.73 302.243C250.69 302.283 250.63 302.323 250.57 302.343C250.51 302.373 250.45 302.383 250.38 302.383Z" fill="#407BFF"/>
<path d="M402.93 196.423C402.65 163.563 375.94 137.013 343.02 137.013H318.27C305.76 115.323 282.34 100.713 255.5 100.713H207.33V119.073C196.21 129.003 188.16 142.313 184.82 157.393C152.29 159.483 126.55 186.513 126.55 219.573C126.55 253.993 154.45 281.893 188.87 281.893H387.19C411.59 281.893 431.37 262.113 431.37 237.713C431.38 218.853 419.56 202.763 402.93 196.423Z" fill="#7EBDE6"/>
<path opacity="0.7" d="M402.93 196.423C402.65 163.563 375.94 137.013 343.02 137.013H318.27C305.76 115.323 282.34 100.713 255.5 100.713H207.33V119.073C196.21 129.003 188.16 142.313 184.82 157.393C152.29 159.483 126.55 186.513 126.55 219.573C126.55 253.993 154.45 281.893 188.87 281.893H387.19C411.59 281.893 431.37 262.113 431.37 237.713C431.38 218.853 419.56 202.763 402.93 196.423Z" fill="white"/>
<path d="M354.76 196.423C354.48 163.563 327.77 137.003 294.85 137.003C286.92 137.003 279.35 138.563 272.42 141.363C260.65 117.293 235.93 100.703 207.33 100.703C172.74 100.703 143.84 124.963 136.65 157.383C104.12 159.473 78.3796 186.503 78.3796 219.563C78.3796 253.983 106.28 281.883 140.7 281.883H339.02C363.42 281.883 383.2 262.103 383.2 237.703C383.21 218.853 371.39 202.763 354.76 196.423Z" fill="#7EBDE6"/>
<path opacity="0.1" d="M402.93 196.423C402.65 163.563 375.94 137.003 343.02 137.003C335.09 137.003 327.52 138.563 320.59 141.363C308.82 117.293 284.1 100.703 255.5 100.703C220.91 100.703 192.01 124.963 184.82 157.383C152.29 159.473 126.55 186.503 126.55 219.563C126.55 253.983 154.45 281.883 188.87 281.883H387.19C411.59 281.883 431.37 262.103 431.37 237.703C431.38 218.853 419.56 202.763 402.93 196.423Z" fill="black"/>
<path d="M339.03 282.863H140.71C105.81 282.863 77.4196 254.473 77.4196 219.563C77.4196 186.533 103.04 158.953 135.87 156.463C139.53 140.693 148.47 126.393 161.11 116.133C174.12 105.563 190.54 99.7331 207.34 99.7331C235.3 99.7331 260.34 115.193 272.9 140.133C279.92 137.413 287.3 136.033 294.86 136.033C327.93 136.033 355.11 162.763 355.74 195.753C372.79 202.543 384.2 219.323 384.2 237.703C384.18 262.603 363.93 282.863 339.03 282.863ZM207.34 101.673C174.12 101.673 144.79 125.193 137.61 157.593C137.52 158.013 137.15 158.323 136.72 158.353C104.56 160.423 79.3596 187.303 79.3596 219.563C79.3596 253.393 106.88 280.913 140.71 280.913H339.03C362.86 280.913 382.24 261.533 382.24 237.703C382.24 219.893 371.06 203.673 354.42 197.323C354.05 197.183 353.8 196.823 353.79 196.423C353.52 164.193 327.08 137.973 294.85 137.973C287.25 137.973 279.82 139.413 272.78 142.263C272.31 142.453 271.77 142.243 271.54 141.793C259.45 117.043 234.85 101.673 207.34 101.673Z" fill="#7EBDE6"/>
<path opacity="0.7" d="M339.03 282.863H140.71C105.81 282.863 77.4196 254.473 77.4196 219.563C77.4196 186.533 103.04 158.953 135.87 156.463C139.53 140.693 148.47 126.393 161.11 116.133C174.12 105.563 190.54 99.7331 207.34 99.7331C235.3 99.7331 260.34 115.193 272.9 140.133C279.92 137.413 287.3 136.033 294.86 136.033C327.93 136.033 355.11 162.763 355.74 195.753C372.79 202.543 384.2 219.323 384.2 237.703C384.18 262.603 363.93 282.863 339.03 282.863ZM207.34 101.673C174.12 101.673 144.79 125.193 137.61 157.593C137.52 158.013 137.15 158.323 136.72 158.353C104.56 160.423 79.3596 187.303 79.3596 219.563C79.3596 253.393 106.88 280.913 140.71 280.913H339.03C362.86 280.913 382.24 261.533 382.24 237.703C382.24 219.893 371.06 203.673 354.42 197.323C354.05 197.183 353.8 196.823 353.79 196.423C353.52 164.193 327.08 137.973 294.85 137.973C287.25 137.973 279.82 139.413 272.78 142.263C272.31 142.453 271.77 142.243 271.54 141.793C259.45 117.043 234.85 101.673 207.34 101.673Z" fill="white"/>
<path d="M182.06 193.513H197.99C200.45 193.513 202.44 195.503 202.44 197.963V276.483C202.44 278.933 200.45 280.933 197.99 280.933H182.06V193.513Z" fill="#E0E0E0"/>
<path d="M183.64 193.513H149.35C146.89 193.513 144.9 195.503 144.9 197.963V276.483C144.9 278.933 146.89 280.933 149.35 280.933H183.64C186.1 280.933 188.09 278.943 188.09 276.483V197.963C188.09 195.503 186.1 193.513 183.64 193.513Z" fill="white"/>
<path d="M188.09 262.783H144.91V263.593H188.09V262.783Z" fill="#E0E0E0"/>
<path d="M188.09 245.463H144.91V246.273H188.09V245.463Z" fill="#E0E0E0"/>
<path d="M188.09 228.153H144.91V228.963H188.09V228.153Z" fill="#E0E0E0"/>
<path d="M188.09 210.833H144.91V211.643H188.09V210.833Z" fill="#E0E0E0"/>
<path opacity="0.6" d="M166.44 205.213H152C151.09 205.213 150.35 205.953 150.35 206.863C150.35 207.773 151.09 208.513 152 208.513H166.44C167.35 208.513 168.09 207.773 168.09 206.863C168.09 205.953 167.35 205.213 166.44 205.213Z" fill="#7EBDE6"/>
<path opacity="0.6" d="M166.44 200.923H152C151.09 200.923 150.35 201.663 150.35 202.573C150.35 203.483 151.09 204.223 152 204.223H166.44C167.35 204.223 168.09 203.483 168.09 202.573C168.09 201.663 167.35 200.923 166.44 200.923Z" fill="#7EBDE6"/>
<path opacity="0.6" d="M166.44 196.643H152C151.09 196.643 150.35 197.383 150.35 198.293C150.35 199.203 151.09 199.943 152 199.943H166.44C167.35 199.943 168.09 199.203 168.09 198.293C168.09 197.383 167.35 196.643 166.44 196.643Z" fill="#7EBDE6"/>
<path d="M169.608 208.508H175.638V205.208H169.608V208.508Z" fill="#EBEBEB"/>
<path d="M169.608 204.227H175.638V200.927H169.608V204.227Z" fill="#7EBDE6"/>
<path d="M169.608 199.936H175.638V196.636H169.608V199.936Z" fill="#EBEBEB"/>
<path d="M176.62 208.508H182.65V205.208H176.62V208.508Z" fill="#EBEBEB"/>
<path d="M176.62 204.227H182.65V200.927H176.62V204.227Z" fill="#EBEBEB"/>
<path d="M176.62 199.936H182.65V196.636H176.62V199.936Z" fill="#7EBDE6"/>
<path d="M166.44 222.533H152C151.09 222.533 150.35 223.273 150.35 224.183C150.35 225.093 151.09 225.833 152 225.833H166.44C167.35 225.833 168.09 225.093 168.09 224.183C168.09 223.273 167.35 222.533 166.44 222.533Z" fill="#EBEBEB"/>
<path opacity="0.6" d="M166.44 218.243H152C151.09 218.243 150.35 218.983 150.35 219.893C150.35 220.803 151.09 221.543 152 221.543H166.44C167.35 221.543 168.09 220.803 168.09 219.893C168.09 218.983 167.35 218.243 166.44 218.243Z" fill="#7EBDE6"/>
<path opacity="0.6" d="M166.44 213.963H152C151.09 213.963 150.35 214.703 150.35 215.613C150.35 216.523 151.09 217.263 152 217.263H166.44C167.35 217.263 168.09 216.523 168.09 215.613C168.09 214.693 167.35 213.963 166.44 213.963Z" fill="#7EBDE6"/>
<path d="M169.608 225.827H175.638V222.527H169.608V225.827Z" fill="#EBEBEB"/>
<path d="M169.608 221.546H175.638V218.246H169.608V221.546Z" fill="#EBEBEB"/>
<path d="M169.608 217.255H175.638V213.955H169.608V217.255Z" fill="#7EBDE6"/>
<path d="M176.62 225.827H182.65V222.527H176.62V225.827Z" fill="#EBEBEB"/>
<path d="M176.62 221.546H182.65V218.246H176.62V221.546Z" fill="#EBEBEB"/>
<path d="M176.62 217.255H182.65V213.955H176.62V217.255Z" fill="#EBEBEB"/>
<path opacity="0.6" d="M166.44 239.853H152C151.09 239.853 150.35 240.593 150.35 241.503C150.35 242.413 151.09 243.153 152 243.153H166.44C167.35 243.153 168.09 242.413 168.09 241.503C168.09 240.593 167.35 239.853 166.44 239.853Z" fill="#7EBDE6"/>
<path opacity="0.6" d="M166.44 235.563H152C151.09 235.563 150.35 236.303 150.35 237.213C150.35 238.123 151.09 238.863 152 238.863H166.44C167.35 238.863 168.09 238.123 168.09 237.213C168.09 236.303 167.35 235.563 166.44 235.563Z" fill="#7EBDE6"/>
<path opacity="0.6" d="M166.44 231.283H152C151.09 231.283 150.35 232.023 150.35 232.933C150.35 233.843 151.09 234.583 152 234.583H166.44C167.35 234.583 168.09 233.843 168.09 232.933C168.09 232.013 167.35 231.283 166.44 231.283Z" fill="#7EBDE6"/>
<path d="M169.608 243.146H175.638V239.846H169.608V243.146Z" fill="#EBEBEB"/>
<path d="M169.608 238.865H175.638V235.565H169.608V238.865Z" fill="#7EBDE6"/>
<path d="M169.608 234.574H175.638V231.274H169.608V234.574Z" fill="#EBEBEB"/>
<path d="M176.62 243.146H182.65V239.846H176.62V243.146Z" fill="#EBEBEB"/>
<path d="M176.62 238.865H182.65V235.565H176.62V238.865Z" fill="#EBEBEB"/>
<path d="M176.62 234.574H182.65V231.274H176.62V234.574Z" fill="#7EBDE6"/>
<path opacity="0.6" d="M166.44 257.173H152C151.09 257.173 150.35 257.913 150.35 258.823C150.35 259.733 151.09 260.473 152 260.473H166.44C167.35 260.473 168.09 259.733 168.09 258.823C168.09 257.903 167.35 257.173 166.44 257.173Z" fill="#7EBDE6"/>
<path opacity="0.6" d="M166.44 252.883H152C151.09 252.883 150.35 253.623 150.35 254.533C150.35 255.443 151.09 256.183 152 256.183H166.44C167.35 256.183 168.09 255.443 168.09 254.533C168.09 253.623 167.35 252.883 166.44 252.883Z" fill="#7EBDE6"/>
<path opacity="0.6" d="M166.44 248.603H152C151.09 248.603 150.35 249.343 150.35 250.253C150.35 251.163 151.09 251.903 152 251.903H166.44C167.35 251.903 168.09 251.163 168.09 250.253C168.09 249.333 167.35 248.603 166.44 248.603Z" fill="#7EBDE6"/>
<path d="M169.608 260.465H175.638V257.165H169.608V260.465Z" fill="#EBEBEB"/>
<path d="M169.608 256.184H175.638V252.884H169.608V256.184Z" fill="#7EBDE6"/>
<path d="M169.608 251.893H175.638V248.593H169.608V251.893Z" fill="#EBEBEB"/>
<path d="M176.62 260.465H182.65V257.165H176.62V260.465Z" fill="#7EBDE6"/>
<path d="M176.62 256.184H182.65V252.884H176.62V256.184Z" fill="#EBEBEB"/>
<path d="M176.62 251.893H182.65V248.593H176.62V251.893Z" fill="#7EBDE6"/>
<path opacity="0.6" d="M166.44 274.493H152C151.09 274.493 150.35 275.233 150.35 276.143C150.35 277.053 151.09 277.793 152 277.793H166.44C167.35 277.793 168.09 277.053 168.09 276.143C168.09 275.223 167.35 274.493 166.44 274.493Z" fill="#7EBDE6"/>
<path opacity="0.6" d="M166.44 270.203H152C151.09 270.203 150.35 270.943 150.35 271.853C150.35 272.763 151.09 273.503 152 273.503H166.44C167.35 273.503 168.09 272.763 168.09 271.853C168.09 270.943 167.35 270.203 166.44 270.203Z" fill="#7EBDE6"/>
<path opacity="0.6" d="M166.44 265.913H152C151.09 265.913 150.35 266.653 150.35 267.563C150.35 268.473 151.09 269.213 152 269.213H166.44C167.35 269.213 168.09 268.473 168.09 267.563C168.09 266.653 167.35 265.913 166.44 265.913Z" fill="#7EBDE6"/>
<path d="M169.608 277.784H175.638V274.484H169.608V277.784Z" fill="#7EBDE6"/>
<path d="M169.608 273.503H175.638V270.203H169.608V273.503Z" fill="#EBEBEB"/>
<path d="M169.608 269.222H175.638V265.922H169.608V269.222Z" fill="#EBEBEB"/>
<path d="M176.62 277.784H182.65V274.484H176.62V277.784Z" fill="#EBEBEB"/>
<path d="M176.62 273.503H182.65V270.203H176.62V273.503Z" fill="#EBEBEB"/>
<path d="M176.62 269.222H182.65V265.922H176.62V269.222Z" fill="#7EBDE6"/>
<path d="M244.27 152.233H267.71C271.32 152.233 274.25 155.163 274.25 158.773V274.363C274.25 277.973 271.32 280.903 267.71 280.903H244.27V152.233Z" fill="#E0E0E0"/>
<path d="M246.6 152.233H196.13C192.52 152.233 189.59 155.163 189.59 158.773V274.363C189.59 277.973 192.52 280.903 196.13 280.903H246.6C250.21 280.903 253.14 277.973 253.14 274.363V158.783C253.15 155.163 250.22 152.233 246.6 152.233Z" fill="white"/>
<path d="M253.14 254.223H189.58V255.423H253.14V254.223Z" fill="#E0E0E0"/>
<path d="M253.14 228.733H189.58V229.933H253.14V228.733Z" fill="#E0E0E0"/>
<path d="M253.14 203.233H189.58V204.433H253.14V203.233Z" fill="#E0E0E0"/>
<path d="M253.14 177.733H189.58V178.933H253.14V177.733Z" fill="#E0E0E0"/>
<path opacity="0.6" d="M221.28 169.463H200.02C198.68 169.463 197.59 170.553 197.59 171.893C197.59 173.233 198.68 174.323 200.02 174.323H221.28C222.62 174.323 223.71 173.233 223.71 171.893C223.71 170.553 222.62 169.463 221.28 169.463Z" fill="#7EBDE6"/>
<path opacity="0.6" d="M221.28 163.153H200.02C198.68 163.153 197.59 164.243 197.59 165.583C197.59 166.923 198.68 168.013 200.02 168.013H221.28C222.62 168.013 223.71 166.923 223.71 165.583C223.71 164.243 222.62 163.153 221.28 163.153Z" fill="#7EBDE6"/>
<path opacity="0.6" d="M221.28 156.843H200.02C198.68 156.843 197.59 157.933 197.59 159.273C197.59 160.613 198.68 161.703 200.02 161.703H221.28C222.62 161.703 223.71 160.613 223.71 159.273C223.71 157.933 222.62 156.843 221.28 156.843Z" fill="#7EBDE6"/>
<path d="M225.931 174.322H234.811V169.462H225.931V174.322Z" fill="#EBEBEB"/>
<path d="M225.931 168.014H234.811V163.154H225.931V168.014Z" fill="#7EBDE6"/>
<path d="M225.931 161.706H234.811V156.846H225.931V161.706Z" fill="#EBEBEB"/>
<path d="M236.258 174.322H245.138V169.462H236.258V174.322Z" fill="#EBEBEB"/>
<path d="M236.258 168.014H245.138V163.154H236.258V168.014Z" fill="#EBEBEB"/>
<path d="M236.258 161.706H245.138V156.846H236.258V161.706Z" fill="#7EBDE6"/>
<path opacity="0.6" d="M221.28 194.963H200.02C198.68 194.963 197.59 196.053 197.59 197.393C197.59 198.733 198.68 199.823 200.02 199.823H221.28C222.62 199.823 223.71 198.733 223.71 197.393C223.71 196.053 222.62 194.963 221.28 194.963Z" fill="#7EBDE6"/>
<path opacity="0.6" d="M221.28 188.653H200.02C198.68 188.653 197.59 189.743 197.59 191.083C197.59 192.423 198.68 193.513 200.02 193.513H221.28C222.62 193.513 223.71 192.423 223.71 191.083C223.71 189.743 222.62 188.653 221.28 188.653Z" fill="#7EBDE6"/>
<path opacity="0.6" d="M221.28 182.343H200.02C198.68 182.343 197.59 183.433 197.59 184.773C197.59 186.113 198.68 187.203 200.02 187.203H221.28C222.62 187.203 223.71 186.113 223.71 184.773C223.71 183.433 222.62 182.343 221.28 182.343Z" fill="#7EBDE6"/>
<path d="M225.931 199.816H234.811V194.956H225.931V199.816Z" fill="#EBEBEB"/>
<path d="M225.931 193.509H234.811V188.649H225.931V193.509Z" fill="#EBEBEB"/>
<path d="M225.931 187.201H234.811V182.341H225.931V187.201Z" fill="#7EBDE6"/>
<path d="M236.258 199.816H245.138V194.956H236.258V199.816Z" fill="#7EBDE6"/>
<path d="M236.258 193.509H245.138V188.649H236.258V193.509Z" fill="#EBEBEB"/>
<path d="M236.258 187.201H245.138V182.341H236.258V187.201Z" fill="#7EBDE6"/>
<path opacity="0.6" d="M221.28 220.463H200.02C198.68 220.463 197.59 221.553 197.59 222.893C197.59 224.233 198.68 225.323 200.02 225.323H221.28C222.62 225.323 223.71 224.233 223.71 222.893C223.71 221.543 222.62 220.463 221.28 220.463Z" fill="#7EBDE6"/>
<path opacity="0.6" d="M221.28 214.153H200.02C198.68 214.153 197.59 215.243 197.59 216.583C197.59 217.923 198.68 219.013 200.02 219.013H221.28C222.62 219.013 223.71 217.923 223.71 216.583C223.71 215.233 222.62 214.153 221.28 214.153Z" fill="#7EBDE6"/>
<path opacity="0.6" d="M221.28 207.843H200.02C198.68 207.843 197.59 208.933 197.59 210.273C197.59 211.613 198.68 212.703 200.02 212.703H221.28C222.62 212.703 223.71 211.613 223.71 210.273C223.71 208.923 222.62 207.843 221.28 207.843Z" fill="#7EBDE6"/>
<path d="M225.931 225.311H234.811V220.451H225.931V225.311Z" fill="#7EBDE6"/>
<path d="M225.931 219.003H234.811V214.143H225.931V219.003Z" fill="#EBEBEB"/>
<path d="M225.931 212.695H234.811V207.835H225.931V212.695Z" fill="#EBEBEB"/>
<path d="M236.258 225.311H245.138V220.451H236.258V225.311Z" fill="#EBEBEB"/>
<path d="M236.258 219.003H245.138V214.143H236.258V219.003Z" fill="#EBEBEB"/>
<path d="M236.258 212.695H245.138V207.835H236.258V212.695Z" fill="#7EBDE6"/>
<path opacity="0.6" d="M221.28 245.953H200.02C198.68 245.953 197.59 247.043 197.59 248.383C197.59 249.723 198.68 250.813 200.02 250.813H221.28C222.62 250.813 223.71 249.723 223.71 248.383C223.71 247.043 222.62 245.953 221.28 245.953Z" fill="#7EBDE6"/>
<path d="M221.28 239.643H200.02C198.68 239.643 197.59 240.733 197.59 242.073C197.59 243.413 198.68 244.503 200.02 244.503H221.28C222.62 244.503 223.71 243.413 223.71 242.073C223.71 240.733 222.62 239.643 221.28 239.643Z" fill="#EBEBEB"/>
<path opacity="0.6" d="M221.28 233.333H200.02C198.68 233.333 197.59 234.423 197.59 235.763C197.59 237.103 198.68 238.193 200.02 238.193H221.28C222.62 238.193 223.71 237.103 223.71 235.763C223.71 234.423 222.62 233.333 221.28 233.333Z" fill="#7EBDE6"/>
<path d="M225.931 250.815H234.811V245.955H225.931V250.815Z" fill="#EBEBEB"/>
<path d="M225.931 244.507H234.811V239.647H225.931V244.507Z" fill="#7EBDE6"/>
<path d="M225.931 238.199H234.811V233.339H225.931V238.199Z" fill="#EBEBEB"/>
<path d="M236.258 250.815H245.138V245.955H236.258V250.815Z" fill="#7EBDE6"/>
<path d="M236.258 244.507H245.138V239.647H236.258V244.507Z" fill="#7EBDE6"/>
<path d="M236.258 238.199H245.138V233.339H236.258V238.199Z" fill="#EBEBEB"/>
<path opacity="0.6" d="M221.28 271.453H200.02C198.68 271.453 197.59 272.543 197.59 273.883C197.59 275.223 198.68 276.313 200.02 276.313H221.28C222.62 276.313 223.71 275.223 223.71 273.883C223.71 272.543 222.62 271.453 221.28 271.453Z" fill="#7EBDE6"/>
<path opacity="0.6" d="M221.28 265.143H200.02C198.68 265.143 197.59 266.233 197.59 267.573C197.59 268.913 198.68 270.003 200.02 270.003H221.28C222.62 270.003 223.71 268.913 223.71 267.573C223.71 266.233 222.62 265.143 221.28 265.143Z" fill="#7EBDE6"/>
<path opacity="0.6" d="M221.28 258.833H200.02C198.68 258.833 197.59 259.923 197.59 261.263C197.59 262.603 198.68 263.693 200.02 263.693H221.28C222.62 263.693 223.71 262.603 223.71 261.263C223.71 259.923 222.62 258.833 221.28 258.833Z" fill="#7EBDE6"/>
<path d="M225.931 276.31H234.811V271.45H225.931V276.31Z" fill="#EBEBEB"/>
<path d="M225.931 270.002H234.811V265.142H225.931V270.002Z" fill="#EBEBEB"/>
<path d="M225.931 263.694H234.811V258.834H225.931V263.694Z" fill="#EBEBEB"/>
<path d="M236.258 276.31H245.138V271.45H236.258V276.31Z" fill="#EBEBEB"/>
<path d="M236.258 270.002H245.138V265.142H236.258V270.002Z" fill="#EBEBEB"/>
<path d="M236.258 263.694H245.138V258.834H236.258V263.694Z" fill="#7EBDE6"/>
<path d="M302.59 168.993H322.98C326.12 168.993 328.67 171.543 328.67 174.683V275.223C328.67 278.363 326.12 280.913 322.98 280.913H302.59V168.993Z" fill="#E0E0E0"/>
<path d="M304.62 168.993H260.72C257.58 168.993 255.03 171.543 255.03 174.683V275.223C255.03 278.363 257.58 280.913 260.72 280.913H304.62C307.76 280.913 310.31 278.363 310.31 275.223V174.693C310.31 171.543 307.77 168.993 304.62 168.993Z" fill="white"/>
<path d="M310.31 257.703H255.03V258.743H310.31V257.703Z" fill="#E0E0E0"/>
<path d="M310.31 235.523H255.03V236.563H310.31V235.523Z" fill="#E0E0E0"/>
<path d="M310.31 213.353H255.03V214.393H310.31V213.353Z" fill="#E0E0E0"/>
<path d="M310.31 191.173H255.03V192.213H310.31V191.173Z" fill="#E0E0E0"/>
<path opacity="0.6" d="M282.6 183.983H264.11C262.94 183.983 262 184.933 262 186.093C262 187.263 262.95 188.203 264.11 188.203H282.6C283.77 188.203 284.71 187.253 284.71 186.093C284.71 184.923 283.76 183.983 282.6 183.983Z" fill="#7EBDE6"/>
<path opacity="0.6" d="M282.6 178.493H264.11C262.94 178.493 262 179.443 262 180.603C262 181.773 262.95 182.713 264.11 182.713H282.6C283.77 182.713 284.71 181.763 284.71 180.603C284.71 179.443 283.76 178.493 282.6 178.493Z" fill="#7EBDE6"/>
<path opacity="0.6" d="M282.6 173.003H264.11C262.94 173.003 262 173.953 262 175.113C262 176.283 262.95 177.223 264.11 177.223H282.6C283.77 177.223 284.71 176.273 284.71 175.113C284.71 173.953 283.76 173.003 282.6 173.003Z" fill="#7EBDE6"/>
<path d="M286.648 265.934H294.368V261.714H286.648V265.934Z" fill="#EBEBEB"/>
<path d="M286.648 271.418H294.368V267.198H286.648V271.418Z" fill="#7EBDE6"/>
<path d="M286.648 276.913H294.368V272.693H286.648V276.913Z" fill="#EBEBEB"/>
<path d="M295.635 265.934H303.355V261.714H295.635V265.934Z" fill="#EBEBEB"/>
<path d="M295.635 271.418H303.355V267.198H295.635V271.418Z" fill="#EBEBEB"/>
<path d="M295.635 276.913H303.355V272.693H295.635V276.913Z" fill="#7EBDE6"/>
<path d="M282.6 206.153H264.11C262.94 206.153 262 207.103 262 208.263C262 209.433 262.95 210.373 264.11 210.373H282.6C283.77 210.373 284.71 209.423 284.71 208.263C284.71 207.103 283.76 206.153 282.6 206.153Z" fill="#EBEBEB"/>
<path opacity="0.6" d="M282.6 200.673H264.11C262.94 200.673 262 201.623 262 202.783C262 203.953 262.95 204.893 264.11 204.893H282.6C283.77 204.893 284.71 203.943 284.71 202.783C284.71 201.613 283.76 200.673 282.6 200.673Z" fill="#7EBDE6"/>
<path opacity="0.6" d="M282.6 195.183H264.11C262.94 195.183 262 196.133 262 197.293C262 198.463 262.95 199.403 264.11 199.403H282.6C283.77 199.403 284.71 198.453 284.71 197.293C284.71 196.123 283.76 195.183 282.6 195.183Z" fill="#7EBDE6"/>
<path d="M286.648 243.761H294.368V239.541H286.648V243.761Z" fill="#EBEBEB"/>
<path d="M286.648 249.245H294.368V245.025H286.648V249.245Z" fill="#EBEBEB"/>
<path d="M286.648 254.73H294.368V250.51H286.648V254.73Z" fill="#7EBDE6"/>
<path d="M295.635 243.761H303.355V239.541H295.635V243.761Z" fill="#7EBDE6"/>
<path d="M295.635 249.245H303.355V245.025H295.635V249.245Z" fill="#EBEBEB"/>
<path d="M295.635 254.73H303.355V250.51H295.635V254.73Z" fill="#7EBDE6"/>
<path opacity="0.6" d="M282.6 228.333H264.11C262.94 228.333 262 229.283 262 230.443C262 231.613 262.95 232.553 264.11 232.553H282.6C283.77 232.553 284.71 231.603 284.71 230.443C284.71 229.283 283.76 228.333 282.6 228.333Z" fill="#7EBDE6"/>
<path opacity="0.6" d="M282.6 222.843H264.11C262.94 222.843 262 223.793 262 224.953C262 226.123 262.95 227.063 264.11 227.063H282.6C283.77 227.063 284.71 226.113 284.71 224.953C284.71 223.793 283.76 222.843 282.6 222.843Z" fill="#7EBDE6"/>
<path opacity="0.6" d="M282.6 217.363H264.11C262.94 217.363 262 218.313 262 219.473C262 220.643 262.95 221.583 264.11 221.583H282.6C283.77 221.583 284.71 220.633 284.71 219.473C284.71 218.303 283.76 217.363 282.6 217.363Z" fill="#7EBDE6"/>
<path d="M286.648 221.578H294.368V217.358H286.648V221.578Z" fill="#7EBDE6"/>
<path d="M286.648 227.073H294.368V222.853H286.648V227.073Z" fill="#EBEBEB"/>
<path d="M286.648 232.557H294.368V228.337H286.648V232.557Z" fill="#EBEBEB"/>
<path d="M295.635 221.578H303.355V217.358H295.635V221.578Z" fill="#EBEBEB"/>
<path d="M295.635 227.073H303.355V222.853H295.635V227.073Z" fill="#EBEBEB"/>
<path d="M295.635 232.557H303.355V228.337H295.635V232.557Z" fill="#7EBDE6"/>
<path opacity="0.6" d="M282.6 250.513H264.11C262.94 250.513 262 251.463 262 252.623C262 253.793 262.95 254.733 264.11 254.733H282.6C283.77 254.733 284.71 253.783 284.71 252.623C284.71 251.453 283.76 250.513 282.6 250.513Z" fill="#7EBDE6"/>
<path opacity="0.6" d="M282.6 245.023H264.11C262.94 245.023 262 245.973 262 247.133C262 248.303 262.95 249.243 264.11 249.243H282.6C283.77 249.243 284.71 248.293 284.71 247.133C284.71 245.963 283.76 245.023 282.6 245.023Z" fill="#7EBDE6"/>
<path opacity="0.6" d="M282.6 239.533H264.11C262.94 239.533 262 240.483 262 241.643C262 242.813 262.95 243.753 264.11 243.753H282.6C283.77 243.753 284.71 242.803 284.71 241.643C284.71 240.483 283.76 239.533 282.6 239.533Z" fill="#7EBDE6"/>
<path d="M286.648 199.405H294.368V195.185H286.648V199.405Z" fill="#EBEBEB"/>
<path d="M286.648 204.889H294.368V200.669H286.648V204.889Z" fill="#7EBDE6"/>
<path d="M286.648 210.384H294.368V206.164H286.648V210.384Z" fill="#EBEBEB"/>
<path d="M295.635 199.405H303.355V195.185H295.635V199.405Z" fill="#7EBDE6"/>
<path d="M295.635 204.889H303.355V200.669H295.635V204.889Z" fill="#EBEBEB"/>
<path d="M295.635 210.384H303.355V206.164H295.635V210.384Z" fill="#EBEBEB"/>
<path opacity="0.6" d="M282.6 272.683H264.11C262.94 272.683 262 273.633 262 274.793C262 275.963 262.95 276.903 264.11 276.903H282.6C283.77 276.903 284.71 275.953 284.71 274.793C284.71 273.633 283.76 272.683 282.6 272.683Z" fill="#7EBDE6"/>
<path opacity="0.6" d="M282.6 267.203H264.11C262.94 267.203 262 268.153 262 269.313C262 270.483 262.95 271.423 264.11 271.423H282.6C283.77 271.423 284.71 270.473 284.71 269.313C284.71 268.143 283.76 267.203 282.6 267.203Z" fill="#7EBDE6"/>
<path opacity="0.6" d="M282.6 261.713H264.11C262.94 261.713 262 262.663 262 263.823C262 264.993 262.95 265.933 264.11 265.933H282.6C283.77 265.933 284.71 264.983 284.71 263.823C284.71 262.653 283.76 261.713 282.6 261.713Z" fill="#7EBDE6"/>
<path d="M286.648 177.232H294.368V173.012H286.648V177.232Z" fill="#7EBDE6"/>
<path d="M286.648 182.717H294.368V178.497H286.648V182.717Z" fill="#EBEBEB"/>
<path d="M286.648 188.201H294.368V183.981H286.648V188.201Z" fill="#EBEBEB"/>
<path d="M295.635 177.232H303.355V173.012H295.635V177.232Z" fill="#EBEBEB"/>
<path d="M295.635 182.717H303.355V178.497H295.635V182.717Z" fill="#EBEBEB"/>
<path d="M295.635 188.201H303.355V183.981H295.635V188.201Z" fill="#7EBDE6"/>
</g>
<defs>
<clipPath id="clip0">
<rect width="500" height="500" fill="white" transform="translate(0.379639 0.913086)"/>
</clipPath>
</defs>
</svg>
