<svg width="411" height="261" viewBox="0 0 411 261" fill="none" xmlns="http://www.w3.org/2000/svg">
<path d="M131.768 47.0252C122.591 51.1535 113.226 55.7549 106.78 63.4843C104.63 66.0627 102.78 69.1936 102.967 72.5455C103.315 78.7959 110.484 82.519 116.743 82.5303C123.002 82.5417 129.09 80.1956 135.349 80.2126C138.579 80.2211 142.623 81.7852 142.58 85.0181C142.555 86.9504 141.002 88.4719 139.563 89.7583C128.515 99.6326 117.468 109.507 106.418 119.381C102.737 122.671 98.9405 126.119 97.0251 130.669C95.1097 135.22 95.6622 141.215 99.6261 144.162C102.236 146.103 105.701 146.358 108.954 146.415C123.724 146.678 138.418 144.406 152.945 141.728C204.311 132.265 254.723 117.644 303.185 98.1649C312.059 94.5977 321.585 90.2145 325.809 81.635C330.689 71.7181 325.484 58.1661 315.218 54.069C309.084 51.6181 302.188 52.318 295.693 51.1166C289.199 49.9153 282.235 45.464 282.167 38.8622C282.059 27.9395 299.734 23.7943 300.241 12.883C300.51 7.10569 295.26 2.22377 289.613 0.968578C283.966 -0.28661 278.101 1.22642 272.581 2.96045C272.581 2.95478 172.478 28.7159 131.768 47.0252Z" fill="#F7F7F7"/>
<path d="M68.3114 191.744C73.9509 186.814 80.1213 181.531 87.6406 179.895C95.2817 178.233 102.483 181.618 107.953 186.818C118.414 196.765 122.2 212.452 134.854 220.32C140.35 223.736 146.785 224.619 152.86 222.217C159.052 219.772 163.965 214.954 168.599 210.333C180.909 198.053 193.215 185.761 205.521 173.472C214.99 164.016 228.236 149.739 242.835 157.955C248.718 161.266 252.882 167.006 256.438 172.589C260.846 179.516 264.958 186.644 269.196 193.676C273.678 201.113 278.16 208.545 282.642 215.981C285.836 221.277 289.495 227.038 296.545 226.316C302.798 225.672 308.176 220.938 312.354 216.604C317.706 211.051 322.932 205.307 329.468 201.104C335.93 196.944 343.862 194.385 351.578 195.83C359.354 197.288 364.44 203.114 369.127 209.01C379.997 222.687 390.836 236.39 401.693 250.079C404.387 253.478 407.085 256.876 409.778 260.279C409.931 259.909 410.087 259.535 410.239 259.165C406.58 259.165 402.925 259.165 399.265 259.165C389.313 259.165 379.362 259.165 369.405 259.165C354.689 259.165 339.968 259.165 325.251 259.165C307.367 259.165 289.478 259.165 271.594 259.165C252.008 259.165 232.422 259.165 212.836 259.165C192.993 259.165 173.151 259.165 153.308 259.165C134.806 259.165 116.304 259.165 97.8012 259.165C82.1708 259.165 66.536 259.165 50.9056 259.165C39.705 259.165 28.5044 259.165 17.3038 259.165C13.8052 259.165 10.3066 259.165 6.80808 259.165C5.06315 259.165 3.05713 258.887 1.32526 259.165C1.11204 259.2 0.864004 259.165 0.646432 259.165C0.798733 259.535 0.955384 259.909 1.10768 260.279C17.3995 242.495 33.9959 224.937 51.1406 207.97C56.7279 202.431 62.3891 196.939 68.3114 191.744C68.9424 191.187 68.0199 190.269 67.3889 190.821C56.0055 200.808 45.4011 211.717 34.8662 222.578C25.0885 232.661 15.4414 242.878 5.88557 253.173C3.97964 255.227 2.06935 257.285 0.176475 259.357C-0.19775 259.766 0.0546333 260.471 0.637727 260.471C4.29729 260.471 7.95251 260.471 11.6121 260.471C21.5638 260.471 31.5156 260.471 41.4717 260.471C56.1883 260.471 70.9092 260.471 85.6258 260.471C103.51 260.471 121.399 260.471 139.284 260.471C158.869 260.471 178.455 260.471 198.041 260.471C217.884 260.471 237.726 260.471 257.569 260.471C276.071 260.471 294.574 260.471 313.076 260.471C328.706 260.471 344.341 260.471 359.972 260.471C371.172 260.471 382.373 260.471 393.573 260.471C398.891 260.471 404.234 260.619 409.552 260.471C409.778 260.466 410.004 260.471 410.231 260.471C410.844 260.471 411.027 259.779 410.692 259.357C399.552 245.306 388.408 231.255 377.269 217.204C372.482 211.169 367.97 204.219 361.938 199.328C356.595 194.994 349.946 193.48 343.184 194.42C336.173 195.395 329.886 198.789 324.403 203.149C318.402 207.923 313.711 214.002 307.946 219.001C302.223 223.966 293.721 228.274 287.694 221.277C284.953 218.092 283.007 214.075 280.845 210.49C278.53 206.648 276.215 202.81 273.9 198.967C269.344 191.409 264.788 183.85 260.232 176.292C256.864 170.705 253.365 165.004 248.522 160.553C244.18 156.562 238.692 153.895 232.683 154.239C226.143 154.613 220.355 158.212 215.425 162.272C209.159 167.432 203.62 173.529 197.88 179.255C191.575 185.552 185.27 191.848 178.96 198.14C173.216 203.876 167.672 209.981 161.48 215.233C155.588 220.233 148.282 223.979 140.445 221.503C125.376 216.743 120.668 198.815 111.021 188.102C106.626 183.219 100.847 179.094 94.1808 178.28C87.3273 177.441 80.8784 180.443 75.4174 184.32C72.6063 186.313 69.9824 188.55 67.3889 190.817C66.7536 191.378 67.6805 192.296 68.3114 191.744Z" fill="#CCE9FF" fill-opacity="0.4"/>
<path d="M323.212 74.0159C317.678 68.7798 310.963 67.3121 302.655 67.7003C301.295 67.7655 299.774 67.9922 298.989 68.9328C298.207 69.8735 299.051 71.5906 300.38 71.3271C290.999 66.89 279.815 65.2211 269.196 66.6746C268.023 66.8361 266.745 67.0911 266.042 67.8987C265.343 68.709 265.807 70.188 266.997 70.1994C258.273 66.5811 242.539 73.5683 244.115 74.1718L323.212 74.0159Z" fill="#DCF2FF"/>
<path d="M285.012 124.065C279.897 119.225 273.689 117.868 266.014 118.228C264.756 118.288 263.35 118.497 262.625 119.367C261.902 120.237 262.685 121.824 263.909 121.58C255.238 117.477 244.902 115.936 235.087 117.279C234.002 117.426 232.821 117.664 232.175 118.412C231.526 119.16 231.956 120.529 233.056 120.54C224.992 117.194 210.454 123.654 211.91 124.212L285.012 124.065Z" fill="#DCF2FF"/>
<path d="M130.981 112.227L74.0919 113.417L100.139 118.758L86.0545 129.029L131.774 118.341L130.981 112.227Z" fill="#FFBE55"/>
<path d="M133.004 120.509L71.2699 156.841L105.355 131.219L72.6809 130.514L133.004 115.355V120.509Z" fill="#FFBE55"/>
<path d="M84.8333 142.963L94.1693 134.664L61.4976 132.525L83.8558 120.517L62.3504 110.425H88.5337L73.6386 93.8553L74.1344 94.014C74.704 94.1953 131.026 112.088 133.004 112.088H133.363L115.428 128.765L84.8333 142.963ZM62.5034 132.307L94.8663 134.426L86.4653 141.895L115.292 128.516L132.695 112.326C128.008 111.402 80.3282 96.275 74.5481 94.439L89.1712 110.705H63.6198L84.4848 120.498L62.5034 132.307Z" fill="#FFBE55"/>
<path d="M128.266 110.433L91.5002 95.7734L99.2495 105.736L64.6596 101.16L131.774 117.08L128.266 110.433Z" fill="#FFBE55"/>
<path d="M188.444 65.2891C188.444 65.2891 183.829 81.6264 200.631 83.8336C199.792 85.5818 199.622 86.293 199.622 86.293C199.622 86.293 182.506 82.1987 183.356 71.7634C186.37 65.1758 188.444 65.2891 188.444 65.2891Z" fill="#2189D6"/>
<path d="M152.092 95.3966L134.908 87.2166L115.369 110.564L131.774 106.979L152.092 95.3966Z" fill="#2A94F4"/>
<path d="M158.81 126.142L146.601 140.745L119.109 127.672L135.511 124.087L158.81 126.142Z" fill="#2A94F4"/>
<path d="M137.744 121.433L130.847 122.249L128.266 110.433L134.908 108.464L137.744 121.433Z" fill="#0E538C"/>
<path d="M246.557 90.8632C246.557 90.8632 228.936 109.895 206.133 119.959C205.708 120.146 205.283 120.33 204.855 120.509C204.43 120.693 204 120.869 203.572 121.042C199.778 122.574 195.854 123.838 191.859 124.711C172.569 128.927 149.511 127.723 135.571 124.362L131.774 106.979C143.042 98.1053 163.437 87.126 182.727 82.9127C186.722 82.04 190.813 81.5527 194.902 81.3657C195.366 81.343 195.831 81.326 196.293 81.3119C196.758 81.2977 197.219 81.2864 197.684 81.2807C222.607 80.9152 246.557 90.8632 246.557 90.8632Z" fill="#CCE9FF"/>
<path d="M246.557 90.8632C246.557 90.8632 228.936 109.895 206.133 119.959C205.708 120.146 205.283 120.33 204.855 120.509C199.325 115.409 195.624 109.13 194.137 102.316C192.649 95.5043 193.394 88.2537 196.296 81.3119C196.76 81.2977 197.222 81.2864 197.687 81.2807C222.607 80.9152 246.557 90.8632 246.557 90.8632Z" fill="#2A94F4"/>
<path d="M197.684 81.2804C197.219 81.2861 196.758 81.2974 196.293 81.3116C195.831 81.3257 195.366 81.3427 194.902 81.3654C193.59 84.6295 192.731 87.953 192.346 91.2652C191.904 95.0818 192.088 98.8899 192.896 102.585C193.703 106.279 195.123 109.821 197.117 113.102C198.849 115.952 201.016 118.619 203.569 121.038C203.997 120.866 204.428 120.687 204.853 120.506C205.28 120.324 205.705 120.143 206.13 119.956C200.69 115.083 196.896 109.019 195.372 102.043C193.851 95.0676 194.771 87.9785 197.684 81.2804Z" fill="#0E538C"/>
<path d="M203.113 82.9014C210.443 83.2357 235.224 88.1432 240.921 90.6054C236 90.2285 205.773 84.7374 204.02 87.0551C203.175 84.6609 203.113 82.9014 203.113 82.9014Z" fill="#CCE9FF"/>
<path d="M155.951 113.057L125.303 119.755L117.239 119.118L124.302 115.176L154.951 108.481L155.951 113.057Z" fill="#2A94F4"/>
<path d="M186.132 112.944L190.683 118.758L184.345 115.001V115.851L182.814 114.822L184.254 112.227L186.132 112.944Z" fill="#0B4870"/>
<path d="M190.561 97.89C190.977 97.3687 190.688 96.5924 190.034 96.4677C184.441 95.3938 171.895 92.1836 169.999 90.1067C167.885 87.7919 170.804 84.7743 172.918 83.1649L179.613 86.0125L196.877 94.116C197.353 94.3398 197.531 94.9263 197.262 95.3768L186.642 113.42C186.642 113.42 184.73 113.219 183.424 112.915C183.424 112.915 188.385 100.058 190.561 97.89Z" fill="#0B3E60"/>
<path d="M192.836 85.2531H197.568L196.114 85.698L197.568 86.9276L196.004 88.4945L192.836 86.65V85.2531Z" fill="#FCD2B1"/>
<path d="M188.651 64.7762L186.957 74.5684L179.613 86.0096L171.781 83.9299L179.123 62.7135L187.388 60.9257L188.651 64.7762Z" fill="#2A94F4"/>
<path d="M191.108 62.2206L188.444 65.2891L187.388 60.9257L188.651 60.138L191.108 62.2206Z" fill="#FCD2B1"/>
<path d="M188.124 52.5899C186.914 53.0772 186.308 56.1769 186.495 56.8314C186.682 57.486 188.467 60.138 188.467 60.138L191.652 53.1339L188.124 52.5899Z" fill="#0E538C"/>
<path d="M192.822 54.7121C192.822 54.7121 195.208 63.7562 193.448 63.3454C191.689 62.9317 189.116 62.5946 188.79 61.7219C188.464 60.8492 187.691 55.1003 188.43 54.2134C189.17 53.3266 192.686 54.1511 192.686 54.1511L192.822 54.7121Z" fill="#FFE3CA"/>
<path d="M187.889 54.9898C187.464 54.6271 187.283 54.0009 187.447 53.4654C187.679 52.7146 188.481 52.281 189.255 52.145C190.028 52.009 190.824 52.094 191.604 51.9807C192.38 51.8674 193.196 51.4849 193.491 50.7595C193.91 51.1335 194.145 51.7059 194.111 52.2669C194.372 52.0317 194.635 51.7965 194.896 51.5614C194.519 52.7089 194.08 53.9414 193.071 54.6044C192.088 55.2476 190.819 55.1796 189.649 55.0889C189.646 55.0861 188.314 55.3524 187.889 54.9898Z" fill="#0E538C"/>
<path d="M189.552 54.8169L187.909 57.3556L187.747 54.1992L189.552 54.8169Z" fill="#0E538C"/>
<path d="M188.408 59.0572C188.714 58.9649 188.859 58.5489 188.731 58.1279C188.604 57.707 188.254 57.4406 187.948 57.5328C187.642 57.6251 187.498 58.0412 187.625 58.4621C187.752 58.8831 188.103 59.1495 188.408 59.0572Z" fill="#FFE3CA"/>
<path d="M179.123 62.7136C179.123 62.7136 167.358 85.2531 193.298 87.2393C193.168 85.9756 193.168 85.0009 193.168 85.0009C193.168 85.0009 179.746 83.2131 181.783 71.548C182.001 70.3042 182.406 69.1028 182.908 67.944C185.192 62.6541 179.123 62.7136 179.123 62.7136Z" fill="#45AFFF"/>
<path d="M303.919 121.223C302.972 121.339 301.989 121.461 301.272 121.554C295.665 114.29 290.919 100.539 288.508 85.12C289.392 85.0124 290.273 84.9019 291.157 84.7942C293.568 100.208 298.311 113.955 303.919 121.223Z" fill="#F7F7F7"/>
<path d="M303.919 121.223C303.978 121.3 304.038 121.376 304.097 121.453C303.213 121.56 302.332 121.671 301.448 121.778C301.388 121.705 301.332 121.628 301.272 121.555C301.989 121.461 302.972 121.339 303.919 121.223Z" fill="#F7F7F7"/>
<path d="M304.097 121.453C305.233 122.895 306.406 124.068 307.599 124.935L304.95 125.261C303.757 124.394 302.584 123.221 301.448 121.778C302.332 121.671 303.213 121.56 304.097 121.453Z" fill="#F7F7F7"/>
<path d="M292.707 67.9582C293.081 88.9564 299.677 110.55 307.441 116.191L304.791 116.517C297.028 110.876 290.432 89.2823 290.058 68.2841C289.964 63.0338 290.267 58.3191 290.899 54.2872C291.783 54.1795 292.664 54.069 293.548 53.9613C292.919 57.9932 292.613 62.708 292.707 67.9582Z" fill="#FFBE55"/>
<path d="M299.839 92.5634C301.791 98.9555 304.42 103.939 307.262 106.005L304.613 106.331C301.771 104.265 299.142 99.2813 297.189 92.8892C298.073 92.7815 298.955 92.671 299.839 92.5634Z" fill="#F7F7F7"/>
<path d="M304.434 93.1045C305.259 94.6175 306.157 95.7764 307.092 96.4536L304.443 96.7794C303.511 96.1022 302.61 94.9434 301.785 93.4304C302.666 93.3227 303.55 93.215 304.434 93.1045Z" fill="#FFBE55"/>
<path d="M303.777 77.6569C304.131 81.6633 305.426 85.4204 306.914 86.5027L304.264 86.8286C302.777 85.7462 301.482 81.9892 301.128 77.9828C302.009 77.8723 302.893 77.7646 303.777 77.6569Z" fill="#F7F7F7"/>
<path d="M296.472 70.6925C296.608 78.3766 297.886 86.1712 299.839 92.5634C298.955 92.671 298.073 92.7815 297.189 92.8892C295.237 86.4999 293.962 78.7053 293.823 71.0183C293.599 58.5486 296.444 50.1986 300.558 49.6914L303.207 49.3656C299.093 49.8756 296.251 58.2256 296.472 70.6925Z" fill="#F7F7F7"/>
<path d="M289.474 65.6094C289.59 72.0638 290.182 78.5636 291.157 84.7942C290.273 84.9019 289.392 85.0124 288.508 85.12C287.533 78.8923 286.941 72.3897 286.825 65.9352C286.451 44.9852 291.228 30.9543 298.141 30.1042L300.791 29.7784C293.877 30.6284 289.1 44.6593 289.474 65.6094Z" fill="#F7F7F7"/>
<path d="M300.003 73.2595C300.139 80.8332 301.958 88.5683 304.431 93.1074C303.547 93.215 302.666 93.3255 301.782 93.4332C299.306 88.8941 297.487 81.159 297.354 73.5854C297.206 65.3941 299.074 59.9086 301.777 59.5771L304.426 59.2513C301.726 59.5828 299.858 65.0682 300.003 73.2595Z" fill="#FFBE55"/>
<path d="M301.907 38.8254C298.02 39.3043 294.962 44.9115 293.548 53.9614C292.664 54.069 291.783 54.1795 290.899 54.2872C292.313 45.2374 295.37 39.6301 299.258 39.1513C300.054 39.0549 301.114 38.9246 301.907 38.8254Z" fill="#FFBE55"/>
<path d="M303.683 75.9314C303.695 76.5066 303.726 77.0818 303.777 77.6541C302.893 77.7618 302.012 77.8723 301.128 77.98C301.077 77.4076 301.046 76.8324 301.034 76.2573C300.966 72.5257 301.819 70.0267 303.052 69.8765L305.701 69.5507C304.468 69.7008 303.615 72.2027 303.683 75.9314Z" fill="#F7F7F7"/>
<path d="M307.089 96.4536C307.795 96.9664 308.469 97.1676 309.098 97.0911L306.449 97.4169C305.82 97.4934 305.146 97.2923 304.44 96.7794C305.236 96.6831 306.316 96.2552 307.089 96.4536Z" fill="#FFBE55"/>
<path d="M306.914 86.4999C307.234 86.7323 307.543 86.8258 307.829 86.789L305.179 87.1148C304.893 87.1488 304.584 87.0581 304.264 86.8258C305.058 86.7294 306.137 86.2988 306.914 86.4999Z" fill="#F7F7F7"/>
<path d="M307.262 106.005C308.336 106.784 309.362 107.093 310.319 106.974L307.67 107.3C306.712 107.419 305.687 107.11 304.613 106.331C305.406 106.234 306.466 106.101 307.262 106.005Z" fill="#F7F7F7"/>
<path d="M307.443 116.191C308.908 117.256 310.311 117.676 311.62 117.514L308.971 117.84C307.662 118.001 306.259 117.582 304.794 116.517C305.588 116.42 306.667 115.99 307.443 116.191Z" fill="#FFBE55"/>
<path d="M307.599 124.935C309.401 126.244 311.127 126.762 312.736 126.564L310.087 126.89C308.478 127.088 306.752 126.57 304.95 125.261C305.743 125.164 306.803 125.031 307.599 124.935Z" fill="#F7F7F7"/>
<path d="M303.052 69.8765L305.701 69.5506C305.987 69.5166 306.296 69.6073 306.616 69.8396L303.967 70.1655C303.644 69.9331 303.338 69.8425 303.052 69.8765Z" fill="#FFBE55"/>
<path d="M301.779 59.5771L304.429 59.2513C305.058 59.1748 305.732 59.376 306.438 59.8888L303.788 60.2146C303.083 59.7018 302.408 59.4978 301.779 59.5771Z" fill="#F7F7F7"/>
<path d="M300.558 49.6943L303.207 49.3684C304.165 49.2494 305.194 49.5583 306.268 50.3374L303.618 50.6633C302.544 49.8813 301.516 49.5753 300.558 49.6943Z" fill="#FFBE55"/>
<path d="M307.829 86.789L305.18 87.1148C306.409 86.9618 307.262 84.4656 307.194 80.7312C307.112 76.1326 305.667 71.398 303.967 70.1655L306.616 69.8397C308.316 71.075 309.761 75.8068 309.843 80.4053C309.908 84.1397 309.058 86.6388 307.829 86.789Z" fill="#FFBE55"/>
<path d="M299.258 39.1512L301.907 38.8254C303.216 38.6639 304.619 39.0832 306.086 40.1486L303.437 40.4744C301.969 39.4119 300.567 38.9897 299.258 39.1512Z" fill="#F7F7F7"/>
<path d="M298.141 30.1043L300.791 29.7784C302.4 29.5801 304.125 30.0958 305.93 31.4076L303.281 31.7335C301.476 30.4216 299.751 29.9059 298.141 30.1043Z" fill="#FFBE55"/>
<path d="M309.098 97.0911L306.449 97.4169C309.152 97.0826 311.019 91.5972 310.872 83.4087C310.69 73.3105 307.517 62.9262 303.785 60.2146L306.435 59.8888C310.166 62.6003 313.34 72.9847 313.521 83.0829C313.668 91.2713 311.801 96.7568 309.098 97.0911Z" fill="#F7F7F7"/>
<path d="M310.319 106.974L307.67 107.3C311.784 106.793 314.626 98.4398 314.405 85.9729C314.13 70.599 309.299 54.7915 303.618 50.6633L306.268 50.3375C311.948 54.4657 316.779 70.276 317.054 85.6471C317.275 98.114 314.433 106.467 310.319 106.974Z" fill="#FFBE55"/>
<path d="M311.62 117.514L308.971 117.84C314.589 117.146 318.471 105.739 318.168 88.7071C317.794 67.7089 311.198 46.1157 303.434 40.4744L306.083 40.1486C313.847 45.787 320.443 67.3831 320.817 88.3813C321.123 105.413 317.241 116.823 311.62 117.514Z" fill="#F7F7F7"/>
<path d="M312.739 126.564L310.09 126.89C317 126.037 321.777 112.006 321.403 91.0588C320.942 65.2325 312.827 38.6724 303.281 31.7334L305.93 31.4076C315.479 38.3437 323.591 64.9067 324.053 90.733C324.427 111.68 319.65 125.711 312.739 126.564Z" fill="#FFBE55"/>
<path d="M303.281 31.7334C312.83 38.6696 320.942 65.2325 321.403 91.0588C321.865 116.888 314.499 132.2 304.95 125.263C295.402 118.327 287.287 91.7672 286.825 65.938C286.366 40.1089 293.733 24.7945 303.281 31.7334ZM304.794 116.517C312.558 122.155 318.545 109.708 318.171 88.7071C317.797 67.7089 311.2 46.1157 303.437 40.4744C295.674 34.8332 289.687 47.2859 290.061 68.2841C290.435 89.2851 297.031 110.878 304.794 116.517Z" fill="#FFBE55"/>
<path d="M303.788 60.2146C307.52 62.9262 310.693 73.3105 310.875 83.4087C311.056 93.5069 308.174 99.4938 304.443 96.7823C300.708 94.0707 297.538 83.6864 297.356 73.5882C297.175 63.4872 300.057 57.5002 303.788 60.2146ZM304.264 86.8257C305.964 88.0611 307.276 85.3354 307.194 80.734C307.112 76.1354 305.667 71.4008 303.967 70.1683C302.267 68.9329 300.952 71.6615 301.034 76.2601C301.116 80.8615 302.561 85.5904 304.264 86.8257Z" fill="#F7F7F7"/>
<path d="M318.171 88.7099C317.896 73.2907 314.263 57.5484 309.282 48.0396C309.177 47.8384 309.07 47.6372 308.962 47.4417C308.427 46.4585 307.874 45.549 307.31 44.716C307.197 44.5488 307.084 44.3873 306.97 44.2258C305.834 42.6278 304.65 41.3585 303.437 40.4773C301.981 39.4204 300.589 38.9982 299.289 39.1513C298.53 39.2391 297.804 39.5224 297.113 39.9899C296.915 40.1231 296.722 40.2704 296.532 40.4348C296.342 40.5963 296.152 40.7748 295.968 40.9675C295.416 41.5426 294.894 42.2453 294.404 43.0698C294.24 43.3447 294.081 43.6337 293.928 43.934C293.772 44.2343 293.622 44.5488 293.475 44.8775C293.327 45.2062 293.183 45.5462 293.044 45.8975C291.166 50.6605 290.052 57.7156 290.044 66.3461C290.044 66.9864 290.049 67.6324 290.061 68.2898C290.208 76.4924 291.302 84.7857 293.047 92.1837C293.118 92.4783 293.189 92.773 293.259 93.0677C293.835 95.4109 294.472 97.6606 295.169 99.78C295.951 102.166 296.801 104.387 297.711 106.402C297.912 106.849 298.116 107.286 298.323 107.713C300.289 111.768 302.491 114.848 304.797 116.522C305.16 116.786 305.52 117.013 305.877 117.197C306.115 117.321 306.35 117.426 306.582 117.517C306.814 117.608 307.047 117.678 307.273 117.735C307.616 117.82 307.953 117.865 308.288 117.877C308.509 117.882 308.73 117.874 308.945 117.848C314.363 117.217 318.173 106.637 318.188 90.6565C318.188 90.0133 318.182 89.3645 318.171 88.7099ZM304.613 106.331C298.929 102.203 294.098 86.3922 293.826 71.0211C293.551 55.6472 297.937 46.535 303.621 50.6633C309.302 54.7915 314.133 70.6018 314.408 85.9729C314.68 101.347 310.294 110.459 304.613 106.331Z" fill="#F7F7F7"/>
<path d="M313.841 135.498L311.192 135.823C319.38 134.812 325.039 118.191 324.594 93.3737C324.047 62.7788 314.436 31.3113 303.125 23.0945L305.774 22.7686C317.085 30.9854 326.699 62.453 327.243 93.0479C327.688 117.865 322.03 134.489 313.841 135.498Z" fill="#DBDBDB"/>
<path d="M324.597 93.3765C324.05 62.7817 314.439 31.3141 303.128 23.0973C291.817 14.8776 283.09 33.0198 283.634 63.6175C284.181 94.2152 293.792 125.68 305.106 133.897C316.414 142.114 325.141 123.974 324.597 93.3765ZM321.148 101.296C321.069 102.392 320.973 103.461 320.862 104.498C320.757 105.469 320.641 106.413 320.508 107.331C320.457 107.691 320.403 108.048 320.347 108.399C320.256 108.974 320.16 109.538 320.058 110.091C320.004 110.388 319.947 110.68 319.89 110.972C319.786 111.499 319.675 112.012 319.562 112.516C319.536 112.632 319.508 112.748 319.482 112.865C319.386 113.278 319.287 113.683 319.182 114.08C319.151 114.205 319.117 114.327 319.083 114.451C318.766 115.627 318.423 116.729 318.049 117.755C317.995 117.902 317.941 118.044 317.887 118.188C317.624 118.888 317.346 119.548 317.054 120.172C316.774 120.77 316.485 121.334 316.184 121.858C315.844 122.45 315.49 122.997 315.125 123.49C314.929 123.753 314.728 124.003 314.521 124.238C314.496 124.269 314.467 124.3 314.442 124.328C314.116 124.697 313.782 125.028 313.442 125.32C313.206 125.521 312.968 125.703 312.725 125.867C312.481 126.031 312.237 126.176 311.985 126.303C311.736 126.431 311.481 126.538 311.226 126.626C310.994 126.708 310.758 126.771 310.52 126.819C310.475 126.827 310.43 126.836 310.384 126.844C310.152 126.887 309.917 126.915 309.679 126.927C309.668 126.927 309.656 126.929 309.645 126.929C308.163 126.992 306.588 126.456 304.947 125.266C299.093 121.013 293.781 109.388 290.437 95.0766C290.304 94.5127 290.177 93.9432 290.052 93.3709C289.857 92.4755 289.667 91.5717 289.485 90.6593C289.213 89.288 288.961 87.8968 288.726 86.4914C288.641 85.9814 288.559 85.4657 288.48 84.9529C287.828 80.751 287.349 76.4272 287.074 72.078C287.071 72.027 287.069 71.976 287.066 71.925C286.941 69.9303 286.859 67.9327 286.825 65.938C286.363 40.1118 293.73 24.7973 303.278 31.7363C304.159 32.3766 305.029 33.187 305.882 34.1447C306.066 34.3515 306.251 34.5668 306.432 34.7878C314.552 44.631 320.993 68.1339 321.401 91.0588C321.469 94.6884 321.378 98.1139 321.148 101.296Z" fill="#F7F7F7"/>
<path d="M306.656 76.0221C306.605 75.7812 306.551 75.5404 306.494 75.3081C306.463 75.1806 306.429 75.0531 306.398 74.9284C306.333 74.6762 306.262 74.4325 306.188 74.1917C306.151 74.0727 306.115 73.9537 306.078 73.8375C306.001 73.6052 305.922 73.3814 305.84 73.1632C305.307 71.7493 304.658 70.6726 303.967 70.1683C303.754 70.0125 303.548 69.9218 303.349 69.8878C302.258 69.698 301.408 71.2563 301.131 73.8857C301.119 74.0047 301.105 74.1265 301.097 74.2512C301.077 74.4977 301.06 74.7555 301.048 75.0191C301.031 75.4157 301.029 75.8294 301.034 76.2629C301.071 78.2774 301.366 80.3146 301.833 82.0742C301.898 82.3263 301.969 82.57 302.043 82.8109C302.19 83.2897 302.349 83.7402 302.516 84.1595C302.686 84.5789 302.865 84.9642 303.054 85.3071C303.103 85.3921 303.148 85.4771 303.196 85.5592C303.389 85.8822 303.587 86.1656 303.794 86.3979C303.947 86.5736 304.106 86.7181 304.264 86.8343C304.902 87.2961 305.486 87.2026 305.962 86.6614C306.041 86.5708 306.117 86.4688 306.191 86.3554C306.372 86.0693 306.537 85.7094 306.676 85.2816C306.732 85.1116 306.783 84.9302 306.829 84.7376C306.899 84.4514 306.962 84.1397 307.013 83.8082C307.135 83.0347 307.2 82.1478 307.2 81.1675C307.2 81.0287 307.2 80.8842 307.197 80.7425C307.166 79.1275 306.97 77.5068 306.656 76.0221Z" fill="#FFBE55"/>
<path d="M297.036 21.1678L299.686 20.8419C301.592 20.6068 303.638 21.2188 305.775 22.7715L303.125 23.0973C300.989 21.5446 298.943 20.9326 297.036 21.1678Z" fill="#DBDBDB"/>
<path d="M303.618 50.6633C309.299 54.7915 314.13 70.6018 314.405 85.9729C314.68 101.347 310.294 110.459 304.613 106.331C298.929 102.203 294.098 86.3922 293.826 71.0211C293.548 55.6472 297.935 46.535 303.618 50.6633ZM304.443 96.7823C308.174 99.4938 311.056 93.5069 310.875 83.4087C310.693 73.3105 307.52 62.9262 303.788 60.2146C300.054 57.5031 297.175 63.4872 297.354 73.5882C297.535 83.6835 300.708 94.0679 304.443 96.7823Z" fill="#FFBE55"/>
<path d="M211.522 34.6063C204 27.4917 194.873 25.4942 183.582 26.024C181.732 26.1118 179.664 26.4207 178.601 27.6985C177.536 28.9764 178.686 31.3111 180.491 30.9513C167.741 24.919 152.54 22.6523 138.107 24.6271C136.511 24.8453 134.774 25.191 133.822 26.2932C132.87 27.3925 133.502 29.4042 135.117 29.4212C123.257 24.4996 101.873 33.9943 104.015 34.816L211.522 34.6063Z" fill="#DCF2FF"/>
</svg>
