<svg width="160" height="107" viewBox="0 0 160 107" fill="none" xmlns="http://www.w3.org/2000/svg">
<path d="M94.218 44.3982C94.218 56.5039 92.3595 67.4192 89.3877 75.2721C87.9005 79.202 86.1536 82.3139 84.2642 84.4256C82.3743 86.538 80.4237 87.5657 78.4979 87.5657C76.572 87.5657 74.6215 86.538 72.7315 84.4256C70.8421 82.3139 69.0953 79.202 67.608 75.2721C64.6363 67.4192 62.7777 56.5039 62.7777 44.3982C62.7777 32.2926 64.6363 21.3773 67.608 13.5244C69.0953 9.59444 70.8421 6.48262 72.7315 4.37086C74.6215 2.25849 76.572 1.23077 78.4979 1.23077C80.4237 1.23077 82.3743 2.25849 84.2642 4.37086C86.1536 6.48262 87.9005 9.59444 89.3877 13.5244C92.3595 21.3773 94.218 32.2926 94.218 44.3982Z" stroke="#187EB4" stroke-width="1.98107"/>
<path d="M86.358 58.0124C75.8742 64.0652 65.4919 67.9133 57.2053 69.2661C53.0582 69.9431 49.4899 69.9862 46.7164 69.4058C43.942 68.8253 42.0767 67.6499 41.1138 65.982C40.1508 64.3142 40.0656 62.1111 40.95 59.4182C41.8341 56.726 43.6556 53.6573 46.3155 50.4044C51.6304 43.9043 60.154 36.8371 70.6378 30.7842C81.1217 24.7314 91.5039 20.8833 99.7905 19.5305C103.938 18.8535 107.506 18.8104 110.279 19.3908C113.054 19.9714 114.919 21.1467 115.882 22.8146C116.845 24.4824 116.93 26.6855 116.046 29.3784C115.162 32.0706 113.34 35.1393 110.68 38.3923C105.365 44.8923 96.8418 51.9595 86.358 58.0124Z" stroke="#187EB4" stroke-width="1.98107"/>
<path d="M70.6378 58.0123C60.154 51.9595 51.6303 44.8922 46.3154 38.3922C43.6556 35.1393 41.8341 32.0705 40.95 29.3784C40.0656 26.6854 40.1508 24.4823 41.1138 22.8145C42.0767 21.1467 43.942 19.9713 46.7164 19.3907C49.4899 18.8103 53.0582 18.8534 57.2053 19.5305C65.4919 20.8833 75.8742 24.7313 86.358 30.7842C96.8418 36.837 105.365 43.9043 110.68 50.4043C113.34 53.6572 115.162 56.726 116.046 59.4181C116.93 62.1111 116.845 64.3142 115.882 65.982C114.919 67.6498 113.054 68.8252 110.279 69.4058C107.506 69.9862 103.938 69.9431 99.7905 69.2661C91.5039 67.9132 81.1217 64.0652 70.6378 58.0123Z" stroke="#187EB4" stroke-width="1.98107"/>
<path fill-rule="evenodd" clip-rule="evenodd" d="M18.982 70.4106L23.0489 73.6048L23.049 73.6383L33.2457 81.1645L33.2319 71.374H37.3199V89.5196L33.253 86.3254L33.253 86.3195L23.0559 78.586L23.07 88.5563H18.982V70.4106Z" fill="#187EB4"/>
<path fill-rule="evenodd" clip-rule="evenodd" d="M41.353 75.5315H38.3826V88.4969H38.8041V88.4969L51.7695 88.4969V85.5265L41.353 85.5265V83.1376H48.6113V80.7096L41.353 80.7096V78.5019L51.7695 78.5019V75.5315L41.353 75.5315V75.5315Z" fill="#187EB4"/>
<mask id="path-6-inside-1" fill="white">
<rect x="52.9808" y="75.5315" width="13.3362" height="13.0247" rx="1.32071"/>
</mask>
<rect x="52.9808" y="75.5315" width="13.3362" height="13.0247" rx="1.32071" stroke="#187EB4" stroke-width="5.28285" mask="url(#path-6-inside-1)"/>
<path fill-rule="evenodd" clip-rule="evenodd" d="M68.3562 74.7976H67.0355V76.1183V83.2426V89.1714H71.1576V84.5633H84.2217C84.9511 84.5633 85.5424 83.972 85.5424 83.2426V76.1183C85.5424 75.3889 84.9511 74.7976 84.2217 74.7976H71.1576H68.3562ZM71.1576 81.9219V77.439H82.901V81.9219H71.1576Z" fill="#E5F4FD"/>
<path fill-rule="evenodd" clip-rule="evenodd" d="M68.3562 75.458H67.0355V76.7787V83.903V89.8318H71.1576V85.2237H84.2217C84.9511 85.2237 85.5424 84.6324 85.5424 83.903V76.7787C85.5424 76.0493 84.9511 75.458 84.2217 75.458H71.1576H68.3562ZM71.1576 82.5823V78.0994H82.901V82.5823H71.1576Z" fill="#E5F4FD"/>
<path fill-rule="evenodd" clip-rule="evenodd" d="M68.3562 76.0547H67.0355V77.3754V81.6267V86.1999H71.1576V82.9475H84.2217C84.9511 82.9475 85.5424 82.3562 85.5424 81.6267V77.3754C85.5424 76.646 84.9511 76.0547 84.2217 76.0547H71.1576H68.3562ZM71.1576 80.306V78.6961H82.901V80.306H71.1576Z" fill="#E5F4FD"/>
<path fill-rule="evenodd" clip-rule="evenodd" d="M85.6404 75.2061H82.076V90.7644H82.2766V90.7645H97.835V87.2L85.6404 87.2V75.2061Z" fill="#E5F4FD"/>
<path fill-rule="evenodd" clip-rule="evenodd" d="M84.9801 75.2061H81.4156V90.7644H81.6163V90.7645H97.1747V87.2L84.9801 87.2V75.2061Z" fill="#E5F4FD"/>
<path fill-rule="evenodd" clip-rule="evenodd" d="M68.8491 75.5908H67.5284V76.9115V83.0789V88.5562H70.4988V84.3996H79.5439C80.2733 84.3996 80.8646 83.8083 80.8646 83.0789V76.9115C80.8646 76.1821 80.2733 75.5908 79.5439 75.5908H70.4988H68.8491ZM70.4988 81.7582V78.2322H78.2232V81.7582H70.4988Z" fill="#187EB4"/>
<path fill-rule="evenodd" clip-rule="evenodd" d="M138.952 78.4426V75.4722L125.987 75.4722L125.987 78.4426L130.984 78.4426V88.5561H133.955V78.4426L138.952 78.4426Z" fill="#187EB4"/>
<path fill-rule="evenodd" clip-rule="evenodd" d="M85.0464 75.5908H82.076V88.5562H85.0464V88.5562H95.2086V85.5858L85.0464 85.5858V75.5908Z" fill="#187EB4"/>
<path fill-rule="evenodd" clip-rule="evenodd" d="M97.9078 75.4722C97.1784 75.4722 96.5871 76.0635 96.5871 76.7929V85.8554V88.4969H99.2136V84.5047L107.291 84.5047V88.4969H109.923V85.8554V76.7929C109.923 76.0635 109.332 75.4722 108.603 75.4722H97.9078ZM107.291 81.5343V78.0898H99.2136V81.5343L107.291 81.5343Z" fill="#187EB4"/>
<path fill-rule="evenodd" clip-rule="evenodd" d="M111.135 76.7929C111.135 76.0635 111.726 75.4722 112.455 75.4722H121.829H124.471V78.0183H113.729V80.6286H123.045C123.455 80.6928 123.757 80.8603 123.976 81.0685C124.234 81.2757 124.413 81.5781 124.459 81.9225C124.463 81.9396 124.467 81.9564 124.47 81.9729C124.47 81.9867 124.469 82.0005 124.468 82.0142C124.47 82.0423 124.471 82.0707 124.471 82.0992V87.2354C124.471 87.9648 123.88 88.5561 123.15 88.5561H113.776H111.135V85.9725H121.842V83.3622H112.414C112.03 83.2693 111.75 83.093 111.551 82.8912C111.423 82.771 111.319 82.6256 111.247 82.4631C111.193 82.3528 111.157 82.2462 111.135 82.1517V82.0992C111.135 82.0706 111.136 82.0423 111.137 82.0141C111.136 81.986 111.135 81.9576 111.135 81.9291V76.7929Z" fill="#187EB4"/>
<path d="M1.30948 104.765V99.3137H0.795377V104.765H1.30948ZM3.10699 102.653C3.10206 102.395 3.13534 102.147 3.20685 101.91C3.28822 101.698 3.4189 101.519 3.5989 101.374C3.78136 101.226 4.01437 101.149 4.29793 101.144C4.9834 101.144 5.3212 101.498 5.31134 102.206V104.765H5.76627V102.199C5.76627 102.031 5.75887 101.872 5.74407 101.721C5.72435 101.574 5.6664 101.432 5.57024 101.296C5.27189 100.911 4.87244 100.725 4.3719 100.738C4.1056 100.738 3.87383 100.796 3.67657 100.911C3.47438 101.027 3.28452 101.186 3.10699 101.389V100.841H2.65206V104.765H3.10699V102.653ZM9.90128 102.79C9.90128 103.269 9.78909 103.664 9.56471 103.978C9.33786 104.296 9.00745 104.457 8.57349 104.462C8.18637 104.462 7.87076 104.326 7.62665 104.055C7.38008 103.796 7.2494 103.419 7.2346 102.923C7.21981 102.42 7.32337 101.999 7.54528 101.659C7.76226 101.321 8.105 101.149 8.57349 101.144C8.99266 101.154 9.31813 101.316 9.54991 101.629C9.78415 101.942 9.90128 102.329 9.90128 102.79ZM9.90128 101.47C9.7484 101.228 9.54868 101.045 9.30211 100.919C9.05307 100.798 8.78554 100.738 8.49951 100.738C7.90281 100.747 7.46268 100.953 7.17912 101.355C6.8931 101.755 6.75009 102.24 6.75009 102.813C6.74516 103.402 6.88324 103.889 7.16433 104.273C7.44789 104.663 7.90035 104.863 8.52171 104.873C8.78307 104.868 9.04321 104.796 9.30211 104.658C9.55361 104.527 9.74717 104.334 9.88278 104.077H9.90128V104.765H10.3525V99.3137H9.90128V101.47ZM14.1583 102.979C14.1583 103.418 14.0548 103.77 13.8477 104.037C13.6405 104.315 13.3459 104.457 12.9637 104.462C12.2807 104.457 11.9441 104.108 11.954 103.415V100.841H11.4991V103.426C11.4941 103.838 11.5977 104.179 11.8097 104.447C12.0169 104.726 12.3781 104.868 12.8934 104.873C13.066 104.868 13.2201 104.842 13.3557 104.795C13.4864 104.756 13.5999 104.705 13.696 104.643C13.7971 104.574 13.8859 104.502 13.9623 104.425C14.0388 104.354 14.1041 104.286 14.1583 104.222V104.765H14.6133V100.841H14.1583V102.979ZM13.0414 100.42L14.077 99.3655H13.4963L12.653 100.42H13.0414ZM15.5194 103.537C15.5441 103.917 15.6834 104.23 15.9374 104.477C16.1889 104.736 16.5476 104.868 17.0136 104.873C17.4821 104.873 17.8655 104.774 18.1639 104.577C18.4573 104.384 18.6065 104.101 18.6114 103.726C18.6114 103.536 18.5781 103.377 18.5116 103.249C18.4401 103.118 18.3439 103.012 18.2231 102.931C18.1072 102.847 17.974 102.779 17.8236 102.727C17.6708 102.678 17.5142 102.635 17.3539 102.598C17.0309 102.534 16.7449 102.449 16.4958 102.343C16.375 102.286 16.2801 102.217 16.211 102.136C16.1346 102.052 16.0964 101.946 16.0964 101.818C16.1013 101.384 16.396 101.159 16.9804 101.144C17.2688 101.144 17.5093 101.205 17.7016 101.326C17.889 101.451 18.0024 101.666 18.0418 101.969H18.5042C18.3686 101.131 17.8631 100.72 16.9878 100.738C16.5538 100.743 16.2184 100.846 15.9817 101.048C15.7352 101.253 15.6119 101.523 15.6119 101.858C15.6119 102.043 15.6489 102.2 15.7228 102.328C15.7943 102.454 15.8905 102.557 16.0113 102.639C16.1321 102.713 16.269 102.773 16.4219 102.82C16.4983 102.845 16.5735 102.864 16.6475 102.879C16.719 102.899 16.793 102.922 16.8694 102.949C17.0297 102.979 17.1862 103.009 17.3391 103.038C17.4131 103.053 17.4858 103.073 17.5573 103.097C17.6288 103.12 17.6892 103.145 17.7386 103.175C17.8594 103.224 17.9555 103.295 18.0271 103.386C18.0936 103.477 18.1269 103.593 18.1269 103.733C18.1269 103.931 18.048 104.098 17.8902 104.236C17.7349 104.382 17.4908 104.457 17.1579 104.462C16.4946 104.477 16.1026 104.169 15.9817 103.537H15.5194ZM20.8824 104.41C20.7615 104.445 20.6382 104.462 20.5125 104.462C20.33 104.462 20.2191 104.416 20.1796 104.325C20.1328 104.234 20.1118 104.096 20.1167 103.911V101.222H20.8528V100.841H20.1167V99.7501H19.6618V100.841H19.1107V101.222H19.6618V104.092C19.6618 104.373 19.7259 104.576 19.8541 104.699C19.97 104.815 20.1389 104.873 20.3609 104.873C20.4767 104.868 20.5803 104.852 20.6715 104.825C20.7578 104.805 20.8281 104.79 20.8824 104.78V104.41ZM22.0881 102.842C22.0832 102.388 22.1719 102.005 22.3544 101.692C22.5418 101.384 22.8857 101.23 23.3863 101.23V100.738C23.0633 100.738 22.8007 100.798 22.5985 100.919C22.3963 101.045 22.2323 101.264 22.1066 101.577H22.0881V100.841H21.6369V104.765H22.0881V102.842ZM24.6586 104.765V100.841H24.2037V104.765H24.6586ZM24.6808 99.9868V99.3137H24.1815V99.9868H24.6808ZM28.3905 102.705V103.319C28.3806 103.714 28.2339 104.001 27.9503 104.181C27.6668 104.368 27.3364 104.462 26.9591 104.462C26.7372 104.462 26.5424 104.402 26.3747 104.281C26.2021 104.165 26.1134 103.991 26.1084 103.759C26.1183 103.244 26.4869 102.965 27.2143 102.923C27.4116 102.914 27.6088 102.891 27.8061 102.857C28.0033 102.827 28.1981 102.777 28.3905 102.705ZM26.9961 102.561C26.0813 102.687 25.6239 103.081 25.6239 103.745C25.6289 104.122 25.7632 104.402 26.0271 104.584C26.2786 104.776 26.5806 104.873 26.9332 104.873C27.5151 104.868 28.0033 104.651 28.3979 104.222C28.4028 104.357 28.4275 104.481 28.4718 104.592C28.5187 104.703 28.6148 104.773 28.7603 104.802C28.8269 104.817 28.8947 104.825 28.9637 104.825C29.0353 104.825 29.1068 104.812 29.1783 104.788C29.2424 104.773 29.2905 104.76 29.3225 104.751V104.396C29.1351 104.46 29.0081 104.467 28.9416 104.418C28.87 104.371 28.838 104.262 28.8454 104.092V101.954C28.838 101.506 28.7011 101.188 28.4348 101C28.1661 100.825 27.8283 100.738 27.4214 100.738C26.985 100.738 26.6188 100.835 26.323 101.03C26.0246 101.237 25.852 101.571 25.8052 102.032H26.2675C26.3193 101.694 26.4438 101.459 26.641 101.326C26.8432 101.2 27.0997 101.14 27.4103 101.144C27.7654 101.149 28.0181 101.223 28.1686 101.366C28.3165 101.512 28.3905 101.703 28.3905 101.94C28.3905 102.011 28.3831 102.088 28.3683 102.169C28.3461 102.248 28.298 102.308 28.224 102.35C28.1427 102.38 28.0465 102.407 27.9355 102.432C27.8197 102.451 27.7161 102.467 27.6249 102.48L26.9961 102.561ZM32.4256 102.531C32.4725 102.147 32.6044 101.821 32.8214 101.555C33.0383 101.286 33.3466 101.149 33.746 101.144C34.1529 101.149 34.4623 101.284 34.6744 101.548C34.8815 101.804 34.985 102.132 34.985 102.531H32.4256ZM35.4695 102.909C35.435 101.471 34.8605 100.747 33.746 100.738C33.1789 100.747 32.7388 100.948 32.4256 101.34C32.1026 101.735 31.9411 102.228 31.9411 102.82C31.9362 103.409 32.0804 103.894 32.3738 104.273C32.6673 104.663 33.1246 104.863 33.746 104.873C34.2392 104.868 34.6201 104.741 34.8889 104.492C35.1502 104.25 35.3339 103.939 35.44 103.56H34.9333C34.7656 104.156 34.3698 104.457 33.746 104.462C33.3096 104.457 32.9804 104.303 32.7585 104C32.5366 103.706 32.4256 103.343 32.4256 102.909H35.4695ZM42.9407 100.897C42.7064 99.7501 42.0012 99.1744 40.8251 99.1694C40.0878 99.1645 39.485 99.3815 39.0165 99.8204C38.5357 100.264 38.2928 101.004 38.2879 102.04C38.2829 102.831 38.4654 103.499 38.8352 104.044C39.2026 104.606 39.803 104.895 40.6365 104.91C41.3638 104.9 41.9125 104.705 42.2823 104.325C42.6497 103.963 42.8889 103.512 42.9998 102.972H42.4636C42.3625 103.41 42.1677 103.766 41.8792 104.037C41.5907 104.32 41.2097 104.465 40.7363 104.469C40.0089 104.46 39.5035 104.202 39.2199 103.696C39.0744 103.465 38.9684 103.202 38.9018 102.909C38.8377 102.628 38.8057 102.333 38.8057 102.025C38.8007 101.357 38.9511 100.791 39.2569 100.327C39.5552 99.8586 40.0324 99.6182 40.6882 99.6059C41.6227 99.5911 42.196 100.021 42.4081 100.897H42.9407ZM45.5038 104.873C46.066 104.868 46.5086 104.675 46.8316 104.296C47.1546 103.933 47.3186 103.436 47.3235 102.805C47.3235 102.213 47.1743 101.723 46.876 101.333C46.5727 100.946 46.1153 100.747 45.5038 100.738C44.8997 100.747 44.446 100.946 44.1427 101.333C43.8394 101.723 43.6878 102.213 43.6878 102.805C43.6927 103.486 43.8715 103.997 44.2241 104.34C44.5619 104.69 44.9885 104.868 45.5038 104.873ZM46.839 102.805C46.839 103.239 46.7379 103.62 46.5357 103.948C46.3236 104.286 45.9797 104.457 45.5038 104.462C45.0698 104.457 44.7419 104.301 44.52 103.992C44.2882 103.694 44.1723 103.298 44.1723 102.805C44.1723 102.364 44.2759 101.979 44.483 101.651C44.6901 101.323 45.0304 101.154 45.5038 101.144C45.9846 101.149 46.3286 101.308 46.5357 101.622C46.7428 101.935 46.8439 102.329 46.839 102.805ZM48.5551 102.653C48.5551 102.476 48.5748 102.289 48.6143 102.091C48.6513 101.894 48.7178 101.728 48.814 101.592C49.0557 101.294 49.3503 101.144 49.698 101.144C50.021 101.144 50.2429 101.226 50.3637 101.389C50.4796 101.549 50.5375 101.771 50.5375 102.054V104.765H50.9925V102.653C50.9925 102.476 51.0134 102.289 51.0554 102.091C51.0899 101.894 51.1552 101.728 51.2514 101.592C51.493 101.294 51.7889 101.144 52.139 101.144C52.462 101.144 52.684 101.226 52.8048 101.389C52.9207 101.549 52.9786 101.771 52.9786 102.054V104.765H53.4335V102.287C53.4335 102.09 53.4212 101.897 53.3966 101.707C53.3645 101.524 53.3078 101.36 53.2264 101.215C53.1475 101.067 53.0267 100.95 52.864 100.863C52.7037 100.78 52.4867 100.738 52.213 100.738C51.6385 100.738 51.2119 100.989 50.9333 101.492C50.8569 101.275 50.736 101.096 50.5708 100.956C50.4032 100.815 50.1406 100.743 49.783 100.738C49.243 100.743 48.8387 100.974 48.5699 101.433H48.5551V100.841H48.1002V104.765H48.5551V102.653ZM54.7502 102.531C54.7971 102.147 54.929 101.821 55.146 101.555C55.363 101.286 55.6712 101.149 56.0706 101.144C56.4775 101.149 56.7869 101.284 56.999 101.548C57.2061 101.804 57.3096 102.132 57.3096 102.531H54.7502ZM57.7942 102.909C57.7596 101.471 57.1851 100.747 56.0706 100.738C55.5035 100.747 55.0634 100.948 54.7502 101.34C54.4272 101.735 54.2657 102.228 54.2657 102.82C54.2608 103.409 54.405 103.894 54.6985 104.273C54.9919 104.663 55.4493 104.863 56.0706 104.873C56.5638 104.868 56.9447 104.741 57.2135 104.492C57.4749 104.25 57.6585 103.939 57.7646 103.56H57.2579C57.0902 104.156 56.6945 104.457 56.0706 104.462C55.6342 104.457 55.305 104.303 55.0831 104C54.8612 103.706 54.7502 103.343 54.7502 102.909H57.7942ZM56.0188 100.42L57.0544 99.3655H56.4738L55.6305 100.42H56.0188ZM59.1626 102.842C59.1577 102.388 59.2465 102.005 59.4289 101.692C59.6163 101.384 59.9603 101.23 60.4608 101.23V100.738C60.1378 100.738 59.8752 100.798 59.673 100.919C59.4708 101.045 59.3069 101.264 59.1811 101.577H59.1626V100.841H58.7114V104.765H59.1626V102.842ZM64.3111 102.077C64.1483 101.177 63.6059 100.73 62.6837 100.738C62.0968 100.747 61.6518 100.953 61.3485 101.355C61.0353 101.76 60.8788 102.245 60.8788 102.813C60.8788 103.402 61.0255 103.889 61.3189 104.273C61.6123 104.663 62.0673 104.863 62.6837 104.873C63.1768 104.868 63.5627 104.731 63.8413 104.462C64.12 104.201 64.2963 103.849 64.3702 103.408H63.8857C63.7698 104.101 63.3692 104.452 62.6837 104.462C62.2177 104.452 61.8811 104.278 61.674 103.941C61.4668 103.613 61.3633 103.237 61.3633 102.813C61.3584 102.383 61.4644 102.001 61.6814 101.666C61.8885 101.328 62.2226 101.154 62.6837 101.144C63.2927 101.154 63.6811 101.465 63.8487 102.077H64.3111ZM65.809 104.765V100.841H65.3541V104.765H65.809ZM65.8312 99.9868V99.3137H65.3319V99.9868H65.8312ZM68.5311 104.873C69.0933 104.868 69.5359 104.675 69.8589 104.296C70.1819 103.933 70.3459 103.436 70.3508 102.805C70.3508 102.213 70.2017 101.723 69.9033 101.333C69.6 100.946 69.1426 100.747 68.5311 100.738C67.927 100.747 67.4733 100.946 67.1701 101.333C66.8668 101.723 66.7151 102.213 66.7151 102.805C66.7201 103.486 66.8988 103.997 67.2514 104.34C67.5892 104.69 68.0158 104.868 68.5311 104.873ZM69.8663 102.805C69.8663 103.239 69.7652 103.62 69.563 103.948C69.351 104.286 69.007 104.457 68.5311 104.462C68.0972 104.457 67.7692 104.301 67.5473 103.992C67.3155 103.694 67.1996 103.298 67.1996 102.805C67.1996 102.364 67.3032 101.979 67.5103 101.651C67.7174 101.323 68.0577 101.154 68.5311 101.144C69.0119 101.149 69.3559 101.308 69.563 101.622C69.7702 101.935 69.8713 102.329 69.8663 102.805ZM76.3277 102.79C76.3277 103.269 76.2155 103.664 75.9912 103.978C75.7643 104.296 75.4339 104.457 74.9999 104.462C74.6128 104.462 74.2972 104.326 74.0531 104.055C73.8065 103.796 73.6758 103.419 73.6611 102.923C73.6463 102.42 73.7498 101.999 73.9717 101.659C74.1887 101.321 74.5315 101.149 74.9999 101.144C75.4191 101.154 75.7446 101.316 75.9764 101.629C76.2106 101.942 76.3277 102.329 76.3277 102.79ZM76.3277 101.47C76.1749 101.228 75.9751 101.045 75.7286 100.919C75.4795 100.798 75.212 100.738 74.926 100.738C74.3293 100.747 73.8891 100.953 73.6056 101.355C73.3196 101.755 73.1765 102.24 73.1765 102.813C73.1716 103.402 73.3097 103.889 73.5908 104.273C73.8743 104.663 74.3268 104.863 74.9482 104.873C75.2095 104.868 75.4697 104.796 75.7286 104.658C75.9801 104.527 76.1736 104.334 76.3092 104.077H76.3277V104.765H76.779V99.3137H76.3277V101.47ZM78.2066 102.531C78.2535 102.147 78.3854 101.821 78.6024 101.555C78.8193 101.286 79.1276 101.149 79.527 101.144C79.9338 101.149 80.2433 101.284 80.4553 101.548C80.6625 101.804 80.766 102.132 80.766 102.531H78.2066ZM81.2505 102.909C81.216 101.471 80.6415 100.747 79.527 100.738C78.9599 100.747 78.5198 100.948 78.2066 101.34C77.8836 101.735 77.7221 102.228 77.7221 102.82C77.7172 103.409 77.8614 103.894 78.1548 104.273C78.4483 104.663 78.9056 104.863 79.527 104.873C80.0201 104.868 80.4011 104.741 80.6699 104.492C80.9312 104.25 81.1149 103.939 81.221 103.56H80.7142C80.5466 104.156 80.1508 104.457 79.527 104.462C79.0906 104.457 78.7614 104.303 78.5395 104C78.3176 103.706 78.2066 103.343 78.2066 102.909H81.2505ZM88.0226 104.765V104.325H84.8345V102.162H87.6454V101.721H84.8345V99.7501H87.9487V99.3137H84.3204V104.765H88.0226ZM89.2765 102.653C89.2765 102.476 89.2962 102.289 89.3356 102.091C89.3726 101.894 89.4392 101.728 89.5354 101.592C89.777 101.294 90.0716 101.144 90.4193 101.144C90.7423 101.144 90.9642 101.226 91.0851 101.389C91.2009 101.549 91.2589 101.771 91.2589 102.054V104.765H91.7138V102.653C91.7138 102.476 91.7348 102.289 91.7767 102.091C91.8112 101.894 91.8766 101.728 91.9727 101.592C92.2144 101.294 92.5102 101.144 92.8604 101.144C93.1834 101.144 93.4053 101.226 93.5261 101.389C93.642 101.549 93.7 101.771 93.7 102.054V104.765H94.1549V102.287C94.1549 102.09 94.1425 101.897 94.1179 101.707C94.0858 101.524 94.0291 101.36 93.9478 101.215C93.8689 101.067 93.748 100.95 93.5853 100.863C93.425 100.78 93.208 100.738 92.9343 100.738C92.3598 100.738 91.9333 100.989 91.6546 101.492C91.5782 101.275 91.4574 101.096 91.2922 100.956C91.1245 100.815 90.8619 100.743 90.5044 100.738C89.9644 100.743 89.56 100.974 89.2912 101.433H89.2765V100.841H88.8215V104.765H89.2765V102.653ZM95.7009 102.79C95.7009 102.329 95.8192 101.942 96.0559 101.629C96.2877 101.316 96.6107 101.154 97.025 101.144C97.4935 101.149 97.8424 101.321 98.0717 101.659C98.2936 101.999 98.391 102.42 98.3639 102.923C98.354 103.419 98.2282 103.796 97.9866 104.055C97.74 104.326 97.4195 104.462 97.025 104.462C96.5959 104.457 96.2705 104.296 96.0486 103.978C95.8168 103.664 95.7009 103.269 95.7009 102.79ZM95.7009 104.077H95.7157C95.8612 104.334 96.0609 104.527 96.3148 104.658C96.5664 104.796 96.8203 104.868 97.0768 104.873C97.708 104.863 98.1654 104.663 98.4489 104.273C98.7177 103.889 98.8521 103.402 98.8521 102.813C98.8521 102.24 98.7103 101.755 98.4267 101.355C98.1382 100.953 97.6969 100.747 97.1026 100.738C96.824 100.738 96.5577 100.798 96.3038 100.919C96.0522 101.045 95.8513 101.228 95.7009 101.47V99.3137H95.246V104.765H95.7009V104.077ZM102.392 102.705V103.319C102.382 103.714 102.235 104.001 101.951 104.181C101.668 104.368 101.338 104.462 100.96 104.462C100.738 104.462 100.544 104.402 100.376 104.281C100.203 104.165 100.115 103.991 100.11 103.759C100.119 103.244 100.488 102.965 101.215 102.923C101.413 102.914 101.61 102.891 101.807 102.857C102.004 102.827 102.199 102.777 102.392 102.705ZM100.997 102.561C100.082 102.687 99.6251 103.081 99.6251 103.745C99.63 104.122 99.7644 104.402 100.028 104.584C100.28 104.776 100.582 104.873 100.934 104.873C101.516 104.868 102.004 104.651 102.399 104.222C102.404 104.357 102.429 104.481 102.473 104.592C102.52 104.703 102.616 104.773 102.761 104.802C102.828 104.817 102.896 104.825 102.965 104.825C103.036 104.825 103.108 104.812 103.179 104.788C103.244 104.773 103.292 104.76 103.324 104.751V104.396C103.136 104.46 103.009 104.467 102.943 104.418C102.871 104.371 102.839 104.262 102.847 104.092V101.954C102.839 101.506 102.702 101.188 102.436 101C102.167 100.825 101.829 100.738 101.423 100.738C100.986 100.738 100.62 100.835 100.324 101.03C100.026 101.237 99.8532 101.571 99.8063 102.032H100.269C100.32 101.694 100.445 101.459 100.642 101.326C100.844 101.2 101.101 101.14 101.411 101.144C101.767 101.149 102.019 101.223 102.17 101.366C102.318 101.512 102.392 101.703 102.392 101.94C102.392 102.011 102.384 102.088 102.369 102.169C102.347 102.248 102.299 102.308 102.225 102.35C102.144 102.38 102.048 102.407 101.937 102.432C101.821 102.451 101.717 102.467 101.626 102.48L100.997 102.561ZM104.563 104.765V99.3137H104.108V104.765H104.563ZM108.295 102.705V103.319C108.285 103.714 108.138 104.001 107.854 104.181C107.571 104.368 107.24 104.462 106.863 104.462C106.641 104.462 106.446 104.402 106.279 104.281C106.106 104.165 106.017 103.991 106.013 103.759C106.022 103.244 106.391 102.965 107.118 102.923C107.316 102.914 107.513 102.891 107.71 102.857C107.907 102.827 108.102 102.777 108.295 102.705ZM106.9 102.561C105.985 102.687 105.528 103.081 105.528 103.745C105.533 104.122 105.667 104.402 105.931 104.584C106.183 104.776 106.485 104.873 106.837 104.873C107.419 104.868 107.907 104.651 108.302 104.222C108.307 104.357 108.332 104.481 108.376 104.592C108.423 104.703 108.519 104.773 108.664 104.802C108.731 104.817 108.799 104.825 108.868 104.825C108.939 104.825 109.011 104.812 109.082 104.788C109.146 104.773 109.195 104.76 109.227 104.751V104.396C109.039 104.46 108.912 104.467 108.846 104.418C108.774 104.371 108.742 104.262 108.749 104.092V101.954C108.742 101.506 108.605 101.188 108.339 101C108.07 100.825 107.732 100.738 107.326 100.738C106.889 100.738 106.523 100.835 106.227 101.03C105.929 101.237 105.756 101.571 105.709 102.032H106.172C106.223 101.694 106.348 101.459 106.545 101.326C106.747 101.2 107.004 101.14 107.314 101.144C107.669 101.149 107.922 101.223 108.073 101.366C108.221 101.512 108.295 101.703 108.295 101.94C108.295 102.011 108.287 102.088 108.272 102.169C108.25 102.248 108.202 102.308 108.128 102.35C108.047 102.38 107.951 102.407 107.84 102.432C107.724 102.451 107.62 102.467 107.529 102.48L106.9 102.561ZM112.973 102.82C112.973 103.269 112.856 103.652 112.622 103.97C112.39 104.293 112.065 104.457 111.645 104.462C111.177 104.457 110.834 104.281 110.617 103.933C110.395 103.605 110.292 103.189 110.307 102.683C110.321 102.187 110.452 101.807 110.699 101.54C110.943 101.276 111.258 101.144 111.645 101.144C112.079 101.149 112.41 101.308 112.637 101.622C112.861 101.935 112.973 102.334 112.973 102.82ZM112.973 101.533H112.955C112.819 101.269 112.626 101.069 112.374 100.934C112.115 100.803 111.855 100.738 111.594 100.738C110.972 100.743 110.52 100.939 110.236 101.326C109.955 101.71 109.817 102.201 109.822 102.798C109.822 103.357 109.965 103.837 110.251 104.236C110.535 104.651 110.975 104.863 111.571 104.873C111.858 104.873 112.125 104.806 112.374 104.673C112.621 104.552 112.82 104.373 112.973 104.137C112.983 104.359 112.974 104.578 112.947 104.795C112.918 105.007 112.855 105.202 112.759 105.379C112.663 105.557 112.522 105.695 112.337 105.794C112.15 105.9 111.899 105.956 111.586 105.964C111.313 105.964 111.067 105.916 110.85 105.819C110.633 105.723 110.487 105.531 110.41 105.242H109.926C109.935 105.358 109.974 105.479 110.04 105.605C110.107 105.738 110.208 105.863 110.344 105.979C110.6 106.23 111.014 106.361 111.586 106.371C112.319 106.361 112.813 106.159 113.069 105.764C113.318 105.387 113.437 104.928 113.424 104.388V100.841H112.973V101.533ZM114.852 102.531C114.899 102.147 115.031 101.821 115.248 101.555C115.465 101.286 115.773 101.149 116.173 101.144C116.579 101.149 116.889 101.284 117.101 101.548C117.308 101.804 117.412 102.132 117.412 102.531H114.852ZM117.896 102.909C117.862 101.471 117.287 100.747 116.173 100.738C115.605 100.747 115.165 100.948 114.852 101.34C114.529 101.735 114.368 102.228 114.368 102.82C114.363 103.409 114.507 103.894 114.8 104.273C115.094 104.663 115.551 104.863 116.173 104.873C116.666 104.868 117.047 104.741 117.315 104.492C117.577 104.25 117.76 103.939 117.866 103.56H117.36C117.192 104.156 116.796 104.457 116.173 104.462C115.736 104.457 115.407 104.303 115.185 104C114.963 103.706 114.852 103.343 114.852 102.909H117.896ZM119.242 102.653C119.237 102.395 119.271 102.147 119.342 101.91C119.424 101.698 119.554 101.519 119.734 101.374C119.917 101.226 120.15 101.149 120.433 101.144C121.119 101.144 121.457 101.498 121.447 102.206V104.765H121.902V102.199C121.902 102.031 121.894 101.872 121.879 101.721C121.86 101.574 121.802 101.432 121.706 101.296C121.407 100.911 121.008 100.725 120.507 100.738C120.241 100.738 120.009 100.796 119.812 100.911C119.61 101.027 119.42 101.186 119.242 101.389V100.841H118.787V104.765H119.242V102.653ZM122.808 103.537C122.832 103.917 122.972 104.23 123.226 104.477C123.477 104.736 123.836 104.868 124.302 104.873C124.77 104.873 125.154 104.774 125.452 104.577C125.746 104.384 125.895 104.101 125.9 103.726C125.9 103.536 125.866 103.377 125.8 103.249C125.728 103.118 125.632 103.012 125.511 102.931C125.396 102.847 125.262 102.779 125.112 102.727C124.959 102.678 124.803 102.635 124.642 102.598C124.319 102.534 124.033 102.449 123.784 102.343C123.663 102.286 123.568 102.217 123.499 102.136C123.423 102.052 123.385 101.946 123.385 101.818C123.39 101.384 123.684 101.159 124.269 101.144C124.557 101.144 124.798 101.205 124.99 101.326C125.177 101.451 125.291 101.666 125.33 101.969H125.793C125.657 101.131 125.151 100.72 124.276 100.738C123.842 100.743 123.507 100.846 123.27 101.048C123.024 101.253 122.9 101.523 122.9 101.858C122.9 102.043 122.937 102.2 123.011 102.328C123.083 102.454 123.179 102.557 123.3 102.639C123.42 102.713 123.557 102.773 123.71 102.82C123.787 102.845 123.862 102.864 123.936 102.879C124.007 102.899 124.081 102.922 124.158 102.949C124.318 102.979 124.475 103.009 124.627 103.038C124.701 103.053 124.774 103.073 124.846 103.097C124.917 103.12 124.978 103.145 125.027 103.175C125.148 103.224 125.244 103.295 125.315 103.386C125.382 103.477 125.415 103.593 125.415 103.733C125.415 103.931 125.336 104.098 125.179 104.236C125.023 104.382 124.779 104.457 124.446 104.462C123.783 104.477 123.391 104.169 123.27 103.537H122.808ZM129.461 104.765V102.358H130.627C131.157 102.367 131.634 102.264 132.058 102.047C132.487 101.83 132.708 101.426 132.72 100.834C132.725 100.41 132.605 100.051 132.361 99.7575C132.235 99.6219 132.057 99.5109 131.825 99.4246C131.593 99.3507 131.297 99.3137 130.937 99.3137H128.947V104.765H129.461ZM129.461 101.917V99.7501H130.793C131.737 99.755 132.207 100.104 132.202 100.797C132.197 101.246 132.062 101.546 131.795 101.699C131.517 101.85 131.132 101.922 130.641 101.917H129.461ZM134.055 104.765V99.3137H133.6V104.765H134.055ZM137.787 102.705V103.319C137.777 103.714 137.63 104.001 137.347 104.181C137.063 104.368 136.733 104.462 136.356 104.462C136.134 104.462 135.939 104.402 135.771 104.281C135.599 104.165 135.51 103.991 135.505 103.759C135.515 103.244 135.883 102.965 136.611 102.923C136.808 102.914 137.005 102.891 137.203 102.857C137.4 102.827 137.595 102.777 137.787 102.705ZM136.393 102.561C135.478 102.687 135.02 103.081 135.02 103.745C135.025 104.122 135.16 104.402 135.424 104.584C135.675 104.776 135.977 104.873 136.33 104.873C136.912 104.868 137.4 104.651 137.794 104.222C137.799 104.357 137.824 104.481 137.868 104.592C137.915 104.703 138.011 104.773 138.157 104.802C138.223 104.817 138.291 104.825 138.36 104.825C138.432 104.825 138.503 104.812 138.575 104.788C138.639 104.773 138.687 104.76 138.719 104.751V104.396C138.532 104.46 138.405 104.467 138.338 104.418C138.267 104.371 138.235 104.262 138.242 104.092V101.954C138.235 101.506 138.098 101.188 137.831 101C137.563 100.825 137.225 100.738 136.818 100.738C136.382 100.738 136.015 100.835 135.72 101.03C135.421 101.237 135.249 101.571 135.202 102.032H135.664C135.716 101.694 135.84 101.459 136.038 101.326C136.24 101.2 136.496 101.14 136.807 101.144C137.162 101.149 137.415 101.223 137.565 101.366C137.713 101.512 137.787 101.703 137.787 101.94C137.787 102.011 137.78 102.088 137.765 102.169C137.743 102.248 137.695 102.308 137.621 102.35C137.539 102.38 137.443 102.407 137.332 102.432C137.216 102.451 137.113 102.467 137.021 102.48L136.393 102.561ZM136.774 100.42L137.809 99.3655H137.229L136.385 100.42H136.774ZM139.237 103.537C139.261 103.917 139.401 104.23 139.655 104.477C139.906 104.736 140.265 104.868 140.731 104.873C141.2 104.873 141.583 104.774 141.881 104.577C142.175 104.384 142.324 104.101 142.329 103.726C142.329 103.536 142.296 103.377 142.229 103.249C142.157 103.118 142.061 103.012 141.941 102.931C141.825 102.847 141.691 102.779 141.541 102.727C141.388 102.678 141.232 102.635 141.071 102.598C140.748 102.534 140.462 102.449 140.213 102.343C140.092 102.286 139.998 102.217 139.928 102.136C139.852 102.052 139.814 101.946 139.814 101.818C139.819 101.384 140.113 101.159 140.698 101.144C140.986 101.144 141.227 101.205 141.419 101.326C141.606 101.451 141.72 101.666 141.759 101.969H142.222C142.086 101.131 141.581 100.72 140.705 100.738C140.271 100.743 139.936 100.846 139.699 101.048C139.453 101.253 139.329 101.523 139.329 101.858C139.329 102.043 139.366 102.2 139.44 102.328C139.512 102.454 139.608 102.557 139.729 102.639C139.85 102.713 139.986 102.773 140.139 102.82C140.216 102.845 140.291 102.864 140.365 102.879C140.436 102.899 140.51 102.922 140.587 102.949C140.747 102.979 140.904 103.009 141.057 103.038C141.131 103.053 141.203 103.073 141.275 103.097C141.346 103.12 141.407 103.145 141.456 103.175C141.577 103.224 141.673 103.295 141.744 103.386C141.811 103.477 141.844 103.593 141.844 103.733C141.844 103.931 141.765 104.098 141.608 104.236C141.452 104.382 141.208 104.457 140.875 104.462C140.212 104.477 139.82 104.169 139.699 103.537H139.237ZM144.6 104.41C144.479 104.445 144.356 104.462 144.23 104.462C144.047 104.462 143.937 104.416 143.897 104.325C143.85 104.234 143.829 104.096 143.834 103.911V101.222H144.57V100.841H143.834V99.7501H143.379V100.841H142.828V101.222H143.379V104.092C143.379 104.373 143.443 104.576 143.572 104.699C143.687 104.815 143.856 104.873 144.078 104.873C144.194 104.868 144.298 104.852 144.389 104.825C144.475 104.805 144.546 104.79 144.6 104.78V104.41ZM145.854 104.765V100.841H145.399V104.765H145.854ZM145.876 99.9868V99.3137H145.376V99.9868H145.876ZM150.259 102.077C150.096 101.177 149.553 100.73 148.631 100.738C148.044 100.747 147.599 100.953 147.296 101.355C146.983 101.76 146.826 102.245 146.826 102.813C146.826 103.402 146.973 103.889 147.266 104.273C147.56 104.663 148.015 104.863 148.631 104.873C149.124 104.868 149.51 104.731 149.789 104.462C150.068 104.201 150.244 103.849 150.318 103.408H149.833C149.717 104.101 149.317 104.452 148.631 104.462C148.165 104.452 147.829 104.278 147.622 103.941C147.414 103.613 147.311 103.237 147.311 102.813C147.306 102.383 147.412 102.001 147.629 101.666C147.836 101.328 148.17 101.154 148.631 101.144C149.24 101.154 149.629 101.465 149.796 102.077H150.259ZM153.802 102.705V103.319C153.792 103.714 153.645 104.001 153.362 104.181C153.078 104.368 152.748 104.462 152.37 104.462C152.149 104.462 151.954 104.402 151.786 104.281C151.614 104.165 151.525 103.991 151.52 103.759C151.53 103.244 151.898 102.965 152.626 102.923C152.823 102.914 153.02 102.891 153.217 102.857C153.415 102.827 153.61 102.777 153.802 102.705ZM152.407 102.561C151.493 102.687 151.035 103.081 151.035 103.745C151.04 104.122 151.175 104.402 151.438 104.584C151.69 104.776 151.992 104.873 152.345 104.873C152.927 104.868 153.415 104.651 153.809 104.222C153.814 104.357 153.839 104.481 153.883 104.592C153.93 104.703 154.026 104.773 154.172 104.802C154.238 104.817 154.306 104.825 154.375 104.825C154.447 104.825 154.518 104.812 154.59 104.788C154.654 104.773 154.702 104.76 154.734 104.751V104.396C154.546 104.46 154.42 104.467 154.353 104.418C154.281 104.371 154.249 104.262 154.257 104.092V101.954C154.249 101.506 154.113 101.188 153.846 101C153.577 100.825 153.24 100.738 152.833 100.738C152.396 100.738 152.03 100.835 151.734 101.03C151.436 101.237 151.263 101.571 151.217 102.032H151.679C151.731 101.694 151.855 101.459 152.052 101.326C152.255 101.2 152.511 101.14 152.822 101.144C153.177 101.149 153.43 101.223 153.58 101.366C153.728 101.512 153.802 101.703 153.802 101.94C153.802 102.011 153.794 102.088 153.78 102.169C153.757 102.248 153.709 102.308 153.635 102.35C153.554 102.38 153.458 102.407 153.347 102.432C153.231 102.451 153.127 102.467 153.036 102.48L152.407 102.561ZM155.252 103.537C155.276 103.917 155.416 104.23 155.67 104.477C155.921 104.736 156.28 104.868 156.746 104.873C157.214 104.873 157.598 104.774 157.896 104.577C158.19 104.384 158.339 104.101 158.344 103.726C158.344 103.536 158.31 103.377 158.244 103.249C158.172 103.118 158.076 103.012 157.955 102.931C157.839 102.847 157.706 102.779 157.556 102.727C157.403 102.678 157.246 102.635 157.086 102.598C156.763 102.534 156.477 102.449 156.228 102.343C156.107 102.286 156.012 102.217 155.943 102.136C155.867 102.052 155.829 101.946 155.829 101.818C155.834 101.384 156.128 101.159 156.713 101.144C157.001 101.144 157.242 101.205 157.434 101.326C157.621 101.451 157.735 101.666 157.774 101.969H158.236C158.101 101.131 157.595 100.72 156.72 100.738C156.286 100.743 155.951 100.846 155.714 101.048C155.467 101.253 155.344 101.523 155.344 101.858C155.344 102.043 155.381 102.2 155.455 102.328C155.527 102.454 155.623 102.557 155.744 102.639C155.864 102.713 156.001 102.773 156.154 102.82C156.231 102.845 156.306 102.864 156.38 102.879C156.451 102.899 156.525 102.922 156.602 102.949C156.762 102.979 156.919 103.009 157.071 103.038C157.145 103.053 157.218 103.073 157.29 103.097C157.361 103.12 157.422 103.145 157.471 103.175C157.592 103.224 157.688 103.295 157.759 103.386C157.826 103.477 157.859 103.593 157.859 103.733C157.859 103.931 157.78 104.098 157.622 104.236C157.467 104.382 157.223 104.457 156.89 104.462C156.227 104.477 155.835 104.169 155.714 103.537H155.252Z" fill="#187EB4"/>
<circle cx="78.6601" cy="44.4946" r="8.87573" fill="#187EB4"/>
<mask id="path-19-inside-2" fill="white">
<path fill-rule="evenodd" clip-rule="evenodd" d="M68.4614 49.0733C67.5656 47.1099 67.2613 44.928 67.5858 42.7944L67.5865 42.7899L67.4427 42.768L59.7528 41.5952L59.609 41.5732L59.6077 41.5818C59.1956 44.2923 59.3711 47.048 60.1088 49.6654C60.3737 50.6052 60.711 51.5273 61.1197 52.423C62.6677 55.8157 65.1714 58.6834 68.3243 60.6749C71.4772 62.6663 75.1424 63.6952 78.871 63.6354C79.8555 63.6196 80.833 63.5281 81.7955 63.3635C84.2432 62.945 86.5936 62.0536 88.7122 60.7318L90.39 63.6379L98.3944 49.7739L82.3857 49.7739L84.6733 53.7362C82.9112 54.8973 80.8537 55.5328 78.7417 55.5667C76.5823 55.6013 74.4597 55.0055 72.6337 53.8522C70.8078 52.6988 69.3578 51.0381 68.4614 49.0733Z"/>
</mask>
<path fill-rule="evenodd" clip-rule="evenodd" d="M68.4614 49.0733C67.5656 47.1099 67.2613 44.928 67.5858 42.7944L67.5865 42.7899L67.4427 42.768L59.7528 41.5952L59.609 41.5732L59.6077 41.5818C59.1956 44.2923 59.3711 47.048 60.1088 49.6654C60.3737 50.6052 60.711 51.5273 61.1197 52.423C62.6677 55.8157 65.1714 58.6834 68.3243 60.6749C71.4772 62.6663 75.1424 63.6952 78.871 63.6354C79.8555 63.6196 80.833 63.5281 81.7955 63.3635C84.2432 62.945 86.5936 62.0536 88.7122 60.7318L90.39 63.6379L98.3944 49.7739L82.3857 49.7739L84.6733 53.7362C82.9112 54.8973 80.8537 55.5328 78.7417 55.5667C76.5823 55.6013 74.4597 55.0055 72.6337 53.8522C70.8078 52.6988 69.3578 51.0381 68.4614 49.0733Z" fill="#187EB4"/>
<path d="M67.5858 42.7944L66.6066 42.6453L66.6065 42.6455L67.5858 42.7944ZM68.4614 49.0733L67.5602 49.4844V49.4844L68.4614 49.0733ZM67.5865 42.7899L68.5657 42.939L68.7148 41.96L67.7358 41.8107L67.5865 42.7899ZM67.4427 42.768L67.2933 43.7472L67.2933 43.7472L67.4427 42.768ZM59.7528 41.5952L59.6035 42.5744L59.6035 42.5744L59.7528 41.5952ZM59.609 41.5732L59.7583 40.594L58.7787 40.4446L58.6297 41.4243L59.609 41.5732ZM59.6077 41.5818L58.6284 41.4329L58.6284 41.4329L59.6077 41.5818ZM60.1088 49.6654L61.0622 49.3967L61.0622 49.3967L60.1088 49.6654ZM61.1197 52.423L62.0209 52.0118H62.0209L61.1197 52.423ZM68.3243 60.6749L67.7953 61.5123L68.3243 60.6749ZM78.871 63.6354L78.8869 64.6258H78.8869L78.871 63.6354ZM81.7955 63.3635L81.9625 64.3399L81.7955 63.3635ZM88.7122 60.7318L89.5701 60.2366L89.0576 59.3489L88.1879 59.8914L88.7122 60.7318ZM90.39 63.6379L89.5322 64.1331L90.39 65.6189L91.2479 64.1331L90.39 63.6379ZM98.3944 49.7739L99.2522 50.2692L100.11 48.7834H98.3944V49.7739ZM82.3857 49.7739V48.7834H80.67L81.5278 50.2692L82.3857 49.7739ZM84.6733 53.7362L85.2183 54.5633L85.998 54.0495L85.5311 53.2409L84.6733 53.7362ZM78.7417 55.5667L78.7258 54.5763L78.7417 55.5667ZM72.6337 53.8522L72.1048 54.6896V54.6896L72.6337 53.8522ZM66.6065 42.6455C66.2531 44.9693 66.5845 47.3459 67.5602 49.4844L69.3626 48.6621C68.5466 46.8738 68.2695 44.8866 68.5651 42.9434L66.6065 42.6455ZM66.6072 42.6408L66.6066 42.6453L68.565 42.9435L68.5657 42.939L66.6072 42.6408ZM67.2933 43.7472L67.4372 43.7691L67.7358 41.8107L67.592 41.7888L67.2933 43.7472ZM59.6035 42.5744L67.2933 43.7472L67.592 41.7888L59.9021 40.616L59.6035 42.5744ZM59.4596 42.5525L59.6035 42.5744L59.9021 40.616L59.7583 40.594L59.4596 42.5525ZM60.587 41.7307L60.5883 41.7222L58.6297 41.4243L58.6284 41.4329L60.587 41.7307ZM61.0622 49.3967C60.3626 46.9145 60.1961 44.3012 60.587 41.7307L58.6284 41.4329C58.195 44.2834 58.3796 47.1815 59.1554 49.9341L61.0622 49.3967ZM62.0209 52.0118C61.6333 51.1624 61.3134 50.288 61.0622 49.3967L59.1554 49.9341C59.4339 50.9225 59.7888 51.8922 60.2185 52.8342L62.0209 52.0118ZM68.8532 59.8374C65.8632 57.9488 63.4889 55.2293 62.0209 52.0118L60.2185 52.8342C61.8465 56.4021 64.4795 59.418 67.7953 61.5123L68.8532 59.8374ZM78.8552 62.645C75.3191 62.7017 71.8432 61.726 68.8532 59.8374L67.7953 61.5123C71.1111 63.6067 74.9656 64.6887 78.8869 64.6258L78.8552 62.645ZM81.6286 62.3872C80.7158 62.5433 79.7887 62.63 78.8552 62.645L78.8869 64.6258C79.9222 64.6092 80.9502 64.513 81.9625 64.3399L81.6286 62.3872ZM88.1879 59.8914C86.1788 61.1449 83.9498 61.9902 81.6286 62.3872L81.9625 64.3399C84.5366 63.8997 87.0084 62.9623 89.2365 61.5722L88.1879 59.8914ZM91.2479 63.1426L89.5701 60.2366L87.8544 61.2271L89.5322 64.1331L91.2479 63.1426ZM97.5366 49.2786L89.5322 63.1426L91.2479 64.1331L99.2522 50.2692L97.5366 49.2786ZM82.3857 50.7644L98.3944 50.7644V48.7834L82.3857 48.7834V50.7644ZM85.5311 53.2409L83.2435 49.2786L81.5278 50.2692L83.8155 54.2314L85.5311 53.2409ZM78.7575 56.5571C81.0579 56.5202 83.299 55.828 85.2183 54.5633L84.1283 52.9091C82.5233 53.9666 80.6494 54.5454 78.7258 54.5763L78.7575 56.5571ZM72.1048 54.6896C74.0936 55.9458 76.4055 56.5948 78.7575 56.5571L78.7258 54.5763C76.759 54.6078 74.8258 54.0651 73.1627 53.0147L72.1048 54.6896ZM67.5602 49.4844C68.5366 51.6245 70.116 53.4334 72.1048 54.6896L73.1627 53.0147C71.4997 51.9643 70.179 50.4517 69.3626 48.6621L67.5602 49.4844Z" fill="#E5F4FD" mask="url(#path-19-inside-2)"/>
<mask id="path-21-inside-3" fill="white">
<path fill-rule="evenodd" clip-rule="evenodd" d="M88.6658 39.8549C89.5617 41.8183 89.8659 44.0002 89.5414 46.1337L89.5407 46.1382L89.6845 46.1602L97.3744 47.333L97.5182 47.3549L97.5195 47.3463C97.9317 44.6358 97.7561 41.8802 97.0185 39.2628C96.7536 38.3229 96.4162 37.4009 96.0075 36.5052C94.4596 33.1124 91.9558 30.2448 88.803 28.2533C85.6501 26.2618 81.9849 25.233 78.2562 25.2927C77.2718 25.3085 76.2942 25.4 75.3317 25.5646C72.884 25.9832 70.5336 26.8746 68.415 28.1963L66.7372 25.2903L58.7328 39.1542H74.7415L72.4539 35.192C74.2161 34.0308 76.2736 33.3953 78.3856 33.3615C80.5449 33.3268 82.6676 33.9227 84.4935 35.076C86.3194 36.2293 87.7694 37.89 88.6658 39.8549Z"/>
</mask>
<path fill-rule="evenodd" clip-rule="evenodd" d="M88.6658 39.8549C89.5617 41.8183 89.8659 44.0002 89.5414 46.1337L89.5407 46.1382L89.6845 46.1602L97.3744 47.333L97.5182 47.3549L97.5195 47.3463C97.9317 44.6358 97.7561 41.8802 97.0185 39.2628C96.7536 38.3229 96.4162 37.4009 96.0075 36.5052C94.4596 33.1124 91.9558 30.2448 88.803 28.2533C85.6501 26.2618 81.9849 25.233 78.2562 25.2927C77.2718 25.3085 76.2942 25.4 75.3317 25.5646C72.884 25.9832 70.5336 26.8746 68.415 28.1963L66.7372 25.2903L58.7328 39.1542H74.7415L72.4539 35.192C74.2161 34.0308 76.2736 33.3953 78.3856 33.3615C80.5449 33.3268 82.6676 33.9227 84.4935 35.076C86.3194 36.2293 87.7694 37.89 88.6658 39.8549Z" fill="#187EB4"/>
<path d="M89.5414 46.1337L90.5207 46.2828L90.5207 46.2827L89.5414 46.1337ZM88.6658 39.8549L89.567 39.4437V39.4437L88.6658 39.8549ZM89.5407 46.1382L88.5615 45.9891L88.4124 46.9681L89.3914 47.1174L89.5407 46.1382ZM89.6845 46.1602L89.8339 45.181L89.8339 45.181L89.6845 46.1602ZM97.3744 47.333L97.5238 46.3538H97.5238L97.3744 47.333ZM97.5182 47.3549L97.3689 48.3341L98.3485 48.4835L98.4975 47.5038L97.5182 47.3549ZM97.5195 47.3463L98.4988 47.4953L98.4988 47.4952L97.5195 47.3463ZM97.0185 39.2628L96.0651 39.5315V39.5315L97.0185 39.2628ZM96.0075 36.5052L95.1064 36.9163L96.0075 36.5052ZM88.803 28.2533L89.3319 27.4158V27.4158L88.803 28.2533ZM78.2562 25.2927L78.2403 24.3023L78.2562 25.2927ZM75.3317 25.5646L75.4987 26.541L75.3317 25.5646ZM68.415 28.1963L67.5572 28.6916L68.0696 29.5792L68.9393 29.0367L68.415 28.1963ZM66.7372 25.2903L67.595 24.795L66.7372 23.3092L65.8794 24.795L66.7372 25.2903ZM58.7328 39.1542L57.875 38.659L57.0172 40.1448H58.7328V39.1542ZM74.7415 39.1542V40.1448H76.4572L75.5994 38.659L74.7415 39.1542ZM72.4539 35.192L71.9089 34.3649L71.1292 34.8786L71.5961 35.6872L72.4539 35.192ZM78.3856 33.3615L78.4014 34.3519L78.3856 33.3615ZM84.4935 35.076L85.0225 34.2385L84.4935 35.076ZM90.5207 46.2827C90.8741 43.9588 90.5427 41.5823 89.567 39.4437L87.7647 40.266C88.5806 42.0543 88.8577 44.0416 88.5621 45.9848L90.5207 46.2827ZM90.52 46.2873L90.5207 46.2828L88.5622 45.9846L88.5615 45.9891L90.52 46.2873ZM89.8339 45.181L89.6901 45.159L89.3914 47.1174L89.5352 47.1394L89.8339 45.181ZM97.5238 46.3538L89.8339 45.181L89.5352 47.1394L97.2251 48.3122L97.5238 46.3538ZM97.6676 46.3757L97.5238 46.3538L97.2251 48.3122L97.3689 48.3341L97.6676 46.3757ZM96.5403 47.1974L96.539 47.206L98.4975 47.5038L98.4988 47.4953L96.5403 47.1974ZM96.0651 39.5315C96.7646 42.0137 96.9311 44.627 96.5403 47.1974L98.4988 47.4952C98.9322 44.6447 98.7476 41.7467 97.9718 38.9941L96.0651 39.5315ZM95.1064 36.9163C95.4939 37.7658 95.8139 38.6402 96.0651 39.5315L97.9718 38.9941C97.6933 38.0056 97.3385 37.036 96.9087 36.094L95.1064 36.9163ZM88.274 29.0907C91.264 30.9793 93.6384 33.6989 95.1064 36.9163L96.9087 36.094C95.2808 32.526 92.6477 29.5102 89.3319 27.4158L88.274 29.0907ZM78.2721 26.2832C81.8081 26.2265 85.284 27.2021 88.274 29.0907L89.3319 27.4158C86.0162 25.3214 82.1616 24.2395 78.2403 24.3023L78.2721 26.2832ZM75.4987 26.541C76.4114 26.3849 77.3385 26.2981 78.2721 26.2832L78.2403 24.3023C77.205 24.3189 76.177 24.4152 75.1647 24.5883L75.4987 26.541ZM68.9393 29.0367C70.9485 27.7833 73.1774 26.9379 75.4987 26.541L75.1647 24.5883C72.5906 25.0284 70.1188 25.9659 67.8907 27.3559L68.9393 29.0367ZM65.8794 25.7856L67.5572 28.6916L69.2728 27.7011L67.595 24.795L65.8794 25.7856ZM59.5906 39.6495L67.595 25.7856L65.8794 24.795L57.875 38.659L59.5906 39.6495ZM74.7415 38.1637H58.7328V40.1448H74.7415V38.1637ZM71.5961 35.6872L73.8837 39.6495L75.5994 38.659L73.3118 34.6967L71.5961 35.6872ZM78.3697 32.3711C76.0693 32.4079 73.8282 33.1001 71.9089 34.3649L72.9989 36.0191C74.6039 34.9615 76.4779 34.3827 78.4014 34.3519L78.3697 32.3711ZM85.0225 34.2385C83.0337 32.9823 80.7217 32.3333 78.3697 32.3711L78.4014 34.3519C80.3682 34.3203 82.3015 34.863 83.9645 35.9134L85.0225 34.2385ZM89.567 39.4437C88.5906 37.3036 87.0113 35.4947 85.0225 34.2385L83.9645 35.9134C85.6276 36.9639 86.9482 38.4765 87.7647 40.266L89.567 39.4437Z" fill="#E5F4FD" mask="url(#path-21-inside-3)"/>
</svg>
