<svg width="373" height="267" viewBox="0 0 373 267" fill="none" xmlns="http://www.w3.org/2000/svg">
<path opacity="0.11" d="M168.697 184.142C206.933 184.142 237.929 182.233 237.929 179.877C237.929 177.522 206.933 175.613 168.697 175.613C130.462 175.613 99.4658 177.522 99.4658 179.877C99.4658 182.233 130.462 184.142 168.697 184.142Z" fill="#2A94F4"/>
<path opacity="0.11" d="M115.949 177.063C115.949 177.063 86.8719 172.173 84.4158 126.024C81.9597 79.8759 112.174 58.1763 140.032 67.7419C149.526 71.0018 159.466 62.2429 147.004 48.9235C133.504 34.5011 152.131 -7.18583 220.95 11.188C273.418 25.1989 256.225 61.8972 237.648 88.7006C220.769 113.034 257.627 105.79 255.105 148.564C252.22 197.676 115.949 177.063 115.949 177.063Z" fill="#2A94F4"/>
<path d="M148.948 106.765H114.394L115.057 67.0312H148.454L148.948 106.765Z" fill="#F7F7F7"/>
<path d="M187.109 106.766H112.62V111.786H187.109V106.766Z" fill="#606060"/>
<path d="M163.04 125.725H136.674V128.651H163.04V125.725Z" fill="#606060"/>
<path d="M112.62 174.929L144.707 108.799L148.068 110.431L116.752 174.945L112.62 174.929Z" fill="#606060"/>
<path d="M187.094 174.929L155.007 108.799L151.661 110.431L182.962 174.945L187.094 174.929Z" fill="#606060"/>
<path d="M131.941 98.924C139.188 98.924 145.063 93.5252 145.063 86.8653C145.063 80.2055 139.188 74.8066 131.941 74.8066C124.694 74.8066 118.819 80.2055 118.819 86.8653C118.819 93.5252 124.694 98.924 131.941 98.924Z" fill="#2A94F4"/>
<path d="M131.94 86.8672H145.062C145.062 89.4083 144.183 91.8878 142.564 93.9361C140.945 95.9998 138.648 97.5244 136.026 98.3098L131.94 86.8672Z" fill="#CCE9FF"/>
<path d="M131.941 86.8653L123.183 77.8868C125.588 75.9155 128.703 74.8066 131.941 74.8066C139.141 74.8066 145.062 80.2431 145.062 86.8653C145.062 86.8807 145.062 86.9115 145.062 86.9269L131.941 86.8653Z" fill="#0B4870"/>
<path d="M182.052 106.763H152.863L153.418 86.0957H181.62L182.052 106.763Z" fill="#F7F7F7"/>
<path d="M163.964 92.1602H160.788V104.296H163.964V92.1602Z" fill="#0B4870"/>
<path d="M169.408 93.6074H166.231V104.311H169.408V93.6074Z" fill="#0B4870"/>
<path d="M174.836 90.6211H171.659V104.297H174.836V90.6211Z" fill="#FFBE55"/>
<path d="M158.445 89.2832H158.105V104.468H158.445V89.2832Z" fill="#0B4870"/>
<path d="M179.308 104.301H158.106V104.563H179.308V104.301Z" fill="#0B4870"/>
<path d="M118.294 100.158H117.138V101.313H118.294V100.158Z" fill="#0B4870"/>
<path d="M123.397 100.559H118.941V100.928H123.397V100.559Z" fill="#0B4870"/>
<path d="M123.397 102.545H118.941V102.915H123.397V102.545Z" fill="#0B4870"/>
<path d="M123.397 104.547H118.941V104.917H123.397V104.547Z" fill="#0B4870"/>
<path d="M118.294 102.16H117.138V103.315H118.294V102.16Z" fill="#2A94F4"/>
<path d="M118.294 104.146H117.138V105.302H118.294V104.146Z" fill="#CCE9FF"/>
<path d="M201.725 46.8857L181.588 40.5715C184.903 29.9912 196.051 23.7386 206.829 26.4183C218.069 29.2058 225.008 40.7409 222.217 51.9679C219.426 63.195 207.877 70.1252 196.637 67.3377C194.309 66.7679 192.104 65.7977 190.099 64.4732L201.725 46.8857Z" fill="#FFBE55"/>
<path d="M196.483 48.949L184.626 67.0294C180.71 64.4728 177.734 60.6997 176.13 56.3105C174.542 51.9059 174.419 47.1163 175.791 42.6348L196.483 48.949Z" fill="#FFBE55"/>
<path d="M209.375 98.4939L205.489 95.6294L235.988 54.3249C236.59 53.5087 237.746 53.3239 238.579 53.9399L239.488 54.6175C240.305 55.2181 240.491 56.3732 239.874 57.2048L209.375 98.4939Z" fill="#F2F2F2"/>
<path d="M211.333 100.357L207.617 97.2615L240.537 57.8513C241.184 57.0659 242.356 56.9581 243.143 57.6203L244.006 58.3442C244.792 58.991 244.9 60.1614 244.237 60.9469L211.333 100.357Z" fill="#F7F7F7"/>
<path d="M239.994 56.1538C240.205 55.8343 239.661 55.1044 238.78 54.5236C237.899 53.9428 237.013 53.731 236.802 54.0504C236.591 54.3699 237.134 55.0998 238.016 55.6806C238.897 56.2614 239.783 56.4732 239.994 56.1538Z" fill="#D3D3D3"/>
<path d="M244.394 59.9467C244.605 59.6272 244.062 58.8974 243.18 58.3166C242.299 57.7358 241.413 57.5239 241.202 57.8434C240.991 58.1629 241.535 58.8927 242.416 59.4735C243.298 60.0544 244.183 60.2662 244.394 59.9467Z" fill="#D3D3D3"/>
<path d="M222.773 167.131L223.282 170.288C223.482 171.551 222.742 172.767 221.524 173.168L216.097 174.954H228.756L227.229 167.131H222.773Z" fill="#FCD2B1"/>
<path d="M228.432 173.169L222.171 172.846C222.171 172.846 214.292 174.062 214.246 175.772H229.866L228.432 173.169Z" fill="#0E538C"/>
<path d="M189.16 167.131L187.865 171.089C187.587 171.951 186.894 172.629 186.03 172.921L179.878 174.954H192.537L194.326 167.131H189.16Z" fill="#FCD2B1"/>
<path d="M192.783 173.169L185.937 172.846C185.937 172.846 178.058 174.062 178.012 175.772H193.631L192.783 173.169Z" fill="#0E538C"/>
<path d="M221.077 94.1172C221.077 94.1172 224.161 96.1655 225.055 104.02C225.949 111.874 224.7 117.572 225.41 122.162C226.119 126.751 227.507 168.456 227.507 168.456H220.784L209.574 94.1634L221.077 94.1172Z" fill="#FFBE55"/>
<path d="M206.445 93.2715H218.348C218.348 93.2715 219.813 102.127 217.238 107.301C214.648 112.476 213.26 113.862 212.52 116.865C211.78 119.868 193.863 168.457 193.863 168.457H188.127L206.445 93.2715Z" fill="#FFBE55"/>
<path d="M223.606 68.3223C223.606 68.3223 235.571 85.3554 234.199 89.9602C232.826 94.5649 219.088 89.4673 219.088 89.4673V86.6028L228.494 87.7887L221.354 75.5914L223.606 68.3223Z" fill="#FCD2B1"/>
<path d="M203.237 77.2222C203.946 73.5568 208.201 68.0742 208.201 68.0742H225.054L220.614 91.1598C220.321 92.6382 223.991 94.1783 220.028 94.1783H206.274C205.596 94.1783 205.056 93.6393 205.056 92.9616V84.6453C205.056 83.5364 204.748 82.4276 204.115 81.5036C203.067 79.9173 203.036 78.254 203.237 77.2222Z" fill="#2A94F4"/>
<path d="M210.916 55.5078L209.405 59.0808C209.405 59.0808 208.511 61.7297 209.035 63.2851C209.636 65.0716 212.319 65.0562 212.319 65.0562L211.517 69.4146H218.348V55.631L210.916 55.5078Z" fill="#FFE3CA"/>
<path d="M211.301 56.9709C210.067 56.1392 209.836 54.4452 210.792 53.3055C212.133 51.7193 214.446 49.8096 217.731 50.0406C220.969 50.2716 224.083 52.2583 224.16 56.8939C224.207 59.9894 224.978 62.1301 227.167 66.011C229.218 69.661 225.934 73.7729 226.396 77.1457C226.859 80.5184 227.414 80.4568 227.506 83.3829C227.861 94.8872 216.759 94.4868 211.116 94.0864C205.58 93.6859 203.53 82.2741 207.338 77.8849C211.147 73.4957 209.867 68.4751 210.252 66.4114C211.177 61.4062 213.552 60.4206 213.182 57.9103C212.488 57.6947 211.84 57.3405 211.301 56.9709Z" fill="#0E538C"/>
<path d="M178.182 50.4415C178.151 46.961 180.988 48.3317 181.142 49.0093C181.173 49.1479 181.512 49.2403 181.651 50.2567C181.79 51.2578 182.53 52.6284 182.669 52.2742C182.946 51.5658 183.286 50.5339 183.532 50.765C184.303 51.535 183.872 52.9826 183.486 53.8759C183.27 54.3841 183.347 54.9693 183.686 55.4005L193.848 68.0753H208.002C210.917 68.6451 209.483 74.7129 205.982 74.5743C202.914 74.4511 194.973 74.1123 191.504 71.9408C188.035 69.7539 180.51 54.6613 180.51 54.6613C178.968 53.4909 178.182 50.7188 178.182 50.4415Z" fill="#FCD2B1"/>
</svg>
