<svg width="172" height="179" viewBox="0 0 172 179" fill="none" xmlns="http://www.w3.org/2000/svg">
  <path opacity="0.11" d="M84.6974 178.142C122.933 178.142 153.929 176.233 153.929 173.877C153.929 171.522 122.933 169.613 84.6974 169.613C46.4619 169.613 15.4658 171.522 15.4658 173.877C15.4658 176.233 46.4619 178.142 84.6974 178.142Z" fill="#2A94F4" />
  <path opacity="0.11" d="M31.9491 171.063C31.9491 171.063 2.87186 166.173 0.415789 120.024C-2.04028 73.8759 28.1744 52.1763 56.0318 61.7419C65.5264 65.0018 75.4661 56.2429 63.0044 42.9235C49.5043 28.5011 68.1308 -13.1858 136.95 5.188C189.418 19.1989 172.225 55.8972 153.648 82.7006C136.769 107.034 173.627 99.7902 171.105 142.564C168.22 191.676 31.9491 171.063 31.9491 171.063Z" fill="#2A94F4" />
  <path d="M64.9476 100.765H30.3936L31.0566 61.0312H64.4542L64.9476 100.765Z" fill="#F7F7F7" />
  <path d="M103.109 100.766H28.6201V105.786H103.109V100.766Z" fill="#606060" />
  <path d="M79.0404 119.725H52.6738V122.651H79.0404V119.725Z" fill="#606060" />
  <path d="M28.6201 168.929L60.7071 102.799L64.0685 104.431L32.7524 168.945L28.6201 168.929Z" fill="#606060" />
  <path d="M103.094 168.929L71.0071 102.799L67.6611 104.431L98.9618 168.945L103.094 168.929Z" fill="#606060" />
  <path d="M47.9409 92.924C55.1878 92.924 61.0625 87.5252 61.0625 80.8653C61.0625 74.2055 55.1878 68.8066 47.9409 68.8066C40.6941 68.8066 34.8193 74.2055 34.8193 80.8653C34.8193 87.5252 40.6941 92.924 47.9409 92.924Z" fill="#2A94F4" />
  <path d="M47.9404 80.8672H61.062C61.062 83.4083 60.1832 85.8878 58.5642 87.9361C56.9452 89.9998 54.6477 91.5244 52.0265 92.3098L47.9404 80.8672Z" fill="#CCE9FF" />
  <path d="M47.9406 80.8653L39.1826 71.8868C41.588 69.9155 44.7026 68.8066 47.9406 68.8066C55.1413 68.8066 61.0622 74.2431 61.0622 80.8653C61.0622 80.8807 61.0622 80.9115 61.0622 80.9269L47.9406 80.8653Z" fill="#0B4870" />
  <path d="M98.0515 100.763H68.8633L69.4184 80.0957H97.6198L98.0515 100.763Z" fill="#F7F7F7" />
  <path d="M79.9644 86.1602H76.7881V98.2959H79.9644V86.1602Z" fill="#0B4870" />
  <path d="M85.4078 87.6074H82.2314V98.3108H85.4078V87.6074Z" fill="#0B4870" />
  <path d="M90.8355 84.6211H87.6592V98.2968H90.8355V84.6211Z" fill="#FFBE55" />
  <path d="M74.4447 83.2832H74.1055V98.4682H74.4447V83.2832Z" fill="#0B4870" />
  <path d="M95.3076 98.3008H74.1064V98.5626H95.3076V98.3008Z" fill="#0B4870" />
  <path d="M34.2941 94.1582H33.1377V95.3132H34.2941V94.1582Z" fill="#0B4870" />
  <path d="M39.3975 94.5586H34.9414V94.9282H39.3975V94.5586Z" fill="#0B4870" />
  <path d="M39.3975 96.5449H34.9414V96.9146H39.3975V96.5449Z" fill="#0B4870" />
  <path d="M39.3975 98.5469H34.9414V98.9165H39.3975V98.5469Z" fill="#0B4870" />
  <path d="M34.2941 96.1602H33.1377V97.3152H34.2941V96.1602Z" fill="#2A94F4" />
  <path d="M34.2941 98.1465H33.1377V99.3015H34.2941V98.1465Z" fill="#CCE9FF" />
  <path d="M117.725 40.8857L97.5879 34.5715C100.903 23.9912 112.051 17.7386 122.829 20.4183C134.069 23.2058 141.008 34.7409 138.217 45.9679C135.426 57.195 123.877 64.1252 112.637 61.3377C110.309 60.7679 108.104 59.7977 106.099 58.4732L117.725 40.8857Z" fill="#FFBE55" />
  <path d="M112.483 42.949L100.626 61.0294C96.7098 58.4728 93.7339 54.6997 92.1303 50.3105C90.5421 45.9059 90.4188 41.1163 91.7911 36.6348L112.483 42.949Z" fill="#FFBE55" />
  <path d="M125.375 92.4939L121.489 89.6294L151.988 48.3249C152.59 47.5087 153.746 47.3239 154.579 47.9399L155.488 48.6175C156.305 49.2181 156.491 50.3732 155.874 51.2048L125.375 92.4939Z" fill="#F2F2F2" />
  <path d="M127.333 94.3571L123.617 91.2615L156.537 51.8513C157.184 51.0659 158.356 50.9581 159.143 51.6203L160.006 52.3442C160.792 52.991 160.9 54.1614 160.237 54.9469L127.333 94.3571Z" fill="#F7F7F7" />
  <path d="M155.994 50.1538C156.205 49.8343 155.661 49.1044 154.78 48.5236C153.899 47.9428 153.013 47.731 152.802 48.0504C152.591 48.3699 153.134 49.0998 154.016 49.6806C154.897 50.2614 155.783 50.4732 155.994 50.1538Z" fill="#D3D3D3" />
  <path d="M160.394 53.9467C160.605 53.6272 160.062 52.8974 159.18 52.3166C158.299 51.7358 157.413 51.5239 157.202 51.8434C156.991 52.1629 157.535 52.8927 158.416 53.4735C159.298 54.0544 160.183 54.2662 160.394 53.9467Z" fill="#D3D3D3" />
  <path d="M138.773 161.131L139.282 164.288C139.482 165.551 138.742 166.767 137.524 167.168L132.097 168.954H144.756L143.229 161.131H138.773Z" fill="#FCD2B1" />
  <path d="M144.432 167.169L138.171 166.846C138.171 166.846 130.292 168.062 130.246 169.772H145.866L144.432 167.169Z" fill="#0E538C" />
  <path d="M105.16 161.131L103.865 165.089C103.587 165.951 102.894 166.629 102.03 166.921L95.8779 168.954H108.537L110.326 161.131H105.16Z" fill="#FCD2B1" />
  <path d="M108.783 167.169L101.937 166.846C101.937 166.846 94.058 168.062 94.0117 169.772H109.631L108.783 167.169Z" fill="#0E538C" />
  <path d="M137.077 88.1172C137.077 88.1172 140.161 90.1655 141.055 98.0198C141.949 105.874 140.7 111.572 141.41 116.162C142.119 120.751 143.507 162.456 143.507 162.456H136.784L125.574 88.1634L137.077 88.1172Z" fill="#FFBE55" />
  <path d="M122.445 87.2715H134.348C134.348 87.2715 135.813 96.1268 133.238 101.301C130.648 106.476 129.26 107.862 128.52 110.865C127.78 113.868 109.863 162.457 109.863 162.457H104.127L122.445 87.2715Z" fill="#FFBE55" />
  <path d="M139.606 62.3223C139.606 62.3223 151.571 79.3554 150.199 83.9602C148.826 88.5649 135.088 83.4673 135.088 83.4673V80.6028L144.494 81.7887L137.354 69.5914L139.606 62.3223Z" fill="#FCD2B1" />
  <path d="M119.237 71.2222C119.946 67.5568 124.201 62.0742 124.201 62.0742H141.054L136.614 85.1598C136.321 86.6382 139.991 88.1783 136.028 88.1783H122.274C121.596 88.1783 121.056 87.6393 121.056 86.9616V78.6453C121.056 77.5364 120.748 76.4276 120.115 75.5036C119.067 73.9173 119.036 72.254 119.237 71.2222Z" fill="#2A94F4" />
  <path d="M126.916 49.5078L125.405 53.0808C125.405 53.0808 124.511 55.7297 125.035 57.2851C125.636 59.0716 128.319 59.0562 128.319 59.0562L127.517 63.4146H134.348V49.631L126.916 49.5078Z" fill="#FFE3CA" />
  <path d="M127.301 50.9709C126.067 50.1392 125.836 48.4452 126.792 47.3055C128.133 45.7193 130.446 43.8096 133.731 44.0406C136.969 44.2716 140.083 46.2583 140.16 50.8939C140.207 53.9894 140.978 56.1301 143.167 60.011C145.218 63.661 141.934 67.7729 142.396 71.1457C142.859 74.5184 143.414 74.4568 143.506 77.3829C143.861 88.8872 132.759 88.4868 127.116 88.0864C121.58 87.6859 119.53 76.2741 123.338 71.8849C127.147 67.4957 125.867 62.4751 126.252 60.4114C127.177 55.4062 129.552 54.4206 129.182 51.9103C128.488 51.6947 127.84 51.3405 127.301 50.9709Z" fill="#0E538C" />
  <path d="M94.1819 44.4415C94.1511 40.961 96.9882 42.3317 97.1424 43.0093C97.1732 43.1479 97.5124 43.2403 97.6512 44.2567C97.7899 45.2578 98.5301 46.6284 98.6688 46.2742C98.9464 45.5658 99.2856 44.5339 99.5323 44.765C100.303 45.535 99.8715 46.9826 99.486 47.8759C99.2702 48.3841 99.3473 48.9693 99.6865 49.4005L109.848 62.0753H124.002C126.917 62.6451 125.483 68.7129 121.982 68.5743C118.914 68.4511 110.973 68.1123 107.504 65.9408C104.035 63.7539 96.5102 48.6613 96.5102 48.6613C94.9683 47.4909 94.1819 44.7188 94.1819 44.4415Z" fill="#FCD2B1" />
</svg>