<svg width="405" height="229" viewBox="0 0 405 229" fill="none" xmlns="http://www.w3.org/2000/svg">
<g clip-path="url(#clip0)">
<path opacity="0.1" d="M114.92 201.293C140.571 223.626 230.354 238.442 283.289 187.356C336.225 136.269 295.706 -3.29577 202.542 10.0739C109.377 23.4436 128.227 61.5907 120.277 91.3779C112.327 121.165 89.2683 178.96 114.92 201.293Z" fill="#2A94F4"/>
<path opacity="0.1" d="M244.821 222.043C261.839 222.043 275.636 220.24 275.636 218.015C275.636 215.79 261.839 213.987 244.821 213.987C227.802 213.987 214.005 215.79 214.005 218.015C214.005 220.24 227.802 222.043 244.821 222.043Z" fill="#2A94F4"/>
<path opacity="0.1" d="M157.577 221.112C176.694 221.112 192.191 219.102 192.191 216.623C192.191 214.144 176.694 212.135 157.577 212.135C138.46 212.135 122.962 214.144 122.962 216.623C122.962 219.102 138.46 221.112 157.577 221.112Z" fill="#2A94F4"/>
<path opacity="0.1" d="M203.692 228.536C222.809 228.536 238.307 227.145 238.307 225.429C238.307 223.713 222.809 222.322 203.692 222.322C184.575 222.322 169.078 223.713 169.078 225.429C169.078 227.145 184.575 228.536 203.692 228.536Z" fill="#2A94F4"/>
<path d="M221.831 31.7204C221.831 31.7204 220.465 27.3118 220.585 26.7342C220.658 26.3789 221.51 24.1926 221.796 23.4757C221.902 23.2088 222.01 22.9374 222.036 22.6502C222.062 22.3566 222.001 22.0615 221.929 21.7746C221.729 20.9782 221.44 20.2064 221.151 19.4369C221.074 19.2324 220.997 19.0263 220.882 18.8403C220.742 18.6151 220.552 18.4257 220.363 18.2399C219.282 17.178 218.168 16.1499 217.024 15.1571C216.963 15.1047 216.897 15.0498 216.818 15.0414C216.628 15.0209 215.982 16.2935 215.964 16.5876C215.888 17.8147 216.154 19.0649 216.725 20.1636C216.839 20.3823 216.966 20.5989 217.02 20.8387C217.163 21.475 216.772 22.0855 216.576 22.7037C216.399 23.2623 216.216 23.8595 216.141 24.4413C216.003 25.5079 216.934 26.2326 217.072 26.4289C217.149 26.5377 217.172 26.6734 217.195 26.8037C217.346 27.6538 217.625 30.834 217.625 30.834" fill="#FCD2B1"/>
<path d="M239.675 40.2377C238.457 41.0707 238.318 43.0463 238.252 44.3877C238.174 46.0035 238.4 47.6198 238.721 49.2C238.944 50.2997 239.235 51.4384 239.978 52.279C240.358 52.7082 240.835 53.0363 241.308 53.3597C241.576 53.5432 241.85 53.7294 242.162 53.8187C242.474 53.9078 242.836 53.885 243.087 53.6793C243.454 53.3789 243.46 52.8305 243.436 52.3571C243.281 49.2715 243.187 46.1306 243.972 43.1424" fill="#0B4870"/>
<path d="M231.487 209.128C231.487 209.128 231.461 212.039 231.666 213.071C231.872 214.104 235.199 213.771 235.518 213.183C235.837 212.595 235.439 207.785 235.439 207.785" fill="#FCD2B1"/>
<path d="M236.481 214.177C236.571 215.268 236.565 217.329 236.565 217.329L233.155 218.152L232.721 217.572C232.721 217.572 231.768 218.387 230.717 218.665C229.936 218.872 228.305 219.03 227.5 218.975C224.682 218.787 222.739 217.908 222.642 217.495C222.238 215.771 225.983 215.988 226.745 215.924C228.933 215.741 230.407 214.17 230.834 213.051C231.143 212.239 230.961 212.055 231.426 212.163C231.426 212.163 231.841 212.214 232.153 212.675C232.632 213.382 233.465 213.813 234.311 213.595C234.796 213.47 235.273 213.247 235.599 212.857C235.599 212.857 236.39 213.085 236.481 214.177Z" fill="#0B4870"/>
<path d="M238 173.403C237.676 168.289 241.804 161.445 241.804 161.445C241.804 161.445 230.659 155.317 230.492 153.411C230.492 153.411 228.966 163.934 228.418 167.647C227.468 174.097 230.683 210.884 230.683 210.884C230.683 210.884 233.015 211.532 236.113 210.959C236.113 210.959 236.692 196.75 239.013 187.125C240.114 182.56 238.384 174.668 238 173.403Z" fill="#0E538C"/>
<path d="M238.894 114.441C234.711 123.785 230.167 153.937 229.078 164.345C228.616 168.758 232.289 173.931 236.565 169.94C241.671 165.176 248.853 143.352 251.419 139.5C253.985 135.647 263.587 132.115 257.029 112.568" fill="#0E538C"/>
<path d="M257.681 209.31C257.681 209.31 258.057 213.414 258.205 214.457C258.353 215.5 261.693 215.353 262.045 214.784C262.396 214.214 262.267 209.389 262.267 209.389" fill="#FCD2B1"/>
<path d="M262.988 215.649C263.062 216.742 262.877 218.542 262.877 218.542L259.034 218.8L258.802 218.171C258.802 218.171 257.599 218.896 256.62 218.962L253.376 219.18C251.002 219.34 249.633 219.128 249.545 218.714C249.177 216.983 252.019 216.872 252.757 216.822C254.878 216.68 257.108 215.532 257.536 214.42C257.846 213.614 257.672 213.427 258.121 213.544C258.121 213.544 258.522 213.603 258.818 214.069C259.272 214.784 260.073 215.23 260.895 215.028C261.366 214.912 261.831 214.698 262.152 214.314C262.152 214.314 262.915 214.556 262.988 215.649Z" fill="#0B4870"/>
<path d="M249.327 172.8C250.035 176.436 259.526 175.077 259.321 171.857C259.03 167.279 262.235 161.362 263.464 139.57C263.605 137.081 266.097 136.715 267.078 129.945C268.047 123.162 264.033 115.655 264.033 115.655L249.43 113.563C249.43 113.563 243.818 126.236 244.978 138.873C246.139 151.509 248.487 168.518 249.327 172.8Z" fill="#0E538C"/>
<path d="M259.296 171.093C259.296 171.093 262.616 177.675 263.005 182.433C263.575 189.395 262.871 212.307 262.871 212.307C262.871 212.307 259.279 213.088 257.362 212.522C257.362 212.522 248.932 171.87 248.623 167.498C248.314 163.127 259.296 171.093 259.296 171.093Z" fill="#0E538C"/>
<path d="M233.239 70.3793C234.89 68.4842 240.13 65.3608 247.132 65.582C251.957 65.7342 265.096 66.5314 266.564 69.7616C267.315 71.4127 268.121 88.3223 267.022 94.1527C266.195 98.5367 264.081 109.397 264.081 112.018C264.081 114.64 265.488 115.763 264.832 116.524C263.362 118.229 253.308 118.945 248.588 118.945C244.387 118.945 237.236 117.824 236.873 116.477C236.335 114.477 237.693 114.552 237.877 112.456C238.061 110.36 239.051 96.5366 237.821 94.5274C235.868 91.3386 233.929 82.9391 233.779 80.5359C233.629 78.1328 231.589 72.2742 233.239 70.3793Z" fill="#2A94F4"/>
<path d="M245.599 60.5595C245.599 60.5595 245.551 66.3915 245.316 66.6269C245.277 66.6661 245.213 66.7138 245.132 66.7662C244.389 67.2501 244.055 68.1654 244.266 69.027C244.619 70.4737 245.234 72.3317 246.02 72.0984C246.899 71.8379 251.184 69.7285 253.739 68.4547C254.42 68.1152 254.667 67.3436 254.489 66.6032C254.483 66.5798 254.48 66.5561 254.48 66.5327C254.48 66.0623 255.608 56.8911 255.608 56.8911" fill="#FCD2B1"/>
<path d="M245.056 39.1263C244.001 39.8253 240.735 40.2006 240.308 41.7451C239.882 43.2894 240.152 46.5926 240.113 47.5412C240.037 49.4293 240.218 51.3606 240.332 53.2437C240.479 55.6979 240.858 60.1572 243.687 61.3176C244.499 61.6508 244.842 61.7371 245.674 61.6206C246.781 61.4654 247.891 61.3366 248.998 61.1798C250.713 60.9366 252.618 60.6841 254.054 59.6309C255.972 58.2238 256.177 54.879 256.068 52.6889L255.443 40.1449L245.056 39.1263Z" fill="#FFE3CA"/>
<path d="M244.884 77.4808C245.136 72.6002 228.331 53.4617 228.535 52.6309C228.74 51.8004 220.995 27.4279 220.995 27.4279L216.594 27.769C216.594 27.769 218.033 48.3792 219.998 55.2683C221.382 60.118 232.165 74.4043 232.165 74.4043C232.165 74.4043 244.632 82.3613 244.884 77.4808Z" fill="#2A94F4"/>
<path d="M256.371 109.768L281.718 114.557C282.409 114.687 282.842 115.38 282.656 116.059L279.26 133.606C279.094 134.211 278.492 134.587 277.876 134.471L252.529 129.682C251.838 129.552 251.405 128.859 251.591 128.18L254.987 110.633C255.152 110.028 255.755 109.652 256.371 109.768Z" fill="#0B4870"/>
<path d="M256.67 111.115L280.938 115.7L277.577 133.123L253.308 128.538L256.67 111.115Z" fill="#F7F7F7"/>
<path d="M256.025 127.625L258.676 112.794" stroke="#D3D3D3" stroke-width="0.5282" stroke-miterlimit="10" stroke-linecap="round" stroke-linejoin="round"/>
<path d="M258.314 128.07L260.965 113.238" stroke="#D3D3D3" stroke-width="0.5282" stroke-miterlimit="10" stroke-linecap="round" stroke-linejoin="round"/>
<path d="M261.608 128.745L264.259 113.913" stroke="#D3D3D3" stroke-width="0.5282" stroke-miterlimit="10" stroke-linecap="round" stroke-linejoin="round"/>
<path d="M264.901 129.42L267.552 114.588" stroke="#D3D3D3" stroke-width="0.5282" stroke-miterlimit="10" stroke-linecap="round" stroke-linejoin="round"/>
<path d="M268.194 130.095L271.167 115.263" stroke="#D3D3D3" stroke-width="0.5282" stroke-miterlimit="10" stroke-linecap="round" stroke-linejoin="round"/>
<path d="M271.488 130.77L274.461 115.938" stroke="#D3D3D3" stroke-width="0.5282" stroke-miterlimit="10" stroke-linecap="round" stroke-linejoin="round"/>
<path d="M274.782 131.445L277.876 116.613" stroke="#D3D3D3" stroke-width="0.5282" stroke-miterlimit="10" stroke-linecap="round" stroke-linejoin="round"/>
<path d="M269.809 122.523C269.809 122.523 268.806 124.57 268.269 125.609C267.919 126.287 265.257 128.557 264.189 130.365C263.674 131.237 263.22 132.223 263.352 133.228C263.483 134.233 264.427 135.185 265.417 134.972C265.699 134.912 266.022 134.774 266.249 134.951C266.365 135.04 266.416 135.188 266.487 135.316C266.706 135.709 267.178 135.944 267.623 135.883C268.069 135.822 268.459 135.468 268.564 135.03C269.245 135.667 270.429 135.654 271.096 135.002C270.699 134.675 270.403 134.17 270.485 133.662C270.563 133.172 270.957 132.806 271.259 132.413C271.792 131.721 272.077 130.842 272.054 129.969C272.037 129.346 271.869 128.737 271.801 128.118C271.66 126.847 271.952 125.533 272.617 124.442" fill="#FCD2B1"/>
<path d="M262.173 81.5355C262.94 84.2686 274.607 102.243 274.607 102.243L268.361 125.026L271.922 127.256C271.922 127.256 283.026 108.79 283.061 103.575C283.095 98.3606 274.937 79.2431 268.973 71.4262C267.075 68.9381 263.27 67.6822 263.27 67.6822" fill="#2A94F4"/>
<path d="M256.598 50.3031C255.728 50.1168 255.021 49.8506 254.777 50.7063C254.647 51.1599 254.663 51.7221 254.276 51.9913C253.89 52.2592 253.32 52.0206 253.072 51.6216C252.824 51.2226 252.808 50.7265 252.8 50.2566C252.782 49.2167 252.764 48.1767 252.747 47.1368C252.729 46.1184 252.679 45.0097 252.018 44.2353C251.684 43.8443 251.224 43.5809 250.748 43.3851C249.2 42.7468 247.46 42.7634 245.796 42.9587C244.133 43.154 242.483 43.5175 240.808 43.5401C240.105 43.5494 239.386 43.4951 238.734 43.2304C237.681 42.8029 236.893 41.844 236.525 40.7674C236.157 39.6907 236.179 38.5087 236.427 37.3983C236.664 37.7316 236.938 38.0379 237.244 38.3092C237.271 37.7502 237.411 37.1969 237.655 36.6931C238.944 39.0768 249.324 34.7142 252.182 35.01C254.163 35.2147 255.758 35.25 256.627 38.0668C256.737 38.2326 256.93 38.3187 257.111 38.4008C259.104 39.3031 260.33 40.795 261.359 43.2716C262.617 46.3014 261.917 50.2625 260.988 53.4091C260.755 54.1999 260.658 54.7389 260.191 55.4187C259.724 56.0983 258.716 56.6892 257.898 56.7956C257.081 56.9022 255.589 57.4679 255.316 56.6896C255.121 56.1327 255.989 54.7381 256.171 54.1774" fill="#0B4870"/>
<path d="M254.773 54.1595C254.773 54.1595 254.82 54.7219 255.28 55.0246C255.683 55.2902 256.245 55.0472 256.6 54.7873C257.612 54.0469 258.029 52.6849 257.867 51.4741C257.675 50.0472 256.511 48.941 255.397 49.696C254.745 50.1378 254.565 51.1022 254.819 51.8478" fill="#FFE3CA"/>
<path d="M252.231 122.971L254.425 123.49L256.009 115.281L253.809 114.816L252.231 122.971Z" fill="#0B4870"/>
<path d="M250.768 120.445C251.285 120.542 253.282 120.92 253.282 120.92L254.023 116.994L251.509 116.519C250.426 116.314 249.382 117.026 249.177 118.111C248.972 119.195 249.684 120.24 250.768 120.445ZM250.956 119.588C250.348 119.473 249.948 118.886 250.063 118.278C250.178 117.67 250.764 117.27 251.372 117.385C251.98 117.5 252.379 118.086 252.264 118.694C252.149 119.303 251.564 119.703 250.956 119.588Z" fill="#0B4870"/>
<path d="M206.849 18.8535C207.035 17.2858 203.429 16.2249 203.067 17.5209C203.028 17.6598 202.716 18.0415 202.632 18.6246C202.56 19.1218 202.342 19.7013 202.279 20.2014C202.222 20.6557 202.331 22.7818 201.271 23.009C199.646 23.3573 200.676 20.5286 199.53 19.894C199.171 19.695 198.789 21.888 198.762 23.1285C198.735 24.3685 198.728 24.99 198.845 25.7203C198.946 26.4509 199.35 27.4843 199.293 27.9268C199.202 28.6391 198.371 30.1023 198.371 30.1023L202.474 31.0371C202.474 31.0371 203.444 28.7799 203.94 28.2549C205.186 27.011 205.966 25.5833 206.424 23.8564C206.712 22.7746 206.81 21.6454 206.893 20.5324C206.893 20.5322 206.83 19.0152 206.849 18.8535Z" fill="#FCD2B1"/>
<path d="M168.264 53.1839C168.264 53.1839 181.277 53.0688 188.342 45.1443C193.979 37.2403 199.424 28.4959 199.83 27.6844C200.939 28.1087 203.323 29.2002 203.323 29.2002C203.323 29.2002 195.877 45.8746 192.977 49.683C190.076 53.4913 184.37 59.7287 172.311 62.8251C166.534 56.1874 168.264 53.1839 168.264 53.1839Z" fill="#FCD2B1"/>
<path d="M176.746 208.657C176.746 208.657 177.494 210.366 177.457 211.514C177.419 212.661 173.782 212.896 173.334 212.321C172.886 211.745 172.458 206.5 172.458 206.5" fill="#FCD2B1"/>
<path d="M172.413 213.369C172.462 214.562 172.873 216.491 172.873 216.491L177.069 216.318L177.247 215.609C177.247 215.609 178.636 216.254 179.705 216.21L183.246 216.064C185.838 215.957 187.297 215.566 187.344 215.107C187.539 213.187 184.445 213.402 183.639 213.435C181.324 213.53 178.772 212.549 178.177 211.395C177.746 210.558 177.912 210.334 177.44 210.514C177.44 210.514 177.012 210.625 176.746 211.165C176.338 211.994 175.523 212.572 174.608 212.449C174.084 212.379 173.555 212.202 173.162 211.823C173.161 211.823 172.364 212.177 172.413 213.369Z" fill="#0B4870"/>
<path d="M135.762 206.379C135.762 206.379 135.112 209.485 134.653 210.537C134.193 211.589 130.728 210.459 130.525 209.758C130.322 209.057 131.866 204.027 131.866 204.027" fill="#FCD2B1"/>
<path d="M129.281 210.391C128.886 211.517 128.32 213.691 128.32 213.691L131.578 215.458L132.183 214.961C132.183 214.961 132.931 216.072 133.928 216.642C134.669 217.066 136.292 217.663 137.13 217.818C140.063 218.362 142.294 217.949 142.507 217.539C143.399 215.829 139.511 215.069 138.749 214.801C136.563 214.032 135.492 211.986 135.367 210.694C135.275 209.756 135.513 209.611 135.007 209.602C135.007 209.602 134.569 209.547 134.122 209.95C133.436 210.569 132.465 210.803 131.66 210.35C131.2 210.091 130.773 209.73 130.549 209.233C130.549 209.233 129.677 209.265 129.281 210.391Z" fill="#0B4870"/>
<path d="M147.136 123.872C147.136 123.872 140.873 110.444 150.409 100.114C150.409 100.114 159.051 103.566 165.864 103.745C171.229 103.886 173.923 103.219 173.923 103.219C173.923 103.219 175.537 113.113 175.518 128.732L147.136 123.872Z" fill="#FFBE55"/>
<path d="M172.109 210.169C172.281 210.174 172.453 210.167 172.613 210.16C176.153 210.051 178.151 209.55 178.151 209.55L178.109 208.53C177.269 192.897 178.109 167.254 178.145 159.16C178.147 158.593 178.113 158.078 178.033 157.613C177.175 151.723 171.101 152.75 168.756 158.291C168.207 159.582 167.785 161.003 167.479 162.531C167.099 164.37 166.873 166.362 166.775 168.472C166.139 182.023 170.65 200.129 172.109 210.169Z" fill="#FFBE55"/>
<path d="M158.191 129.731C158.222 129.89 158.266 130.061 158.31 130.231C159.954 137.295 165.132 156.359 167.478 162.519L167.478 162.531C167.822 163.392 168.896 164.086 170.25 164.388C173.356 165.098 177.892 163.765 178.033 157.613C178.054 156.935 178.011 156.197 177.917 155.401C177.307 150.437 175.081 122.963 174.751 120.316C174.433 117.668 173.794 113.815 172.373 113.381C165.282 111.246 155.95 119.847 158.191 129.731Z" fill="#FFBE55"/>
<path d="M145.438 158.852C149.987 154.201 156.658 156.039 153.867 163.081C150.882 170.61 141.559 191.557 136.649 206.416L136.308 207.384C136.308 207.384 134.077 207.092 130.461 205.751C132.693 196.145 133.927 179.697 138.91 168.066C140.512 164.326 143.08 161.263 145.438 158.852Z" fill="#FFBE55"/>
<path d="M170.298 113.975C170.765 102.937 157.366 110.807 150.945 114.71C148.242 116.352 147.356 119.453 147.103 122.348C146.849 125.242 144.518 155.032 144.028 160.47C142.922 172.729 153.289 165.623 154.156 162.203C156.342 153.569 170.044 119.989 170.298 113.975Z" fill="#FFBE55"/>
<path d="M168.473 44.3685C168.502 45.1997 168.534 48.4491 166.809 49.2249C165.084 50.0128 163.978 50.3434 164.027 50.61C164.047 50.731 164.217 51.3029 164.4 51.8634C164.797 53.1178 165.398 53.4294 165.398 53.4294L165.647 57.5894L162.548 60.6826L161.536 61.6904L160.014 60.2967L155.055 55.7757C155.055 55.7757 157.098 53.2557 155.687 50.5549C155.485 50.1743 153.225 47.6695 151.423 45.1463C150.374 43.6624 149.481 42.1846 149.245 41.1288C148.598 38.2408 148.054 35.2006 149.71 33.3872C151.354 31.5735 162.71 24.1175 164.983 32.8661C164.983 32.8664 168.445 43.5374 168.473 44.3685Z" fill="#FFE3CA"/>
<path d="M155.04 41.8445C155.04 41.8445 157.768 42.8297 157.488 39.1249C157.472 38.9225 157.617 38.7413 157.831 38.6778C158.629 38.4416 160.39 37.5074 159.493 33.9305C159.418 33.632 159.637 33.3384 159.973 33.2928C161.131 33.1357 163.523 32.8264 164.054 32.8741C164.054 32.8741 164.317 32.8482 164.71 32.9136C164.838 32.9349 164.949 33.0074 165.007 33.1121C165.192 33.4433 166.25 36.8196 166.25 36.8196C166.25 36.8196 167.51 35.8683 167.375 35.2266C167.24 34.5848 166.646 33.2237 166.714 32.8822C166.782 32.5404 167.752 32.1384 167.759 31.3698C167.775 29.6317 167.097 22.9785 161.825 27.0692C161.135 27.6042 160.523 28.2476 159.912 28.4725C159.115 28.7657 158.214 28.2001 156.478 28.3226C154.053 28.4934 143.632 30.9328 146.969 40.2079C150.305 49.4831 155.795 50.8063 155.795 50.8063C155.795 50.8063 153.995 43.0239 155.04 41.8445Z" fill="#0B4870"/>
<path d="M155.04 41.8445C155.04 41.8445 154.524 40.2502 153.192 40.7095C151.403 41.3264 151.565 45.8218 155.46 45.2296C155.46 45.2298 154.939 43.3919 155.04 41.8445Z" fill="#FFE3CA"/>
<path d="M179.882 112.568C179.882 112.568 160.206 116.084 142.494 112.794C143.353 107.317 146.713 91.8421 146.941 85.5953L146.965 84.9586C147.106 80.9701 147.179 78.1217 147.268 78.005C147.445 77.7593 146.815 65.0314 147.859 60.0428C148.051 59.1239 148.304 58.4719 148.627 58.2076C150.7 56.4826 153.137 54.6753 155.857 53.3242C155.857 53.3242 162.195 60.1477 165.429 52.5965C168.987 52.2758 170.799 52.9949 171.828 56.5593C177.525 76.3623 179.882 112.568 179.882 112.568Z" fill="#2A94F4"/>
<path d="M168.084 52.6437C168.084 52.6437 173.978 52.7439 179.99 50.077C183.345 54.025 185.373 61.2205 185.373 61.2205C185.373 61.2205 177.262 66.3798 171.333 66.8759C170.062 58.2273 168.084 52.6437 168.084 52.6437Z" fill="#2A94F4"/>
<path d="M178.534 65.2755L179.238 66.669L177.875 65.9082L167.319 54.8973L167.978 54.2643L178.534 65.2755Z" fill="#0B4870"/>
<path d="M144.734 77.9619C144.734 77.9619 147.461 87.3804 154.555 91.8148C156.621 93.1066 159.215 92.3844 160.839 90.5663C165.695 85.1308 170.549 72.8862 172.103 68.2628C169.256 66.7502 168.346 66.9858 168.346 66.9858C168.346 66.9858 161.459 76.5551 157.507 82.9585L154.556 77.8076" fill="#FCD2B1"/>
<path d="M168.143 67.3428C168.143 67.3428 169.409 65.295 169.468 63.7435C169.528 62.1921 168.793 59.5101 170.299 58.1143C170.86 57.5947 172.821 56.7993 175.029 57.1649C178.314 57.7089 175.717 63.4096 175.567 64.7043C175.342 66.6505 172.631 67.4739 172.042 68.4439C171.622 69.1336 168.143 67.3428 168.143 67.3428Z" fill="#FCD2B1"/>
<path d="M150.251 56.9061C150.251 56.9061 142.941 61.6983 142.629 69.8567C142.387 76.1649 146.555 85.3692 146.555 85.3692C146.555 85.3692 153.787 86.1674 157.583 80.2518C156.458 77.3782 155.475 74.8259 153.314 71.4337" fill="#2A94F4"/>
<path d="M198.748 6.91378L201.043 31.2131C201.106 31.8756 201.72 32.3434 202.375 32.2273L219.137 29.2527C219.72 29.1493 220.126 28.6147 220.071 28.0243L217.775 3.72495C217.713 3.06248 217.098 2.59466 216.444 2.71077L199.682 5.68512C199.098 5.78877 198.692 6.3231 198.748 6.91378Z" fill="#FFBE55"/>
<path d="M199.989 7.31306L202.187 30.5783L218.83 27.6247L216.632 4.35962L199.989 7.31306Z" fill="#F7F7F7"/>
<path d="M215.473 6.50873L201.329 9.01863" stroke="#D3D3D3" stroke-width="0.5282" stroke-miterlimit="10" stroke-linecap="round" stroke-linejoin="round"/>
<path d="M215.691 8.70435L201.548 11.2142" stroke="#D3D3D3" stroke-width="0.5282" stroke-miterlimit="10" stroke-linecap="round" stroke-linejoin="round"/>
<path d="M210.626 12.2529L201.788 13.8215" stroke="#D3D3D3" stroke-width="0.5282" stroke-miterlimit="10" stroke-linecap="round" stroke-linejoin="round"/>
<path d="M210.606 14.209L201.767 15.7775" stroke="#D3D3D3" stroke-width="0.5282" stroke-miterlimit="10" stroke-linecap="round" stroke-linejoin="round"/>
<path d="M210.584 16.1649L201.746 17.7334" stroke="#D3D3D3" stroke-width="0.5282" stroke-miterlimit="10" stroke-linecap="round" stroke-linejoin="round"/>
<path d="M216.876 24.8621L208.038 26.4307" stroke="#D3D3D3" stroke-width="0.5282" stroke-miterlimit="10" stroke-linecap="round" stroke-linejoin="round"/>
<path d="M209.884 103.703C210.942 103.204 211.729 102.28 212.482 101.384C213.224 100.499 213.967 99.6146 214.709 98.7296C215.002 98.3806 215.309 97.9989 215.342 97.5444C214.097 97.4431 213.295 99.0615 212.05 99.1573C212.63 97.1057 213.463 95.1259 214.523 93.2768C214.782 92.8257 215.063 92.2994 214.88 91.8127C213.534 92.327 212.401 93.2846 211.421 94.3406C210.733 95.0826 210.105 95.8817 209.547 96.7268C207.904 99.2154 206.886 102.071 206.193 104.973" fill="#FCD2B1"/>
<path d="M204.528 124.965L191.183 113.697C191.183 113.697 184.972 122.127 187.312 130.26C188.462 134.259 189.907 136.242 190.534 138.139C191.12 139.912 195.136 165.007 194.837 166.841C194.537 168.676 192.38 173.809 191.557 179.208C190.567 185.701 190.735 206.855 189.967 212.465C189.2 218.074 194.375 219.022 194.66 217.125C197.092 200.906 203.517 175.631 204.416 167.523C205.315 159.414 204.95 144.565 204.528 124.965Z" fill="#FCD2B1"/>
<path d="M195.558 211.916C195.558 211.916 194.315 217.801 194.65 218.551C194.984 219.301 196.186 221.481 197.417 222.269C198.709 223.096 201.57 224.079 201.799 224.437C202.028 224.796 201.329 224.354 200.921 224.674C199.867 225.503 197.863 225.523 196.667 225.325C192.788 224.684 193.275 224.316 191.015 224.042C190.625 223.994 189.902 224.572 188.823 224.019C187.743 223.466 187.219 222.467 187.312 221.527C187.471 219.906 188.381 218.57 189.029 217.371C189.676 216.172 190.132 210.686 190.132 210.686" fill="#FCD2B1"/>
<path d="M202.029 224.527C202.05 224.086 200.366 223.419 199.614 223.072C198.861 222.726 197.668 222.42 198.089 222.648C198.509 222.875 197.732 223.758 197.031 223.681C186.763 222.546 188.585 218.706 188.497 218.323C188.119 218.563 187.239 220.465 187.061 221.063C186.9 221.604 186.808 222.573 186.765 223.155C186.581 225.618 201.844 228.4 202.029 224.527Z" fill="#0B4870"/>
<path d="M222.749 225.678C222.462 225.361 219.371 224.858 217.921 224.252C216.539 223.674 214.866 221.816 214.54 221.029C214.215 220.241 214.289 216.247 214.331 214.571C214.62 203.022 216.752 174.8 217.061 168.041C217.598 156.293 216.074 144.168 211.558 125.31L194.741 112.393C194.741 112.393 190.032 121.156 191.609 129.534C192.523 134.394 196.552 135.142 197.233 137.031C197.914 138.92 208.088 169.379 208.088 169.379C208.088 169.379 206.109 175.963 205.994 183.177C205.895 189.335 208.686 207.911 209.203 214.988C209.264 216.371 209.502 219.682 209.095 220.736C208.596 222.027 207.325 223.544 207.389 225.173C207.426 226.117 207.527 225.889 208.719 226.259C209.911 226.629 211.155 227.069 211.565 227.052C213.935 226.954 214.61 226.983 218.703 226.981C219.966 226.981 221.777 227.885 222.748 226.893C223.124 226.509 223.035 225.995 222.749 225.678Z" fill="#FCD2B1"/>
<path d="M223.101 227.124C223.23 226.568 223.295 225.863 222.998 225.729C222.587 225.543 221.126 224.905 220.301 224.686C219.476 224.467 218.201 224.36 218.667 224.516C219.133 224.672 218.458 225.711 217.722 225.711C208.483 225.711 208.719 222.174 208.574 221.81C208.218 222.11 207.165 224.133 207.065 224.754C206.975 225.315 206.964 226.295 207.055 226.871C207.216 227.898 222.716 228.787 223.101 227.124Z" fill="#0B4870"/>
<path d="M191.534 112.279C190.392 113.534 186.325 120.316 186.282 125.837C186.239 131.358 188.201 134.898 188.377 136.051C189.667 144.485 190.914 154.656 190.914 155.208C190.914 155.76 195.698 158.953 202.131 158.548C214.017 157.799 218.638 154.683 218.638 154.683C218.638 154.683 218.075 134.254 216.243 124.181C215.325 119.132 211.326 111.008 211.326 111.008" fill="#0E538C"/>
<path d="M180.689 90.22C180.689 90.22 182.604 99.7394 183.106 101.434C183.608 103.128 186.092 113.884 188.446 113.697C190.8 113.51 203.692 102.737 203.692 102.737L201.866 99.0826L190.518 104.497C190.518 104.497 189.492 92.2012 188.593 89.2727" fill="#FFBE9D"/>
<path d="M188.377 77.0254C188.377 77.0254 184.614 77.4267 182.706 78.8878C177.84 82.6137 181.606 96.1381 181.606 96.1381C181.606 96.1381 181.366 96.8601 184.632 96.6767C187.899 96.4932 190.518 95.5631 190.518 95.5631L189.574 84.4812" fill="#FFBE55"/>
<path d="M206.363 52.0723C208.63 55.015 208.181 59.1532 207.622 62.8268C207.34 64.6841 207.057 66.5417 206.774 68.399C206.64 69.2815 206.461 70.2456 205.774 70.815C205.081 71.389 204.091 71.3793 203.192 71.3407C203.201 72.8778 203.211 74.4149 203.22 75.9522C200.592 76.0159 197.963 76.0265 195.335 75.9836C195.334 74.9074 195.1 73.832 194.654 72.8526C193.368 72.8275 192.509 71.5372 192.006 70.3531C191.425 68.9872 191.002 67.5605 190.594 66.1336C190.052 64.2401 189.53 62.3169 189.48 60.3479C189.43 58.3789 189.898 56.3321 191.148 54.8104C192 53.7728 193.161 53.0367 194.351 52.4152C195.981 51.564 197.939 50.892 199.62 51.6374" fill="#FFE3CA"/>
<path d="M203.643 66.0899C203.333 64.5443 203.355 63.6726 203.86 62.6435C204.028 62.3023 204.249 61.9808 204.551 61.7686C204.96 61.4817 205.503 61.4254 205.956 61.623C206.251 61.7519 206.494 61.9924 206.661 62.2814C207.197 60.2056 207.31 57.9933 207.155 55.8377C206.909 52.4189 204.85 49.7762 201.844 48.5404C196.277 46.2517 188.28 48.5127 186.019 53.9814C184.311 58.1118 185.177 64.0731 188.446 67.5355C191.34 70.6009 195.502 71.0512 199.344 70.4197C201.309 70.0967 204.343 70.2903 205.36 67.6151C205.439 67.4085 205.262 67.2028 205.053 67.2189C204.255 67.2801 203.701 66.3757 203.643 66.0899Z" fill="#0B4870"/>
<path d="M204.071 58.8181C204.277 59.1426 204.229 59.5787 204.423 59.9108C204.749 60.4686 205.183 60.6702 205.769 60.9421C206.713 61.3804 206.492 62.757 206.465 63.3726C207.178 62.8985 207.293 61.6075 207.466 60.9516C207.659 60.2152 207.782 59.4597 207.997 58.7292C208.205 58.0186 208.566 57.349 208.633 56.6014C208.864 54.0183 207.245 50.9821 205.287 49.5322C203.863 48.4766 201.688 48.5203 200.079 49.5938C199.401 50.046 198.891 50.729 198.591 51.4866C198.463 51.8122 198.374 52.1911 198.534 52.5023" fill="#0B4870"/>
<path d="M215.896 73.58L210.482 97.3788C210.335 98.0275 210.772 98.6642 211.43 98.759L228.281 101.181C228.867 101.265 229.42 100.884 229.552 100.306L234.965 76.5075C235.113 75.8587 234.676 75.222 234.018 75.1275L217.167 72.7058C216.581 72.6214 216.028 73.0018 215.896 73.58Z" fill="#0B4870"/>
<path d="M216.95 74.3478L211.767 97.1338L228.498 99.5382L233.681 76.7523L216.95 74.3478Z" fill="#F7F7F7"/>
<path d="M231.909 78.4309L217.69 76.3875" stroke="#D3D3D3" stroke-width="0.5282" stroke-miterlimit="10" stroke-linecap="round" stroke-linejoin="round"/>
<path d="M231.43 80.5847L217.212 78.5414" stroke="#D3D3D3" stroke-width="0.5282" stroke-miterlimit="10" stroke-linecap="round" stroke-linejoin="round"/>
<path d="M225.511 82.3699L216.625 81.0928" stroke="#D3D3D3" stroke-width="0.5282" stroke-miterlimit="10" stroke-linecap="round" stroke-linejoin="round"/>
<path d="M224.879 84.2212L215.994 82.9442" stroke="#D3D3D3" stroke-width="0.5282" stroke-miterlimit="10" stroke-linecap="round" stroke-linejoin="round"/>
<path d="M224.247 86.0725L215.362 84.7955" stroke="#D3D3D3" stroke-width="0.5282" stroke-miterlimit="10" stroke-linecap="round" stroke-linejoin="round"/>
<path d="M227.506 96.3027L218.62 95.0259" stroke="#D3D3D3" stroke-width="0.5282" stroke-miterlimit="10" stroke-linecap="round" stroke-linejoin="round"/>
<path d="M209.263 92.3819C209.263 92.3819 216.964 111.008 220.305 111.008C222.736 111.008 228.695 93.8139 228.695 93.8139L224.93 92.03L220.731 99.2308L216.479 85.8003" fill="#FFE3CA"/>
<path d="M224.182 93.3113C224.182 93.3113 225.431 91.3442 225.339 89.949C225.304 89.4168 224.989 86.8847 225.253 86.3869C225.516 85.8891 226.149 84.26 226.511 83.9431C226.873 83.6264 228.211 83.117 228.538 83.3433C228.865 83.5696 229.327 82.8738 229.815 82.6192C232.972 80.9715 235.179 87.6713 231.844 90.3264C231.242 90.8055 230.735 91.8547 229.743 92.4551C229.254 92.7515 228.986 93.2691 228.519 94.1478" fill="#FFE3CA"/>
<path d="M213.139 110.069C212.78 109.538 211.953 108.904 211.656 108.32C210.944 106.918 210.321 101.018 210.566 99.5103C210.829 97.8944 212.257 97.0253 212.902 93.4288C213.733 88.796 211.834 85.1955 210.773 83.6531C209.274 81.4721 210.163 81.4848 209.65 78.8129C209.557 78.3316 209.449 77.818 209.12 77.4825C208.796 77.1515 206.56 76.1289 206.121 76.0611C201.952 75.4147 199.502 75.9192 195.287 76.104C193.202 76.1952 191.121 76.4388 189.073 76.8908C186.808 77.3909 184.834 77.9921 184.368 81.0691C183.648 85.8279 184.254 90.639 185.699 95.1525C186.658 98.1442 192.378 108.494 190.961 110.497C190.637 110.955 189.826 111.824 189.728 112.395C189.369 114.487 194.091 115.223 196.112 115.389C199.192 115.642 202.725 115.472 205.812 115.328C208.15 115.218 213.265 114.401 213.629 111.509C213.7 110.941 213.419 110.484 213.139 110.069Z" fill="#FFBE55"/>
<path d="M202.18 75.7719C204.185 75.8762 210.024 74.851 213.269 78.2474C215.987 81.0929 217.544 88.5526 218.638 91.578C215.916 94.356 213.292 96.5963 209.166 95.6945C209.011 95.5786 206.964 89.1308 205.473 88.5572" fill="#FFBE55"/>
<path d="M205.053 67.219C205.053 67.219 211.969 76.0096 208.075 85.8005C203.312 97.7779 202.888 98.4127 208.075 105.473C213.262 112.533 208.66 121.201 201.216 123.448C193.772 125.695 174.656 124.611 175.812 107.838C176.285 100.979 180.893 99.9148 179.002 93.056C177.112 86.1972 176.703 81.9399 180.216 74.6081C183.729 67.2762 180.064 47.0604 198.852 47.767C198.852 47.7668 195.42 69.4086 205.053 67.219Z" fill="#0B4870"/>
</g>
<defs>
<clipPath id="clip0">
<rect width="405" height="228" fill="white" transform="translate(0 0.536133)"/>
</clipPath>
</defs>
</svg>
